M48
;Layer_Color=9474304
;FILE_FORMAT=2:4
INCH,TZ
;TYPE=PLATED
T1F00S00C0.0350
T2F00S00C0.0400
T3F00S00C0.0402
;TYPE=NON_PLATED
T5F00S00C0.0500
%
T01
X15400Y3400
Y4400
Y5400
Y6400
T02
X1600Y3400
X12600
Y4400
Y5400
Y6400
Y7400
X8950Y12500
Y13500
Y14500
Y15500
Y16500
Y17500
Y18500
Y19500
X1950
Y18500
Y17500
Y16500
Y15500
Y14500
Y13500
Y12500
X1600Y7400
Y6400
Y5400
Y4400
X1950Y20500
Y21500
Y22500
Y23500
Y24500
Y25500
Y26500
Y27500
Y28500
Y29500
Y30500
Y31500
X8950
Y30500
Y29500
Y28500
Y27500
Y26500
Y25500
Y24500
Y23500
Y22500
Y21500
Y20500
X11400Y21044
X13600Y22500
Y23500
X11400Y25300
X16100Y25306
X15950Y27850
X13950Y29130
Y31100
X15950Y32106
X16100Y21050
X18550Y22400
Y23400
T03
X18700Y3259
Y4440
Y5621
Y6802
T05
X17928Y2077
Y7983
M30
