G04*
G04 #@! TF.GenerationSoftware,Altium Limited,Altium Designer,22.8.2 (66)*
G04*
G04 Layer_Color=65535*
%FSLAX25Y25*%
%MOIN*%
G70*
G04*
G04 #@! TF.SameCoordinates,4CFF4697-AE4C-4395-87EC-722ADA673B8C*
G04*
G04*
G04 #@! TF.FilePolarity,Positive*
G04*
G01*
G75*
%ADD10C,0.01181*%
%ADD11C,0.00787*%
%ADD12C,0.00500*%
%ADD13C,0.01000*%
G36*
X152772Y202485D02*
X153443D01*
Y202262D01*
X153666D01*
Y202038D01*
X153890D01*
Y201815D01*
X154113D01*
Y201367D01*
X154337D01*
Y200473D01*
X154560D01*
Y198238D01*
X154337D01*
Y197120D01*
X154113D01*
Y196896D01*
X153890D01*
Y196449D01*
X153443D01*
Y196225D01*
X152995D01*
Y196002D01*
X152101D01*
Y196225D01*
X151654D01*
Y196449D01*
X151207D01*
Y196896D01*
X150760D01*
Y196672D01*
X150313D01*
Y196449D01*
X149642D01*
Y196672D01*
X149195D01*
Y196896D01*
X148971D01*
Y197343D01*
X148748D01*
Y197120D01*
X148524D01*
Y196896D01*
X148301D01*
Y196672D01*
X147853D01*
Y196449D01*
X146065D01*
Y196672D01*
X145618D01*
Y196896D01*
X145394D01*
Y197120D01*
X145171D01*
Y197343D01*
X144947D01*
Y197790D01*
X144724D01*
Y198461D01*
X144500D01*
Y200026D01*
X144724D01*
Y202485D01*
X145394D01*
Y202709D01*
X146065D01*
Y201815D01*
X148077D01*
Y201591D01*
X148301D01*
Y201367D01*
X148524D01*
Y201144D01*
X148748D01*
Y200920D01*
X148971D01*
Y200473D01*
X149195D01*
Y198461D01*
X149418D01*
Y198238D01*
X149865D01*
Y198461D01*
X150089D01*
Y200920D01*
X150313D01*
Y201591D01*
X150536D01*
Y202038D01*
X150760D01*
Y202262D01*
X150983D01*
Y202485D01*
X151430D01*
Y202709D01*
X152772D01*
Y202485D01*
D02*
G37*
G36*
X150983Y195331D02*
X151207D01*
Y193990D01*
X150983D01*
Y193766D01*
X146736D01*
Y193543D01*
X146289D01*
Y192872D01*
X146065D01*
Y192648D01*
X146289D01*
Y191978D01*
X146512D01*
Y191754D01*
X146736D01*
Y191531D01*
X146959D01*
Y191307D01*
X151207D01*
Y189742D01*
X150983D01*
Y189519D01*
X144947D01*
Y189966D01*
X144724D01*
Y191084D01*
X145618D01*
Y191531D01*
X145171D01*
Y191754D01*
X144947D01*
Y192201D01*
X144724D01*
Y192648D01*
X144500D01*
Y194213D01*
X144724D01*
Y194660D01*
X144947D01*
Y194884D01*
X145171D01*
Y195108D01*
X145394D01*
Y195331D01*
X146065D01*
Y195555D01*
X150983D01*
Y195331D01*
D02*
G37*
G36*
Y188177D02*
X151207D01*
Y186836D01*
X150983D01*
Y186612D01*
X144724D01*
Y188177D01*
X144947D01*
Y188401D01*
X150983D01*
Y188177D01*
D02*
G37*
G36*
X142711Y188401D02*
X143382D01*
Y187954D01*
X143606D01*
Y186836D01*
X143382D01*
Y186612D01*
X143159D01*
Y186389D01*
X142041D01*
Y186612D01*
X141817D01*
Y186836D01*
X141594D01*
Y187059D01*
X141370D01*
Y187730D01*
X141594D01*
Y188177D01*
X141817D01*
Y188401D01*
X142264D01*
Y188624D01*
X142711D01*
Y188401D01*
D02*
G37*
G36*
X189339Y195904D02*
X190083D01*
Y195755D01*
X190231D01*
Y189210D01*
X190975D01*
Y189359D01*
X191272D01*
Y189507D01*
X191570D01*
Y189656D01*
X191719D01*
Y189805D01*
X191867D01*
Y189954D01*
X192016D01*
Y190251D01*
X192165D01*
Y190549D01*
X192314D01*
Y190846D01*
X192463D01*
Y191590D01*
X192611D01*
Y193524D01*
X192463D01*
Y194416D01*
X192314D01*
Y195011D01*
X192165D01*
Y195457D01*
X192016D01*
Y195904D01*
X192909D01*
Y195755D01*
X193355D01*
Y195606D01*
X193652D01*
Y195457D01*
X193950D01*
Y195309D01*
X194247D01*
Y195160D01*
X194396D01*
Y194862D01*
X194545D01*
Y194565D01*
X194694D01*
Y194119D01*
X194843D01*
Y193524D01*
X194991D01*
Y192482D01*
X195140D01*
Y190846D01*
X194991D01*
Y189805D01*
X194843D01*
Y189359D01*
X194694D01*
Y188912D01*
X194545D01*
Y188615D01*
X194396D01*
Y188318D01*
X194247D01*
Y188020D01*
X194099D01*
Y187871D01*
X193950D01*
Y187723D01*
X193801D01*
Y187425D01*
X193652D01*
Y187276D01*
X193504D01*
Y187127D01*
X193206D01*
Y186979D01*
X193058D01*
Y186830D01*
X192909D01*
Y186681D01*
X192611D01*
Y186532D01*
X192314D01*
Y186384D01*
X192016D01*
Y186235D01*
X191570D01*
Y186086D01*
X190975D01*
Y185938D01*
X189785D01*
Y185789D01*
X188744D01*
Y185938D01*
X187703D01*
Y186086D01*
X187256D01*
Y186235D01*
X186810D01*
Y186384D01*
X186364D01*
Y186532D01*
X186066D01*
Y186681D01*
X185917D01*
Y186830D01*
X185620D01*
Y186979D01*
X185471D01*
Y187127D01*
X185322D01*
Y187276D01*
X185025D01*
Y187425D01*
X184876D01*
Y187574D01*
X184728D01*
Y187871D01*
X184579D01*
Y188020D01*
X184430D01*
Y188169D01*
X184281D01*
Y188466D01*
X184133D01*
Y188615D01*
X183984D01*
Y189061D01*
X183835D01*
Y189507D01*
X183686D01*
Y189954D01*
X183537D01*
Y190846D01*
X183389D01*
Y192036D01*
X183537D01*
Y192929D01*
X183686D01*
Y193524D01*
X183835D01*
Y193821D01*
X183984D01*
Y194119D01*
X184133D01*
Y194267D01*
X184281D01*
Y194565D01*
X184430D01*
Y194714D01*
X184579D01*
Y194862D01*
X184728D01*
Y195011D01*
X184876D01*
Y195160D01*
X185174D01*
Y195309D01*
X185322D01*
Y195457D01*
X185620D01*
Y195606D01*
X185917D01*
Y195755D01*
X186364D01*
Y195904D01*
X187108D01*
Y196053D01*
X189339D01*
Y195904D01*
D02*
G37*
G36*
X151207Y184153D02*
X150983D01*
Y183706D01*
X150536D01*
Y183482D01*
X150313D01*
Y183259D01*
X149865D01*
Y183035D01*
X149642D01*
Y182812D01*
X149195D01*
Y182588D01*
X148748D01*
Y182365D01*
X148524D01*
Y182141D01*
X148301D01*
Y181694D01*
X150983D01*
Y181470D01*
X151207D01*
Y180129D01*
X150983D01*
Y179905D01*
X141817D01*
Y180576D01*
X141594D01*
Y181694D01*
X146959D01*
Y182365D01*
X146736D01*
Y182588D01*
X146512D01*
Y182812D01*
X146065D01*
Y183035D01*
X145841D01*
Y183259D01*
X145394D01*
Y183482D01*
X145171D01*
Y183706D01*
X144947D01*
Y183930D01*
X144724D01*
Y185494D01*
X144947D01*
Y185718D01*
X145171D01*
Y185494D01*
X145394D01*
Y185271D01*
X145841D01*
Y185047D01*
X146065D01*
Y184824D01*
X146289D01*
Y184600D01*
X146736D01*
Y184377D01*
X146959D01*
Y184153D01*
X147183D01*
Y183930D01*
X148077D01*
Y184153D01*
X148301D01*
Y184377D01*
X148748D01*
Y184600D01*
X149195D01*
Y184824D01*
X149418D01*
Y185047D01*
X149865D01*
Y185271D01*
X150089D01*
Y185494D01*
X150313D01*
Y185718D01*
X150760D01*
Y185942D01*
X151207D01*
Y184153D01*
D02*
G37*
G36*
X186661Y185194D02*
X186810D01*
Y184896D01*
X186661D01*
Y184450D01*
X186512D01*
Y183111D01*
X186661D01*
Y182665D01*
X186810D01*
Y182516D01*
X186959D01*
Y182219D01*
X187108D01*
Y182070D01*
X187256D01*
Y181921D01*
X187554D01*
Y181772D01*
X187703D01*
Y181624D01*
X188000D01*
Y181475D01*
X188297D01*
Y181326D01*
X194545D01*
Y181029D01*
X194694D01*
Y180285D01*
Y180136D01*
Y179690D01*
X194843D01*
Y179393D01*
X194694D01*
Y178649D01*
X194545D01*
Y178202D01*
X184133D01*
Y178351D01*
X183984D01*
Y178797D01*
X183835D01*
Y179393D01*
X183686D01*
Y180731D01*
X184133D01*
Y180880D01*
X185620D01*
Y181177D01*
X185322D01*
Y181326D01*
X184876D01*
Y181475D01*
X184579D01*
Y181624D01*
X184430D01*
Y181772D01*
X184281D01*
Y181921D01*
X184133D01*
Y182070D01*
X183984D01*
Y182219D01*
X183835D01*
Y182368D01*
X183686D01*
Y182814D01*
X183537D01*
Y183260D01*
X183389D01*
Y184450D01*
X183537D01*
Y184896D01*
X183686D01*
Y185045D01*
X183984D01*
Y185194D01*
X184430D01*
Y185343D01*
X186661D01*
Y185194D01*
D02*
G37*
G36*
X194396Y176269D02*
X194545D01*
Y175971D01*
X194694D01*
Y175079D01*
X194843D01*
Y174484D01*
X194694D01*
Y173591D01*
X194545D01*
Y173294D01*
X194396D01*
Y173145D01*
X184133D01*
Y173294D01*
X183984D01*
Y173591D01*
X183835D01*
Y175971D01*
X183984D01*
Y176120D01*
Y176269D01*
X184133D01*
Y176418D01*
X194396D01*
Y176269D01*
D02*
G37*
G36*
X150536Y179235D02*
X151207D01*
Y178564D01*
X151430D01*
Y177446D01*
X151207D01*
Y177223D01*
X150983D01*
Y176999D01*
X150536D01*
Y176552D01*
X150760D01*
Y176328D01*
X150983D01*
Y176105D01*
X151207D01*
Y175434D01*
X151430D01*
Y174540D01*
X151207D01*
Y173869D01*
X150983D01*
Y173422D01*
X150760D01*
Y173198D01*
X150313D01*
Y172975D01*
X148301D01*
Y173198D01*
X148077D01*
Y173422D01*
X147853D01*
Y173646D01*
X147630D01*
Y174093D01*
X147406D01*
Y174763D01*
X147183D01*
Y176328D01*
X147406D01*
Y176552D01*
X146512D01*
Y176328D01*
X146289D01*
Y176105D01*
X146065D01*
Y174540D01*
X146289D01*
Y173869D01*
X146512D01*
Y173422D01*
X144947D01*
Y173869D01*
X144724D01*
Y174540D01*
X144500D01*
Y176776D01*
X144724D01*
Y177446D01*
X144947D01*
Y177670D01*
X145171D01*
Y177893D01*
X145394D01*
Y178117D01*
X145618D01*
Y178340D01*
X149195D01*
Y178564D01*
X149642D01*
Y178788D01*
X149865D01*
Y179235D01*
X149642D01*
Y179458D01*
X150536D01*
Y179235D01*
D02*
G37*
G36*
X180414Y176566D02*
X181009D01*
Y176418D01*
X181306D01*
Y176269D01*
X181455D01*
Y176120D01*
X181604D01*
Y175971D01*
X181753D01*
Y175822D01*
X181901D01*
Y175376D01*
X182050D01*
Y174186D01*
X181901D01*
Y173740D01*
X181753D01*
Y173591D01*
X181604D01*
Y173294D01*
X181306D01*
Y173145D01*
X181158D01*
Y172996D01*
X180562D01*
Y172847D01*
X179670D01*
Y172996D01*
X179224D01*
Y173145D01*
X178926D01*
Y173294D01*
X178778D01*
Y173442D01*
X178629D01*
Y173591D01*
X178480D01*
Y173889D01*
X178331D01*
Y174335D01*
X178182D01*
Y175376D01*
X178331D01*
Y175674D01*
X178480D01*
Y175971D01*
X178629D01*
Y176120D01*
X178778D01*
Y176269D01*
X178926D01*
Y176418D01*
X179224D01*
Y176566D01*
X179819D01*
Y176715D01*
X180414D01*
Y176566D01*
D02*
G37*
G36*
X150983Y171634D02*
X151207D01*
Y170516D01*
X150983D01*
Y170292D01*
X143606D01*
Y170069D01*
X144053D01*
Y169845D01*
X145171D01*
Y169622D01*
X145841D01*
Y169398D01*
X146736D01*
Y169174D01*
X147406D01*
Y168951D01*
X148077D01*
Y168727D01*
X148748D01*
Y168504D01*
X149642D01*
Y168280D01*
X150313D01*
Y168057D01*
X150983D01*
Y167833D01*
X151207D01*
Y166268D01*
X150983D01*
Y166044D01*
X150313D01*
Y165821D01*
X149642D01*
Y165597D01*
X148971D01*
Y165374D01*
X148301D01*
Y165150D01*
X147630D01*
Y164927D01*
X146736D01*
Y164703D01*
X146065D01*
Y164480D01*
X145394D01*
Y164256D01*
X144276D01*
Y164032D01*
X143606D01*
Y163809D01*
X150983D01*
Y163585D01*
X151207D01*
Y162468D01*
X150983D01*
Y162244D01*
X142041D01*
Y164927D01*
X142264D01*
Y165150D01*
X142935D01*
Y165374D01*
X143829D01*
Y165597D01*
X144500D01*
Y165821D01*
X145171D01*
Y166044D01*
X145841D01*
Y166268D01*
X146512D01*
Y166492D01*
X147406D01*
Y166715D01*
X148301D01*
Y166939D01*
X149418D01*
Y167162D01*
X148748D01*
Y167386D01*
X147630D01*
Y167610D01*
X146736D01*
Y167833D01*
X145841D01*
Y168057D01*
X145171D01*
Y168280D01*
X144500D01*
Y168504D01*
X143606D01*
Y168727D01*
X142935D01*
Y168951D01*
X142264D01*
Y169174D01*
X142041D01*
Y169845D01*
Y170069D01*
Y171857D01*
X150983D01*
Y171634D01*
D02*
G37*
G36*
X194396Y171211D02*
X194545D01*
Y170914D01*
X194694D01*
Y170319D01*
X194843D01*
Y168831D01*
X194396D01*
Y168683D01*
X193801D01*
Y168534D01*
X193355D01*
Y168236D01*
X193652D01*
Y168087D01*
X193801D01*
Y167939D01*
X194099D01*
Y167790D01*
X194247D01*
Y167641D01*
X194396D01*
Y167344D01*
X194545D01*
Y167195D01*
X194694D01*
Y166897D01*
X194843D01*
Y166451D01*
X194991D01*
Y165708D01*
X195140D01*
Y164071D01*
X194991D01*
Y163476D01*
X194843D01*
Y163030D01*
X194694D01*
Y162733D01*
X194545D01*
Y162584D01*
X194396D01*
Y162435D01*
X194247D01*
Y162286D01*
X194099D01*
Y162137D01*
X193950D01*
Y161989D01*
X193801D01*
Y161840D01*
X193504D01*
Y161691D01*
X193206D01*
Y161542D01*
X192611D01*
Y161394D01*
X191719D01*
Y161245D01*
X184281D01*
Y161394D01*
X184133D01*
Y161691D01*
X183984D01*
Y162286D01*
X183835D01*
Y163030D01*
X183686D01*
Y164369D01*
X190826D01*
Y164517D01*
X191421D01*
Y164666D01*
X191719D01*
Y164815D01*
X191867D01*
Y164964D01*
X192016D01*
Y165261D01*
X192165D01*
Y167046D01*
X192016D01*
Y167344D01*
X191867D01*
Y167641D01*
X191719D01*
Y167790D01*
X191570D01*
Y167939D01*
X191421D01*
Y168087D01*
X191272D01*
Y168236D01*
X183984D01*
Y168534D01*
X183835D01*
Y171063D01*
X183984D01*
Y171360D01*
X194396D01*
Y171211D01*
D02*
G37*
G36*
X149418Y159114D02*
X150313D01*
Y158890D01*
X150536D01*
Y158667D01*
X150760D01*
Y158443D01*
X150983D01*
Y157996D01*
X151207D01*
Y157102D01*
X151430D01*
Y155761D01*
X151207D01*
Y154866D01*
X150983D01*
Y154643D01*
X150760D01*
Y154419D01*
X149418D01*
Y154643D01*
X149642D01*
Y155090D01*
X149865D01*
Y156208D01*
X150089D01*
Y156878D01*
X149865D01*
Y157326D01*
X148971D01*
Y157102D01*
X148748D01*
Y156431D01*
X148524D01*
Y155984D01*
X148301D01*
Y155537D01*
X148077D01*
Y155090D01*
X147853D01*
Y154866D01*
X147406D01*
Y154643D01*
X145618D01*
Y154866D01*
X145171D01*
Y155090D01*
X144947D01*
Y155537D01*
X144724D01*
Y156208D01*
X144500D01*
Y157773D01*
X144724D01*
Y158443D01*
X144947D01*
Y158667D01*
X145171D01*
Y158890D01*
X146289D01*
Y158443D01*
X146065D01*
Y157549D01*
X145841D01*
Y156655D01*
X146065D01*
Y156431D01*
X146736D01*
Y156655D01*
X146959D01*
Y157102D01*
X147183D01*
Y157773D01*
X147406D01*
Y158220D01*
X147630D01*
Y158667D01*
X147853D01*
Y158890D01*
X148301D01*
Y159114D01*
X148971D01*
Y159338D01*
X149418D01*
Y159114D01*
D02*
G37*
G36*
X199751Y159311D02*
X199900D01*
Y158716D01*
X200049D01*
Y157080D01*
X199900D01*
Y156485D01*
X199751D01*
Y156336D01*
X196181D01*
Y156485D01*
X194247D01*
Y156634D01*
X193355D01*
Y156485D01*
X193504D01*
Y156336D01*
X193801D01*
Y156187D01*
X193950D01*
Y156039D01*
X194099D01*
Y155890D01*
X194247D01*
Y155741D01*
X194396D01*
Y155593D01*
X194545D01*
Y155295D01*
X194694D01*
Y155146D01*
X194843D01*
Y154700D01*
X194991D01*
Y154105D01*
X195140D01*
Y152618D01*
X194991D01*
Y152023D01*
X194843D01*
Y151576D01*
X194694D01*
Y151279D01*
X194545D01*
Y150981D01*
X194396D01*
Y150832D01*
X194247D01*
Y150535D01*
X194099D01*
Y150386D01*
X193950D01*
Y150238D01*
X193652D01*
Y150089D01*
X193504D01*
Y149940D01*
X193355D01*
Y149791D01*
X193058D01*
Y149643D01*
X192760D01*
Y149494D01*
X192463D01*
Y149345D01*
X192016D01*
Y149196D01*
X191421D01*
Y149048D01*
X188000D01*
Y149196D01*
X187405D01*
Y149345D01*
X186959D01*
Y149494D01*
X186661D01*
Y149643D01*
X186364D01*
Y149791D01*
X186066D01*
Y149940D01*
X185769D01*
Y150089D01*
X185620D01*
Y150238D01*
X185471D01*
Y150386D01*
X185322D01*
Y150535D01*
X185025D01*
Y150832D01*
X184876D01*
Y150981D01*
X184728D01*
Y151130D01*
X184579D01*
Y151279D01*
X184430D01*
Y151576D01*
X184281D01*
Y151725D01*
X184133D01*
Y152023D01*
X183984D01*
Y152469D01*
X183835D01*
Y152915D01*
X183686D01*
Y153510D01*
X183537D01*
Y154551D01*
X183389D01*
Y156039D01*
X183537D01*
Y157080D01*
X183686D01*
Y157675D01*
X183835D01*
Y158121D01*
X183984D01*
Y158568D01*
X184133D01*
Y158865D01*
X184281D01*
Y159162D01*
X184430D01*
Y159460D01*
X199751D01*
Y159311D01*
D02*
G37*
G36*
X161044Y159785D02*
X161938D01*
Y155984D01*
X162161D01*
Y155761D01*
X162385D01*
Y155984D01*
X162832D01*
Y156208D01*
X163056D01*
Y156431D01*
X163279D01*
Y157102D01*
X163503D01*
Y158667D01*
X163279D01*
Y159561D01*
X163056D01*
Y159785D01*
X163950D01*
Y159561D01*
X164397D01*
Y159338D01*
X164621D01*
Y158667D01*
X164844D01*
Y156208D01*
X164621D01*
Y155537D01*
X164397D01*
Y155090D01*
X164173D01*
Y154866D01*
X163950D01*
Y154643D01*
X163726D01*
Y154419D01*
X163279D01*
Y154196D01*
X162609D01*
Y153972D01*
X160373D01*
Y154196D01*
X159926D01*
Y154419D01*
X159479D01*
Y154643D01*
X159031D01*
Y154866D01*
X158808D01*
Y155090D01*
X158584D01*
Y155537D01*
X158361D01*
Y155984D01*
X158137D01*
Y158443D01*
X158361D01*
Y158890D01*
X158584D01*
Y159114D01*
X158808D01*
Y159338D01*
X159031D01*
Y159561D01*
X159479D01*
Y159785D01*
X160597D01*
Y160008D01*
X161044D01*
Y159785D01*
D02*
G37*
G36*
X145841Y154196D02*
X146512D01*
Y153972D01*
X146289D01*
Y152854D01*
X146512D01*
Y152407D01*
X146736D01*
Y152184D01*
X147183D01*
Y151960D01*
X150983D01*
Y151737D01*
X151207D01*
Y150395D01*
X150983D01*
Y150172D01*
X144947D01*
Y150395D01*
X144724D01*
Y151513D01*
X144947D01*
Y151737D01*
X145841D01*
Y151960D01*
X145394D01*
Y152184D01*
X144947D01*
Y152407D01*
X144724D01*
Y152854D01*
X144500D01*
Y153972D01*
X144724D01*
Y154196D01*
X145618D01*
Y154419D01*
X145841D01*
Y154196D01*
D02*
G37*
G36*
X166633Y153525D02*
X167080D01*
Y153302D01*
X167303D01*
Y153078D01*
X167527D01*
Y152631D01*
X167751D01*
Y151960D01*
X167974D01*
Y148607D01*
X167751D01*
Y148160D01*
X167527D01*
Y147712D01*
X167303D01*
Y147489D01*
X166856D01*
Y147265D01*
X165291D01*
Y147489D01*
X164844D01*
Y147712D01*
X164621D01*
Y148160D01*
X164397D01*
Y147936D01*
X164173D01*
Y147712D01*
X162832D01*
Y147936D01*
X162609D01*
Y148160D01*
X162385D01*
Y148383D01*
X162161D01*
Y148160D01*
X161938D01*
Y147936D01*
X161714D01*
Y147712D01*
X160820D01*
Y147489D01*
X160149D01*
Y147712D01*
X159255D01*
Y147936D01*
X158808D01*
Y148160D01*
X158584D01*
Y148607D01*
X158361D01*
Y149054D01*
X158137D01*
Y151513D01*
X158361D01*
Y153525D01*
X158584D01*
Y153749D01*
X159479D01*
Y153078D01*
X159702D01*
Y152854D01*
X159926D01*
Y153078D01*
X161044D01*
Y152854D01*
X161714D01*
Y152631D01*
X161938D01*
Y152407D01*
X162161D01*
Y152184D01*
X162385D01*
Y151737D01*
X162609D01*
Y150842D01*
X162832D01*
Y149501D01*
X163056D01*
Y149277D01*
X163279D01*
Y149501D01*
X163503D01*
Y150172D01*
X163726D01*
Y152407D01*
X163950D01*
Y153078D01*
X164173D01*
Y153302D01*
X164397D01*
Y153525D01*
X164844D01*
Y153749D01*
X166633D01*
Y153525D01*
D02*
G37*
G36*
X148077Y149054D02*
X148524D01*
Y145253D01*
X149195D01*
Y145477D01*
X149418D01*
Y145700D01*
X149642D01*
Y146148D01*
X149865D01*
Y148607D01*
X149642D01*
Y149054D01*
X150536D01*
Y148830D01*
X150983D01*
Y148160D01*
X151207D01*
Y147265D01*
X151430D01*
Y145924D01*
X151207D01*
Y145030D01*
X150983D01*
Y144583D01*
X150760D01*
Y144359D01*
X150536D01*
Y144135D01*
X150313D01*
Y143912D01*
X150089D01*
Y143688D01*
X149642D01*
Y143465D01*
X148971D01*
Y143241D01*
X147183D01*
Y143465D01*
X146512D01*
Y143688D01*
X146065D01*
Y143912D01*
X145618D01*
Y144135D01*
X145394D01*
Y144359D01*
X145171D01*
Y144583D01*
X144947D01*
Y145030D01*
X144724D01*
Y145700D01*
X144500D01*
Y147265D01*
X144724D01*
Y147936D01*
X144947D01*
Y148383D01*
X145171D01*
Y148607D01*
X145394D01*
Y148830D01*
X145841D01*
Y149054D01*
X146512D01*
Y149277D01*
X148077D01*
Y149054D01*
D02*
G37*
G36*
X150983Y143241D02*
X151207D01*
Y141676D01*
X150983D01*
Y141229D01*
X150760D01*
Y141006D01*
X150313D01*
Y140782D01*
X150089D01*
Y140558D01*
X149865D01*
Y140335D01*
X149418D01*
Y140111D01*
X148971D01*
Y139888D01*
X148524D01*
Y139664D01*
X148301D01*
Y139217D01*
X148524D01*
Y138994D01*
X150983D01*
Y138770D01*
X151207D01*
Y137429D01*
X150983D01*
Y137205D01*
X141817D01*
Y137876D01*
X141594D01*
Y138994D01*
X146959D01*
Y139888D01*
X146512D01*
Y140111D01*
X146289D01*
Y140335D01*
X145841D01*
Y140558D01*
X145618D01*
Y140782D01*
X145394D01*
Y141006D01*
X144947D01*
Y141229D01*
X144724D01*
Y142794D01*
X144947D01*
Y143018D01*
X145171D01*
Y142794D01*
X145618D01*
Y142570D01*
X145841D01*
Y142347D01*
X146289D01*
Y142123D01*
X146512D01*
Y141900D01*
X146736D01*
Y141676D01*
X147183D01*
Y141453D01*
X147406D01*
Y141229D01*
X147853D01*
Y141453D01*
X148301D01*
Y141676D01*
X148524D01*
Y141900D01*
X148971D01*
Y142123D01*
X149418D01*
Y142347D01*
X149642D01*
Y142570D01*
X149865D01*
Y142794D01*
X150313D01*
Y143018D01*
X150536D01*
Y143241D01*
X150760D01*
Y143465D01*
X150983D01*
Y143241D01*
D02*
G37*
G36*
X164621Y144806D02*
X160149D01*
Y144583D01*
X159926D01*
Y144359D01*
X159702D01*
Y143241D01*
X159926D01*
Y142794D01*
X160373D01*
Y142570D01*
X164621D01*
Y140782D01*
X158361D01*
Y141453D01*
X158137D01*
Y142123D01*
X158584D01*
Y142347D01*
X159255D01*
Y142570D01*
X158808D01*
Y142794D01*
X158584D01*
Y143018D01*
X158361D01*
Y143465D01*
X158137D01*
Y145700D01*
X158361D01*
Y145924D01*
X158584D01*
Y146148D01*
X158808D01*
Y146371D01*
X159255D01*
Y146595D01*
X164621D01*
Y144806D01*
D02*
G37*
G36*
X191124Y147857D02*
X191867D01*
Y147709D01*
X192314D01*
Y147560D01*
X192611D01*
Y147411D01*
X192909D01*
Y147263D01*
X193058D01*
Y147114D01*
X193355D01*
Y146965D01*
X193504D01*
Y146816D01*
X193652D01*
Y146668D01*
X193801D01*
Y146519D01*
X193950D01*
Y146370D01*
X194099D01*
Y146221D01*
X194247D01*
Y145924D01*
X194396D01*
Y145626D01*
X194545D01*
Y145329D01*
X194694D01*
Y144883D01*
X194843D01*
Y144436D01*
X194991D01*
Y143693D01*
X195140D01*
Y140420D01*
X194991D01*
Y139676D01*
X194843D01*
Y139081D01*
X194694D01*
Y138486D01*
X194545D01*
Y138189D01*
X194396D01*
Y137742D01*
X194247D01*
Y137594D01*
X193801D01*
Y137445D01*
X193504D01*
Y137296D01*
X192909D01*
Y137147D01*
X191272D01*
Y137445D01*
X191421D01*
Y137742D01*
X191570D01*
Y138040D01*
X191719D01*
Y138486D01*
X191867D01*
Y138933D01*
X192016D01*
Y139527D01*
X192165D01*
Y140122D01*
X192314D01*
Y141313D01*
X192463D01*
Y141461D01*
Y141610D01*
Y142651D01*
X192314D01*
Y143395D01*
X192165D01*
Y143841D01*
X192016D01*
Y143990D01*
X191867D01*
Y144288D01*
X191719D01*
Y144436D01*
X191421D01*
Y144585D01*
X190975D01*
Y144734D01*
X190083D01*
Y144585D01*
X189785D01*
Y144436D01*
X189488D01*
Y144288D01*
X189339D01*
Y144139D01*
X189190D01*
Y143990D01*
X189041D01*
Y143841D01*
X188892D01*
Y143544D01*
X188744D01*
Y143246D01*
X188595D01*
Y142949D01*
X188446D01*
Y142502D01*
X188297D01*
Y142205D01*
X188149D01*
Y141610D01*
X188000D01*
Y141164D01*
X187851D01*
Y140866D01*
X187703D01*
Y140569D01*
X187554D01*
Y140122D01*
X187405D01*
Y139825D01*
X187256D01*
Y139527D01*
X187108D01*
Y139379D01*
X186959D01*
Y139081D01*
X186810D01*
Y138933D01*
X186661D01*
Y138784D01*
X186512D01*
Y138635D01*
X186364D01*
Y138486D01*
X186215D01*
Y138338D01*
X186066D01*
Y138189D01*
X185917D01*
Y138040D01*
X185620D01*
Y137891D01*
X185322D01*
Y137742D01*
X184876D01*
Y137594D01*
X184133D01*
Y137445D01*
X182645D01*
Y137594D01*
X181901D01*
Y137742D01*
X181455D01*
Y137891D01*
X181158D01*
Y138040D01*
X180860D01*
Y138189D01*
X180711D01*
Y138338D01*
X180414D01*
Y138486D01*
X180265D01*
Y138635D01*
X180116D01*
Y138784D01*
X179967D01*
Y138933D01*
X179819D01*
Y139081D01*
X179670D01*
Y139379D01*
X179521D01*
Y139527D01*
X179373D01*
Y139974D01*
X179224D01*
Y140271D01*
X179075D01*
Y140717D01*
X178926D01*
Y141313D01*
X178778D01*
Y144436D01*
X178926D01*
Y145031D01*
X179075D01*
Y145477D01*
X179224D01*
Y145924D01*
X179373D01*
Y146221D01*
X179521D01*
Y146519D01*
X179670D01*
Y146816D01*
X180116D01*
Y146965D01*
X180414D01*
Y147114D01*
X180860D01*
Y147263D01*
X182645D01*
Y147114D01*
X182496D01*
Y146965D01*
X182348D01*
Y146668D01*
X182199D01*
Y146370D01*
X182050D01*
Y145924D01*
X181901D01*
Y145477D01*
X181753D01*
Y145031D01*
X181604D01*
Y144288D01*
X181455D01*
Y142056D01*
X181604D01*
Y141610D01*
X181753D01*
Y141461D01*
X181901D01*
Y141164D01*
X182050D01*
Y141015D01*
X182348D01*
Y140866D01*
X182794D01*
Y140717D01*
X183240D01*
Y140866D01*
X183686D01*
Y141015D01*
X183984D01*
Y141164D01*
X184133D01*
Y141313D01*
X184281D01*
Y141461D01*
X184430D01*
Y141759D01*
X184579D01*
Y141908D01*
X184728D01*
Y142205D01*
X184876D01*
Y142651D01*
X185025D01*
Y142949D01*
X185174D01*
Y143395D01*
X185322D01*
Y143841D01*
X185471D01*
Y144288D01*
X185620D01*
Y144585D01*
X185769D01*
Y145031D01*
X185917D01*
Y145329D01*
X186066D01*
Y145626D01*
X186215D01*
Y145924D01*
X186364D01*
Y146072D01*
X186512D01*
Y146370D01*
X186661D01*
Y146519D01*
X186810D01*
Y146668D01*
X186959D01*
Y146816D01*
X187108D01*
Y146965D01*
X187256D01*
Y147114D01*
X187405D01*
Y147263D01*
X187703D01*
Y147411D01*
X187851D01*
Y147560D01*
X188297D01*
Y147709D01*
X188595D01*
Y147857D01*
X189339D01*
Y148006D01*
X191124D01*
Y147857D01*
D02*
G37*
G36*
X163950Y140111D02*
X164621D01*
Y139664D01*
X164844D01*
Y138099D01*
X164621D01*
Y137876D01*
X164173D01*
Y137652D01*
X163950D01*
Y137429D01*
X164397D01*
Y137205D01*
X164621D01*
Y136758D01*
X164844D01*
Y134969D01*
X164621D01*
Y134522D01*
X164397D01*
Y134299D01*
X164173D01*
Y134075D01*
X163950D01*
Y133852D01*
X163056D01*
Y133628D01*
X162609D01*
Y133852D01*
X161714D01*
Y134075D01*
X161491D01*
Y134299D01*
X161267D01*
Y134522D01*
X161044D01*
Y135193D01*
X160820D01*
Y137429D01*
X159926D01*
Y137205D01*
X159702D01*
Y134969D01*
X159926D01*
Y134522D01*
X160149D01*
Y134299D01*
X159926D01*
Y134075D01*
X159031D01*
Y134299D01*
X158584D01*
Y134522D01*
X158361D01*
Y134969D01*
X158137D01*
Y138099D01*
X158361D01*
Y138546D01*
X158584D01*
Y138770D01*
X158808D01*
Y138994D01*
X159255D01*
Y139217D01*
X163056D01*
Y139441D01*
X163279D01*
Y140335D01*
X163950D01*
Y140111D01*
D02*
G37*
G36*
X150760Y136534D02*
X151207D01*
Y136087D01*
X151430D01*
Y134969D01*
X151207D01*
Y134522D01*
X150983D01*
Y134299D01*
X150536D01*
Y134075D01*
X150760D01*
Y133852D01*
X150983D01*
Y133404D01*
X151207D01*
Y132957D01*
X151430D01*
Y131840D01*
X151207D01*
Y131169D01*
X150983D01*
Y130945D01*
X150760D01*
Y130722D01*
X150536D01*
Y130498D01*
X150089D01*
Y130275D01*
X148748D01*
Y130498D01*
X148077D01*
Y130722D01*
X147853D01*
Y130945D01*
X147630D01*
Y131392D01*
X147406D01*
Y132063D01*
X147183D01*
Y133628D01*
X147406D01*
Y134075D01*
X146512D01*
Y133852D01*
X146289D01*
Y133404D01*
X146065D01*
Y131840D01*
X146289D01*
Y131169D01*
X146512D01*
Y130722D01*
X145171D01*
Y130945D01*
X144947D01*
Y131169D01*
X144724D01*
Y132063D01*
X144500D01*
Y134299D01*
X144724D01*
Y134746D01*
X144947D01*
Y135193D01*
X145171D01*
Y135416D01*
X145394D01*
Y135640D01*
X146065D01*
Y135864D01*
X149642D01*
Y136087D01*
X149865D01*
Y136534D01*
X149642D01*
Y136758D01*
X150760D01*
Y136534D01*
D02*
G37*
G36*
X164621Y131169D02*
X160149D01*
Y130945D01*
X159926D01*
Y130722D01*
X159702D01*
Y129604D01*
X159926D01*
Y129157D01*
X160149D01*
Y128933D01*
X164621D01*
Y127145D01*
X155455D01*
Y127368D01*
X155231D01*
Y128933D01*
X157243D01*
Y128710D01*
X159031D01*
Y128933D01*
X158808D01*
Y129157D01*
X158584D01*
Y129380D01*
X158361D01*
Y129827D01*
X158137D01*
Y132063D01*
X158361D01*
Y132287D01*
X158584D01*
Y132510D01*
X158808D01*
Y132734D01*
X159255D01*
Y132957D01*
X164621D01*
Y131169D01*
D02*
G37*
G36*
X193058Y133726D02*
X193652D01*
Y133578D01*
X194099D01*
Y133429D01*
X194396D01*
Y133280D01*
X194694D01*
Y132983D01*
X194843D01*
Y132536D01*
X194991D01*
Y131941D01*
X195140D01*
Y130603D01*
X194991D01*
Y130008D01*
X194843D01*
Y129710D01*
X194694D01*
Y129412D01*
X194545D01*
Y129264D01*
X194396D01*
Y129115D01*
X194247D01*
Y128966D01*
X193950D01*
Y128817D01*
X193652D01*
Y128669D01*
X193058D01*
Y128520D01*
X179075D01*
Y128669D01*
X178926D01*
Y128966D01*
X178778D01*
Y129412D01*
X178629D01*
Y130156D01*
X178480D01*
Y131644D01*
X192016D01*
Y131792D01*
X192165D01*
Y132090D01*
X192314D01*
Y132983D01*
X192165D01*
Y133429D01*
X192016D01*
Y133875D01*
X193058D01*
Y133726D01*
D02*
G37*
G36*
X194545Y126289D02*
X194694D01*
Y125248D01*
X194843D01*
Y124653D01*
X194694D01*
Y123760D01*
X194545D01*
Y123462D01*
X183984D01*
Y123760D01*
X183835D01*
Y126289D01*
X183984D01*
Y126586D01*
X194545D01*
Y126289D01*
D02*
G37*
G36*
X180711Y126735D02*
X181009D01*
Y126586D01*
X181306D01*
Y126437D01*
X181455D01*
Y126289D01*
X181604D01*
Y126140D01*
X181753D01*
Y125991D01*
X181901D01*
Y125545D01*
X182050D01*
Y124355D01*
X181901D01*
Y123909D01*
X181753D01*
Y123760D01*
X181604D01*
Y123611D01*
X181455D01*
Y123462D01*
X181306D01*
Y123314D01*
X181009D01*
Y123165D01*
X180265D01*
Y123016D01*
X179819D01*
Y123165D01*
X179224D01*
Y123314D01*
X178926D01*
Y123462D01*
X178778D01*
Y123611D01*
X178629D01*
Y123760D01*
X178480D01*
Y124057D01*
X178331D01*
Y124504D01*
X178182D01*
Y125545D01*
X178331D01*
Y125842D01*
X178480D01*
Y126140D01*
X178629D01*
Y126289D01*
X178778D01*
Y126437D01*
X178926D01*
Y126586D01*
X179075D01*
Y126735D01*
X179521D01*
Y126884D01*
X180711D01*
Y126735D01*
D02*
G37*
G36*
X163056Y126027D02*
X163950D01*
Y125803D01*
X164397D01*
Y125580D01*
X164621D01*
Y124909D01*
X164844D01*
Y122003D01*
X164621D01*
Y121332D01*
X164397D01*
Y120885D01*
X164173D01*
Y120661D01*
X163950D01*
Y120438D01*
X163726D01*
Y120214D01*
X163503D01*
Y119991D01*
X163279D01*
Y119767D01*
X162832D01*
Y119544D01*
X162385D01*
Y119320D01*
X161491D01*
Y119097D01*
X159031D01*
Y119320D01*
X158137D01*
Y119544D01*
X157690D01*
Y119767D01*
X157243D01*
Y119991D01*
X156796D01*
Y120214D01*
X156572D01*
Y120438D01*
X156349D01*
Y120661D01*
X156125D01*
Y121108D01*
X155902D01*
Y121332D01*
X155678D01*
Y121779D01*
X155455D01*
Y122673D01*
X155231D01*
Y124686D01*
X155455D01*
Y125356D01*
X155678D01*
Y125803D01*
X156349D01*
Y126027D01*
X157243D01*
Y125356D01*
X157019D01*
Y124238D01*
X156796D01*
Y124015D01*
X157019D01*
Y122673D01*
X157243D01*
Y122226D01*
X157467D01*
Y122003D01*
X157690D01*
Y121779D01*
X157914D01*
Y121556D01*
X158361D01*
Y121332D01*
X158808D01*
Y121108D01*
X161491D01*
Y121332D01*
X161938D01*
Y121556D01*
X162385D01*
Y121779D01*
X162609D01*
Y122226D01*
X162832D01*
Y122450D01*
X163056D01*
Y123121D01*
X163279D01*
Y125133D01*
X163056D01*
Y125803D01*
X162832D01*
Y126251D01*
X163056D01*
Y126027D01*
D02*
G37*
G36*
X150983Y129157D02*
X151207D01*
Y127815D01*
X150983D01*
Y127592D01*
X143606D01*
Y127368D01*
X144724D01*
Y127145D01*
X145394D01*
Y126921D01*
X146289D01*
Y126698D01*
X146959D01*
Y126474D01*
X147853D01*
Y126251D01*
X148524D01*
Y126027D01*
X149195D01*
Y125803D01*
X149865D01*
Y125580D01*
X150760D01*
Y125356D01*
X151207D01*
Y123568D01*
X150760D01*
Y123344D01*
X150089D01*
Y123121D01*
X149418D01*
Y122897D01*
X148524D01*
Y122673D01*
X147853D01*
Y122450D01*
X147183D01*
Y122226D01*
X146512D01*
Y122003D01*
X145618D01*
Y121779D01*
X144947D01*
Y121556D01*
X143606D01*
Y121332D01*
X150983D01*
Y120885D01*
X151207D01*
Y119767D01*
X150983D01*
Y119544D01*
X142041D01*
Y122450D01*
X142711D01*
Y122673D01*
X143382D01*
Y122897D01*
X144053D01*
Y123121D01*
X144724D01*
Y123344D01*
X145394D01*
Y123568D01*
X146289D01*
Y123791D01*
X146959D01*
Y124015D01*
X147853D01*
Y124238D01*
X148971D01*
Y124462D01*
X149418D01*
Y124686D01*
X148301D01*
Y124909D01*
X147183D01*
Y125133D01*
X146289D01*
Y125356D01*
X145618D01*
Y125580D01*
X144947D01*
Y125803D01*
X144053D01*
Y126027D01*
X143382D01*
Y126251D01*
X142488D01*
Y126474D01*
X142041D01*
Y129380D01*
X150983D01*
Y129157D01*
D02*
G37*
G36*
X189041Y121826D02*
X189934D01*
Y121677D01*
X190231D01*
Y115132D01*
X190380D01*
Y114984D01*
X190529D01*
Y115132D01*
X191124D01*
Y115281D01*
X191421D01*
Y115430D01*
X191570D01*
Y115579D01*
X191719D01*
Y115727D01*
X191867D01*
Y115876D01*
X192016D01*
Y116025D01*
X192165D01*
Y116323D01*
X192314D01*
Y116769D01*
X192463D01*
Y117513D01*
X192611D01*
Y119446D01*
X192463D01*
Y120339D01*
X192314D01*
Y120785D01*
X192165D01*
Y121380D01*
X192016D01*
Y121826D01*
X192760D01*
Y121677D01*
X193206D01*
Y121529D01*
X193652D01*
Y121380D01*
X193950D01*
Y121231D01*
X194099D01*
Y121082D01*
X194396D01*
Y120785D01*
X194545D01*
Y120487D01*
X194694D01*
Y120041D01*
X194843D01*
Y119298D01*
X194991D01*
Y118405D01*
X195140D01*
Y116620D01*
X194991D01*
Y115727D01*
X194843D01*
Y115132D01*
X194694D01*
Y114835D01*
X194545D01*
Y114389D01*
X194396D01*
Y114240D01*
X194247D01*
Y113943D01*
X194099D01*
Y113645D01*
X193950D01*
Y113496D01*
X193801D01*
Y113347D01*
X193652D01*
Y113199D01*
X193504D01*
Y113050D01*
X193355D01*
Y112901D01*
X193058D01*
Y112752D01*
X192909D01*
Y112604D01*
X192760D01*
Y112455D01*
X192463D01*
Y112306D01*
X192016D01*
Y112157D01*
X191719D01*
Y112009D01*
X191124D01*
Y111860D01*
X190231D01*
Y111711D01*
X188446D01*
Y111860D01*
X187554D01*
Y112009D01*
X187108D01*
Y112157D01*
X186661D01*
Y112306D01*
X186364D01*
Y112455D01*
X186066D01*
Y112604D01*
X185769D01*
Y112752D01*
X185620D01*
Y112901D01*
X185322D01*
Y113050D01*
X185174D01*
Y113199D01*
X185025D01*
Y113347D01*
X184876D01*
Y113496D01*
X184728D01*
Y113645D01*
X184579D01*
Y113943D01*
X184430D01*
Y114091D01*
X184281D01*
Y114240D01*
X184133D01*
Y114538D01*
X183984D01*
Y114835D01*
X183835D01*
Y115281D01*
X183686D01*
Y115876D01*
X183537D01*
Y116769D01*
X183389D01*
Y117810D01*
X183537D01*
Y118851D01*
X183686D01*
Y119298D01*
X183835D01*
Y119744D01*
X183984D01*
Y119893D01*
X184133D01*
Y120190D01*
X184281D01*
Y120339D01*
X184430D01*
Y120487D01*
X184579D01*
Y120785D01*
X184728D01*
Y120934D01*
X185025D01*
Y121082D01*
X185174D01*
Y121231D01*
X185471D01*
Y121380D01*
X185769D01*
Y121529D01*
X186066D01*
Y121677D01*
X186512D01*
Y121826D01*
X187405D01*
Y121975D01*
X189041D01*
Y121826D01*
D02*
G37*
G36*
X157019Y111719D02*
X157690D01*
Y111495D01*
X158361D01*
Y111272D01*
X158808D01*
Y111048D01*
X159479D01*
Y110825D01*
X159926D01*
Y110601D01*
X160373D01*
Y110378D01*
X160597D01*
Y110154D01*
X161044D01*
Y109930D01*
X160820D01*
Y109483D01*
X160597D01*
Y109036D01*
X160373D01*
Y107918D01*
X159031D01*
Y107695D01*
X157690D01*
Y107471D01*
X156572D01*
Y107248D01*
X155678D01*
Y107024D01*
X154784D01*
Y106801D01*
X154113D01*
Y106577D01*
X153443D01*
Y106353D01*
X152995D01*
Y106130D01*
X152325D01*
Y105906D01*
X151877D01*
Y105683D01*
X151430D01*
Y105459D01*
X150983D01*
Y105236D01*
X150760D01*
Y105012D01*
X150313D01*
Y104788D01*
X149865D01*
Y104565D01*
X149642D01*
Y104341D01*
X149418D01*
Y104118D01*
X148971D01*
Y103894D01*
X148748D01*
Y103671D01*
X148524D01*
Y103447D01*
X148301D01*
Y103224D01*
X148077D01*
Y103000D01*
X147853D01*
Y102776D01*
X147406D01*
Y102553D01*
X147183D01*
Y102329D01*
X146959D01*
Y101882D01*
X146736D01*
Y101659D01*
X146512D01*
Y101435D01*
X146289D01*
Y100988D01*
X146065D01*
Y100764D01*
X145841D01*
Y100317D01*
X145618D01*
Y99647D01*
X145394D01*
Y98976D01*
X145171D01*
Y98082D01*
X144947D01*
Y97858D01*
X144724D01*
Y99199D01*
X144500D01*
Y103000D01*
X144724D01*
Y104788D01*
X144947D01*
Y105906D01*
X145171D01*
Y106801D01*
X145394D01*
Y109036D01*
X145171D01*
Y109483D01*
X144947D01*
Y110154D01*
X145171D01*
Y110378D01*
X145618D01*
Y110601D01*
X145841D01*
Y110825D01*
X146512D01*
Y111048D01*
X146959D01*
Y111272D01*
X147406D01*
Y111495D01*
X148077D01*
Y111719D01*
X148748D01*
Y111943D01*
X149418D01*
Y111495D01*
X149642D01*
Y110825D01*
X149865D01*
Y110601D01*
X150089D01*
Y110154D01*
X150313D01*
Y109930D01*
X150536D01*
Y109707D01*
X150983D01*
Y109483D01*
X151207D01*
Y109260D01*
X151877D01*
Y109036D01*
X154113D01*
Y109260D01*
X154560D01*
Y109483D01*
X155007D01*
Y109707D01*
X155231D01*
Y109930D01*
X155455D01*
Y110154D01*
X155678D01*
Y110378D01*
X155902D01*
Y110825D01*
X156125D01*
Y111272D01*
X156349D01*
Y111943D01*
X157019D01*
Y111719D01*
D02*
G37*
G36*
X144053Y103671D02*
X143829D01*
Y99423D01*
X144053D01*
Y97858D01*
X144276D01*
Y96964D01*
X144500D01*
Y96070D01*
X144724D01*
Y95399D01*
X144947D01*
Y94952D01*
X145171D01*
Y94505D01*
X145394D01*
Y94058D01*
X145618D01*
Y93610D01*
X145841D01*
Y93163D01*
X146065D01*
Y92716D01*
X146289D01*
Y92493D01*
X146512D01*
Y92045D01*
X146736D01*
Y91822D01*
X146959D01*
Y91598D01*
X147183D01*
Y91375D01*
X147406D01*
Y91151D01*
X147630D01*
Y90928D01*
X147853D01*
Y90704D01*
X148301D01*
Y90481D01*
X148524D01*
Y90257D01*
X148971D01*
Y90033D01*
X149418D01*
Y89586D01*
X149195D01*
Y89810D01*
X147853D01*
Y90033D01*
X146959D01*
Y90257D01*
X146289D01*
Y90481D01*
X145618D01*
Y90704D01*
X144947D01*
Y90928D01*
X144500D01*
Y91151D01*
X144053D01*
Y91375D01*
X143382D01*
Y91598D01*
X142935D01*
Y91822D01*
X142711D01*
Y92045D01*
X142264D01*
Y92269D01*
X141817D01*
Y92493D01*
X141370D01*
Y92716D01*
X140923D01*
Y92940D01*
X140699D01*
Y93163D01*
X140252D01*
Y93387D01*
X140029D01*
Y93610D01*
X139582D01*
Y93834D01*
X139358D01*
Y94281D01*
X139582D01*
Y94505D01*
X139805D01*
Y94728D01*
X140029D01*
Y94952D01*
X140252D01*
Y95175D01*
X140476D01*
Y95622D01*
X140699D01*
Y96293D01*
X140923D01*
Y97858D01*
X140699D01*
Y98529D01*
X140476D01*
Y98976D01*
X140252D01*
Y99199D01*
X140029D01*
Y99423D01*
X139805D01*
Y99647D01*
X139582D01*
Y99870D01*
X139358D01*
Y100094D01*
X138911D01*
Y100317D01*
X138464D01*
Y100541D01*
X138017D01*
Y101212D01*
X138240D01*
Y101882D01*
X138464D01*
Y102553D01*
X138687D01*
Y103000D01*
X138911D01*
Y103447D01*
X139135D01*
Y104118D01*
X139358D01*
Y104341D01*
X139582D01*
Y104788D01*
X139805D01*
Y105012D01*
X140252D01*
Y104788D01*
X140699D01*
Y104565D01*
X141370D01*
Y104341D01*
X142488D01*
Y104565D01*
X143159D01*
Y104788D01*
X143606D01*
Y105012D01*
X144053D01*
Y103671D01*
D02*
G37*
G36*
X194545Y109926D02*
X194694D01*
Y108885D01*
X194843D01*
Y107546D01*
X194694D01*
Y106505D01*
X194545D01*
Y106208D01*
X194396D01*
Y106059D01*
X194247D01*
Y105910D01*
X193950D01*
Y105761D01*
X193652D01*
Y105613D01*
X193355D01*
Y105464D01*
X193058D01*
Y105315D01*
X192909D01*
Y105166D01*
X192611D01*
Y105017D01*
X192314D01*
Y104869D01*
X192016D01*
Y104720D01*
X191719D01*
Y104571D01*
X191570D01*
Y104422D01*
X191272D01*
Y104274D01*
X190975D01*
Y104125D01*
X190677D01*
Y103976D01*
X190380D01*
Y103828D01*
X190083D01*
Y103679D01*
X189934D01*
Y103530D01*
X189636D01*
Y103381D01*
X189339D01*
Y103233D01*
X189041D01*
Y103084D01*
X188744D01*
Y102935D01*
X188595D01*
Y102786D01*
X188297D01*
Y102638D01*
X188000D01*
Y102489D01*
X187703D01*
Y102340D01*
X187405D01*
Y102191D01*
X187256D01*
Y102042D01*
X186959D01*
Y101894D01*
X186661D01*
Y101745D01*
X186364D01*
Y101596D01*
X186066D01*
Y101447D01*
X185769D01*
Y101299D01*
X185322D01*
Y101150D01*
X185025D01*
Y101001D01*
X184579D01*
Y100853D01*
X184133D01*
Y100704D01*
X183686D01*
Y100555D01*
X182942D01*
Y100406D01*
X182496D01*
Y100258D01*
X182645D01*
Y100109D01*
X194247D01*
Y100258D01*
X194396D01*
Y100109D01*
X194545D01*
Y99960D01*
X194694D01*
Y98919D01*
X194843D01*
Y98175D01*
X194694D01*
Y97431D01*
X194545D01*
Y97134D01*
X179224D01*
Y98324D01*
X179075D01*
Y100258D01*
X179224D01*
Y101299D01*
X179373D01*
Y101447D01*
X179521D01*
Y101596D01*
X179819D01*
Y101745D01*
X180116D01*
Y101894D01*
X180414D01*
Y102042D01*
X180711D01*
Y102191D01*
X180860D01*
Y102340D01*
X181158D01*
Y102489D01*
X181455D01*
Y102638D01*
X181753D01*
Y102786D01*
X182050D01*
Y102935D01*
X182348D01*
Y103084D01*
X182496D01*
Y103233D01*
X182794D01*
Y103381D01*
X183091D01*
Y103530D01*
X183389D01*
Y103679D01*
X183686D01*
Y103828D01*
X183835D01*
Y103976D01*
X184133D01*
Y104125D01*
X184430D01*
Y104274D01*
X184728D01*
Y104422D01*
X185025D01*
Y104571D01*
X185322D01*
Y104720D01*
X185471D01*
Y104869D01*
X185769D01*
Y105017D01*
X186066D01*
Y105166D01*
X186364D01*
Y105315D01*
X186661D01*
Y105464D01*
X186810D01*
Y105613D01*
X187256D01*
Y105761D01*
X187554D01*
Y105910D01*
X187851D01*
Y106059D01*
X188149D01*
Y106208D01*
X188595D01*
Y106356D01*
X189041D01*
Y106505D01*
X189488D01*
Y106654D01*
X189934D01*
Y106802D01*
X190529D01*
Y106951D01*
X190975D01*
Y107100D01*
X179373D01*
Y107397D01*
X179224D01*
Y108439D01*
X179075D01*
Y109034D01*
X179224D01*
Y109926D01*
X179373D01*
Y110224D01*
X194545D01*
Y109926D01*
D02*
G37*
G36*
X160373Y107024D02*
X160597D01*
Y106353D01*
X160820D01*
Y106130D01*
X161044D01*
Y105683D01*
X161267D01*
Y105459D01*
X161491D01*
Y105236D01*
X161714D01*
Y105012D01*
X162161D01*
Y104788D01*
X162609D01*
Y104565D01*
X163503D01*
Y104341D01*
X164173D01*
Y104565D01*
X165291D01*
Y104788D01*
X165738D01*
Y105012D01*
X165962D01*
Y104788D01*
X166185D01*
Y104565D01*
X166409D01*
Y104118D01*
X166633D01*
Y103671D01*
X166856D01*
Y103224D01*
X167080D01*
Y102553D01*
X167303D01*
Y101882D01*
X167527D01*
Y101212D01*
X167751D01*
Y100541D01*
X167527D01*
Y100317D01*
X166856D01*
Y100094D01*
X166409D01*
Y99870D01*
X166185D01*
Y99647D01*
X165962D01*
Y99423D01*
X165738D01*
Y99199D01*
X165515D01*
Y98976D01*
X165291D01*
Y98529D01*
X165068D01*
Y97858D01*
X164844D01*
Y96293D01*
X165068D01*
Y95622D01*
X165291D01*
Y95175D01*
X165515D01*
Y94952D01*
X165738D01*
Y94728D01*
X165962D01*
Y94505D01*
X166185D01*
Y94281D01*
X166409D01*
Y94058D01*
X166856D01*
Y93834D01*
X167303D01*
Y93610D01*
X167751D01*
Y92940D01*
X167527D01*
Y92045D01*
X167303D01*
Y91598D01*
X167080D01*
Y91151D01*
X166856D01*
Y90481D01*
X166633D01*
Y90704D01*
X166409D01*
Y91375D01*
X166185D01*
Y91822D01*
X165962D01*
Y92493D01*
X165738D01*
Y92940D01*
X165515D01*
Y93610D01*
X165291D01*
Y94058D01*
X165068D01*
Y94505D01*
X164844D01*
Y94952D01*
X164621D01*
Y95399D01*
X164397D01*
Y95846D01*
X164173D01*
Y96293D01*
X163950D01*
Y96740D01*
X163726D01*
Y96964D01*
X163503D01*
Y97411D01*
X163279D01*
Y97635D01*
X163056D01*
Y98082D01*
X162832D01*
Y98305D01*
X162609D01*
Y98752D01*
X162385D01*
Y98976D01*
X162161D01*
Y99199D01*
X161938D01*
Y99423D01*
X161714D01*
Y99870D01*
X161491D01*
Y100094D01*
X161267D01*
Y100317D01*
X161044D01*
Y100541D01*
X160820D01*
Y100764D01*
X160597D01*
Y100988D01*
X160373D01*
Y101212D01*
X160149D01*
Y101435D01*
X159926D01*
Y101659D01*
X159479D01*
Y101882D01*
X159255D01*
Y102106D01*
X159031D01*
Y102329D01*
X158584D01*
Y102553D01*
X158361D01*
Y102776D01*
X157914D01*
Y103000D01*
X157690D01*
Y103224D01*
X157243D01*
Y103447D01*
X156796D01*
Y103671D01*
X156349D01*
Y103894D01*
X155902D01*
Y104118D01*
X155231D01*
Y104341D01*
X154560D01*
Y104565D01*
X151207D01*
Y104788D01*
X151430D01*
Y105012D01*
X151877D01*
Y105236D01*
X152325D01*
Y105459D01*
X152995D01*
Y105683D01*
X153443D01*
Y105906D01*
X154113D01*
Y106130D01*
X154784D01*
Y106353D01*
X155678D01*
Y106577D01*
X156796D01*
Y106801D01*
X158361D01*
Y107024D01*
X160149D01*
Y107248D01*
X160373D01*
Y107024D01*
D02*
G37*
G36*
X159926Y100541D02*
X160149D01*
Y100317D01*
X160373D01*
Y100094D01*
X160597D01*
Y99870D01*
X160820D01*
Y99647D01*
X161044D01*
Y99423D01*
X161267D01*
Y98976D01*
X161491D01*
Y98752D01*
X161714D01*
Y98305D01*
X161938D01*
Y98082D01*
X162161D01*
Y97858D01*
X162385D01*
Y97411D01*
X162609D01*
Y97187D01*
X162832D01*
Y96740D01*
X163056D01*
Y96293D01*
X163279D01*
Y96070D01*
X163503D01*
Y95622D01*
X163726D01*
Y95175D01*
X163950D01*
Y94728D01*
X164173D01*
Y94058D01*
X164397D01*
Y93610D01*
X164621D01*
Y93163D01*
X164844D01*
Y92493D01*
X165068D01*
Y92045D01*
X165291D01*
Y91375D01*
X165515D01*
Y90928D01*
X165738D01*
Y90257D01*
X165962D01*
Y89586D01*
X166185D01*
Y89363D01*
X165962D01*
Y88916D01*
X165738D01*
Y89139D01*
X165291D01*
Y89363D01*
X164397D01*
Y89586D01*
X163279D01*
Y89363D01*
X162609D01*
Y89139D01*
X162161D01*
Y88916D01*
X161714D01*
Y88692D01*
X161491D01*
Y88468D01*
X161267D01*
Y88245D01*
X161044D01*
Y88021D01*
X160820D01*
Y87574D01*
X160597D01*
Y86904D01*
X160373D01*
Y85115D01*
X160597D01*
Y84444D01*
X160820D01*
Y83997D01*
X160597D01*
Y83774D01*
X160373D01*
Y83550D01*
X159926D01*
Y83327D01*
X159479D01*
Y83103D01*
X158808D01*
Y82879D01*
X158361D01*
Y82656D01*
X157690D01*
Y82432D01*
X157019D01*
Y82209D01*
X156349D01*
Y82656D01*
X156125D01*
Y83103D01*
X155902D01*
Y83550D01*
X155678D01*
Y83774D01*
X155455D01*
Y83997D01*
X155231D01*
Y84221D01*
X155007D01*
Y84444D01*
X154560D01*
Y84891D01*
X154784D01*
Y85115D01*
X155007D01*
Y85339D01*
X155231D01*
Y85562D01*
X155455D01*
Y86009D01*
X155678D01*
Y86233D01*
X155902D01*
Y86456D01*
X156125D01*
Y86680D01*
X156349D01*
Y86904D01*
X156572D01*
Y87127D01*
X156796D01*
Y87574D01*
X157019D01*
Y87798D01*
X157243D01*
Y88021D01*
X157467D01*
Y88468D01*
X157690D01*
Y88692D01*
X157914D01*
Y89139D01*
X158137D01*
Y89363D01*
X158361D01*
Y89810D01*
X158584D01*
Y90257D01*
X158808D01*
Y90704D01*
X159031D01*
Y91151D01*
X159255D01*
Y91598D01*
X159479D01*
Y92269D01*
X159702D01*
Y92940D01*
X159926D01*
Y93610D01*
X160149D01*
Y94505D01*
X160373D01*
Y96293D01*
X160597D01*
Y97635D01*
X160373D01*
Y98976D01*
X160149D01*
Y99647D01*
X159926D01*
Y100094D01*
X159702D01*
Y100541D01*
X159479D01*
Y100764D01*
X159926D01*
Y100541D01*
D02*
G37*
G36*
X138240Y93387D02*
X138687D01*
Y93163D01*
X138911D01*
Y92940D01*
X139358D01*
Y92716D01*
X139805D01*
Y92493D01*
X140029D01*
Y92269D01*
X140476D01*
Y92045D01*
X140699D01*
Y91822D01*
X141147D01*
Y91598D01*
X141594D01*
Y91375D01*
X142041D01*
Y91151D01*
X142488D01*
Y90928D01*
X142935D01*
Y90704D01*
X143382D01*
Y90481D01*
X143829D01*
Y90257D01*
X144500D01*
Y90033D01*
X145171D01*
Y89810D01*
X145841D01*
Y89586D01*
X146736D01*
Y89363D01*
X147630D01*
Y89139D01*
X148748D01*
Y88916D01*
X153219D01*
Y89139D01*
X154560D01*
Y89363D01*
X155231D01*
Y89586D01*
X155902D01*
Y89810D01*
X156349D01*
Y90033D01*
X156796D01*
Y90257D01*
X157019D01*
Y90481D01*
X157467D01*
Y90704D01*
X157690D01*
Y90928D01*
X157914D01*
Y91151D01*
X158137D01*
Y91375D01*
X158361D01*
Y90928D01*
X158137D01*
Y90481D01*
X157914D01*
Y90257D01*
X157690D01*
Y89810D01*
X157467D01*
Y89363D01*
X157243D01*
Y89139D01*
X157019D01*
Y88692D01*
X156796D01*
Y88468D01*
X156572D01*
Y88245D01*
X156349D01*
Y87798D01*
X156125D01*
Y87574D01*
X155902D01*
Y87351D01*
X155678D01*
Y87127D01*
X155455D01*
Y86904D01*
X155231D01*
Y86680D01*
X155007D01*
Y86233D01*
X154784D01*
Y86009D01*
X154560D01*
Y85786D01*
X154113D01*
Y85562D01*
X153890D01*
Y85339D01*
X153666D01*
Y85115D01*
X152101D01*
Y84891D01*
X151430D01*
Y84668D01*
X150983D01*
Y84444D01*
X150760D01*
Y84221D01*
X150536D01*
Y83997D01*
X150313D01*
Y83774D01*
X150089D01*
Y83550D01*
X149865D01*
Y83327D01*
X149642D01*
Y82879D01*
X149418D01*
Y82209D01*
X149195D01*
Y82432D01*
X148301D01*
Y82656D01*
X147630D01*
Y82879D01*
X147183D01*
Y83103D01*
X146512D01*
Y83327D01*
X146065D01*
Y83550D01*
X145618D01*
Y83774D01*
X145394D01*
Y83997D01*
X144947D01*
Y84221D01*
X145171D01*
Y84668D01*
X145394D01*
Y85786D01*
X145618D01*
Y86456D01*
X145394D01*
Y87351D01*
X145171D01*
Y87798D01*
X144947D01*
Y88245D01*
X144724D01*
Y88468D01*
X144500D01*
Y88692D01*
X144276D01*
Y88916D01*
X144053D01*
Y89139D01*
X143606D01*
Y89363D01*
X142935D01*
Y89586D01*
X140923D01*
Y89363D01*
X140252D01*
Y89139D01*
X139805D01*
Y89586D01*
X139582D01*
Y89810D01*
X139358D01*
Y90257D01*
X139135D01*
Y90704D01*
X138911D01*
Y91375D01*
X138687D01*
Y91822D01*
X138464D01*
Y92493D01*
X138240D01*
Y93387D01*
X138017D01*
Y93610D01*
X138240D01*
Y93387D01*
D02*
G37*
%LPC*%
G36*
X147406Y200250D02*
X146289D01*
Y200026D01*
X146065D01*
Y199802D01*
X145841D01*
Y198685D01*
X146065D01*
Y198238D01*
X146512D01*
Y198014D01*
X147183D01*
Y198238D01*
X147630D01*
Y198461D01*
X147853D01*
Y199802D01*
X147630D01*
Y200026D01*
X147406D01*
Y200250D01*
D02*
G37*
G36*
X152772Y200920D02*
X151877D01*
Y200697D01*
X151654D01*
Y200026D01*
X151430D01*
Y198014D01*
X151654D01*
Y197790D01*
X152772D01*
Y198014D01*
X152995D01*
Y198908D01*
X153219D01*
Y199802D01*
X152995D01*
Y200697D01*
X152772D01*
Y200920D01*
D02*
G37*
G36*
X187703Y193226D02*
X187405D01*
Y193078D01*
X186661D01*
Y192929D01*
X186364D01*
Y192780D01*
X186215D01*
Y192631D01*
X186066D01*
Y192334D01*
X185917D01*
Y191887D01*
X185769D01*
Y190698D01*
X185917D01*
Y190251D01*
X186066D01*
Y189954D01*
X186215D01*
Y189805D01*
X186364D01*
Y189656D01*
X186512D01*
Y189507D01*
X186661D01*
Y189359D01*
X186959D01*
Y189210D01*
X187405D01*
Y189061D01*
X188000D01*
Y193078D01*
X187703D01*
Y193226D01*
D02*
G37*
G36*
X149418Y176776D02*
X148524D01*
Y175881D01*
X148301D01*
Y175658D01*
X148524D01*
Y174987D01*
X148748D01*
Y174763D01*
X149642D01*
Y174987D01*
X149865D01*
Y176328D01*
X149642D01*
Y176552D01*
X149418D01*
Y176776D01*
D02*
G37*
G36*
X191272Y156485D02*
X186215D01*
Y156187D01*
X186066D01*
Y155444D01*
X185917D01*
Y154700D01*
X186066D01*
Y153956D01*
X186215D01*
Y153659D01*
X186364D01*
Y153361D01*
X186512D01*
Y153212D01*
X186661D01*
Y153064D01*
X186810D01*
Y152915D01*
X186959D01*
Y152766D01*
X187256D01*
Y152618D01*
X187554D01*
Y152469D01*
X187851D01*
Y152320D01*
X188595D01*
Y152171D01*
X190231D01*
Y152320D01*
X190826D01*
Y152469D01*
X191272D01*
Y152618D01*
X191570D01*
Y152766D01*
X191719D01*
Y152915D01*
X191867D01*
Y153064D01*
X192016D01*
Y153361D01*
X192165D01*
Y153659D01*
X192314D01*
Y155146D01*
X192165D01*
Y155593D01*
X192016D01*
Y155741D01*
X191867D01*
Y156039D01*
X191719D01*
Y156187D01*
X191421D01*
Y156336D01*
X191272D01*
Y156485D01*
D02*
G37*
G36*
X160820Y158220D02*
X159926D01*
Y157996D01*
X159702D01*
Y157773D01*
X159479D01*
Y156431D01*
X159702D01*
Y156208D01*
X159926D01*
Y155984D01*
X160149D01*
Y155761D01*
X160820D01*
Y158220D01*
D02*
G37*
G36*
X160597Y151513D02*
X160373D01*
Y151289D01*
X159702D01*
Y151066D01*
X159479D01*
Y150395D01*
X159255D01*
Y150172D01*
X159479D01*
Y149501D01*
X159702D01*
Y149277D01*
X161044D01*
Y149501D01*
X161267D01*
Y149724D01*
X161491D01*
Y150842D01*
X161267D01*
Y151066D01*
X161044D01*
Y151289D01*
X160597D01*
Y151513D01*
D02*
G37*
G36*
X165962Y152184D02*
X165515D01*
Y151960D01*
X165291D01*
Y151737D01*
X165068D01*
Y149501D01*
X164844D01*
Y149277D01*
X165068D01*
Y149054D01*
X165291D01*
Y148830D01*
X166185D01*
Y149054D01*
X166409D01*
Y149501D01*
X166633D01*
Y151513D01*
X166409D01*
Y151960D01*
X165962D01*
Y152184D01*
D02*
G37*
G36*
X147183Y147489D02*
X146289D01*
Y147265D01*
X146065D01*
Y147042D01*
X145841D01*
Y145924D01*
X146065D01*
Y145477D01*
X146512D01*
Y145253D01*
X146959D01*
Y145030D01*
X147183D01*
Y147489D01*
D02*
G37*
G36*
X162832Y137652D02*
X162161D01*
Y137429D01*
X161938D01*
Y136087D01*
X162161D01*
Y135640D01*
X162609D01*
Y135416D01*
X162832D01*
Y135640D01*
X163279D01*
Y136087D01*
X163503D01*
Y136981D01*
X163279D01*
Y137205D01*
X163056D01*
Y137429D01*
X162832D01*
Y137652D01*
D02*
G37*
G36*
X149642Y134075D02*
X148524D01*
Y133404D01*
X148301D01*
Y132957D01*
X148524D01*
Y132287D01*
X148971D01*
Y132063D01*
X149418D01*
Y132287D01*
X149865D01*
Y133628D01*
X149642D01*
Y134075D01*
D02*
G37*
G36*
X188000Y119000D02*
X186810D01*
Y118851D01*
X186512D01*
Y118702D01*
X186364D01*
Y118554D01*
X186215D01*
Y118405D01*
X186066D01*
Y118256D01*
X185917D01*
Y117810D01*
X185769D01*
Y116620D01*
X185917D01*
Y116174D01*
X186066D01*
Y115876D01*
X186215D01*
Y115727D01*
X186364D01*
Y115579D01*
X186512D01*
Y115430D01*
X186661D01*
Y115281D01*
X186959D01*
Y115132D01*
X187256D01*
Y114984D01*
X188000D01*
Y119000D01*
D02*
G37*
%LPD*%
D10*
X135591Y33000D02*
X135000Y33591D01*
X134409Y33000D01*
X135000Y32409D01*
X135591Y33000D01*
D11*
X20341Y113307D02*
X19901Y114069D01*
X19020D01*
X18580Y113307D01*
X19020Y112545D01*
X19901D01*
X20341Y113307D01*
X145850Y34000D02*
X145063D01*
X145850D01*
X204673Y311071D02*
X203886D01*
X204673D01*
X137181Y242598D02*
X136394D01*
X137181D01*
X186681Y241598D02*
X185894D01*
X186681D01*
D12*
X130339Y239802D02*
X129492Y239262D01*
X128697Y238649D01*
X127959Y237967D01*
X127284Y237223D01*
X126678Y236422D01*
X126145Y235571D01*
X125690Y234676D01*
X125316Y233744D01*
X125026Y232782D01*
X124822Y231798D01*
X124707Y230801D01*
X124680Y229796D01*
X124742Y228794D01*
X124893Y227801D01*
X125132Y226825D01*
X125456Y225874D01*
X125863Y224956D01*
X126349Y224078D01*
X126912Y223246D01*
X127546Y222467D01*
X128247Y221747D01*
X129009Y221092D01*
X129825Y220508D01*
X130691Y219998D01*
X131598Y219566D01*
X132540Y219217D01*
X133509Y218953D01*
X134497Y218776D01*
X135498Y218687D01*
X136502D01*
X137503Y218776D01*
X138491Y218953D01*
X139460Y219217D01*
X140402Y219566D01*
X141309Y219998D01*
X142175Y220508D01*
X142991Y221092D01*
X143753Y221747D01*
X144454Y222467D01*
X145088Y223246D01*
X145651Y224078D01*
X146137Y224956D01*
X146544Y225874D01*
X146868Y226825D01*
X147107Y227801D01*
X147258Y228794D01*
X147320Y229796D01*
X147293Y230801D01*
X147178Y231798D01*
X146974Y232782D01*
X146684Y233744D01*
X146310Y234676D01*
X145855Y235571D01*
X145322Y236422D01*
X144716Y237223D01*
X144041Y237967D01*
X143303Y238649D01*
X142508Y239262D01*
X141661Y239802D01*
X179839Y238802D02*
X178992Y238262D01*
X178197Y237649D01*
X177459Y236967D01*
X176784Y236223D01*
X176178Y235422D01*
X175645Y234571D01*
X175190Y233676D01*
X174816Y232744D01*
X174526Y231782D01*
X174322Y230798D01*
X174207Y229801D01*
X174180Y228796D01*
X174242Y227794D01*
X174393Y226801D01*
X174632Y225825D01*
X174956Y224874D01*
X175363Y223956D01*
X175849Y223078D01*
X176412Y222246D01*
X177046Y221467D01*
X177747Y220747D01*
X178509Y220092D01*
X179325Y219508D01*
X180191Y218998D01*
X181098Y218566D01*
X182040Y218217D01*
X183009Y217953D01*
X183997Y217776D01*
X184998Y217687D01*
X186002D01*
X187003Y217776D01*
X187991Y217953D01*
X188960Y218217D01*
X189902Y218566D01*
X190809Y218998D01*
X191675Y219508D01*
X192491Y220092D01*
X193253Y220747D01*
X193954Y221467D01*
X194588Y222246D01*
X195151Y223078D01*
X195637Y223956D01*
X196044Y224874D01*
X196368Y225825D01*
X196607Y226801D01*
X196758Y227794D01*
X196820Y228796D01*
X196793Y229801D01*
X196678Y230798D01*
X196474Y231782D01*
X196184Y232744D01*
X195810Y233676D01*
X195355Y234571D01*
X194822Y235422D01*
X194216Y236223D01*
X193541Y236967D01*
X192803Y237649D01*
X192008Y238262D01*
X191161Y238802D01*
X165705Y219280D02*
Y244280D01*
X156295Y219280D02*
Y244280D01*
Y219280D02*
X165705D01*
X156295Y244280D02*
X165705D01*
X161000D02*
Y249358D01*
Y214201D02*
Y219280D01*
X11000Y99000D02*
X131000D01*
X11000Y9000D02*
Y99000D01*
Y9000D02*
X131000D01*
Y99000D01*
X14539Y117638D02*
Y322362D01*
X94461D01*
Y117638D02*
Y322362D01*
X14539Y117638D02*
X94461D01*
X164205Y287280D02*
Y312280D01*
X154795Y287280D02*
Y312280D01*
Y287280D02*
X164205D01*
X154795Y312280D02*
X164205D01*
X159500D02*
Y317358D01*
Y282201D02*
Y287280D01*
X118705Y219220D02*
Y244220D01*
X109295Y219220D02*
Y244220D01*
Y219220D02*
X118705D01*
X109295Y244220D02*
X118705D01*
X114000D02*
Y249299D01*
Y214142D02*
Y219220D01*
X177276Y24712D02*
Y75893D01*
X203142Y31011D02*
Y34161D01*
X199993Y32586D02*
X203142Y31011D01*
X199993Y32586D02*
X203142Y34161D01*
X199206Y19495D02*
Y81109D01*
X183457D02*
X199206D01*
X183457Y19495D02*
X199206D01*
X149394Y29799D02*
X158606D01*
X149394D02*
Y68000D01*
X158606D01*
Y29799D02*
Y68000D01*
X179673Y307921D02*
Y323669D01*
X201327D01*
Y307921D02*
Y323669D01*
X176720Y303984D02*
Y307921D01*
X179673D01*
X201327D01*
X204279D01*
Y303984D02*
Y307921D01*
Y303984D02*
X205264D01*
X176720D02*
X204279D01*
X175736D02*
X176720D01*
X175736Y250835D02*
Y303984D01*
Y250835D02*
X205264D01*
Y303984D01*
X130409Y239843D02*
X141591D01*
X179909Y238843D02*
X191091D01*
X146500Y283426D02*
Y319800D01*
X131000D02*
X146500D01*
X131000Y283426D02*
X146500D01*
X131000D02*
Y319800D01*
D13*
X8414Y121097D02*
Y117947D01*
X10777D01*
Y119522D01*
Y117947D01*
X13140D01*
X9202Y125822D02*
X8414Y125035D01*
Y123460D01*
X9202Y122672D01*
X9990D01*
X10777Y123460D01*
Y125035D01*
X11565Y125822D01*
X12352D01*
X13140Y125035D01*
Y123460D01*
X12352Y122672D01*
X8414Y127398D02*
X13140D01*
Y129760D01*
X12352Y130548D01*
X9202D01*
X8414Y129760D01*
Y127398D01*
X13140Y132123D02*
Y133698D01*
Y132911D01*
X8414D01*
X9202Y132123D01*
X96830Y121025D02*
Y117872D01*
X99195D01*
Y119448D01*
Y117872D01*
X101559D01*
X97618Y125753D02*
X96830Y124965D01*
Y123389D01*
X97618Y122601D01*
X100771D01*
X101559Y123389D01*
Y124965D01*
X100771Y125753D01*
X97618Y130482D02*
X96830Y129694D01*
Y128118D01*
X97618Y127330D01*
X98406D01*
X99195Y128118D01*
Y129694D01*
X99983Y130482D01*
X100771D01*
X101559Y129694D01*
Y128118D01*
X100771Y127330D01*
X9200Y310552D02*
X8412Y311340D01*
Y312915D01*
X9200Y313702D01*
X9987D01*
X10775Y312915D01*
Y312127D01*
Y312915D01*
X11563Y313702D01*
X12350D01*
X13138Y312915D01*
Y311340D01*
X12350Y310552D01*
X8412Y315278D02*
X11563D01*
X13138Y316853D01*
X11563Y318428D01*
X8412D01*
X9200Y320003D02*
X8412Y320791D01*
Y322366D01*
X9200Y323154D01*
X9987D01*
X10775Y322366D01*
Y321578D01*
Y322366D01*
X11563Y323154D01*
X12350D01*
X13138Y322366D01*
Y320791D01*
X12350Y320003D01*
X96798Y315695D02*
Y312545D01*
X99160D01*
X98373Y314120D01*
Y314908D01*
X99160Y315695D01*
X100735D01*
X101523Y314908D01*
Y313332D01*
X100735Y312545D01*
X96798Y317270D02*
X99948D01*
X101523Y318845D01*
X99948Y320420D01*
X96798D01*
M02*
