G04*
G04 #@! TF.GenerationSoftware,Altium Limited,Altium Designer,22.8.2 (66)*
G04*
G04 Layer_Color=16711935*
%FSLAX25Y25*%
%MOIN*%
G70*
G04*
G04 #@! TF.SameCoordinates,4CFF4697-AE4C-4395-87EC-722ADA673B8C*
G04*
G04*
G04 #@! TF.FilePolarity,Positive*
G04*
G01*
G75*
%ADD11C,0.00787*%
%ADD12C,0.00500*%
D11*
X145850Y34000D02*
X145063D01*
X145850D01*
X137181Y242598D02*
X136394D01*
X137181D01*
X186681Y241598D02*
X185894D01*
X186681D01*
D12*
X130339Y239802D02*
X129492Y239262D01*
X128697Y238649D01*
X127959Y237967D01*
X127284Y237223D01*
X126678Y236422D01*
X126145Y235571D01*
X125690Y234676D01*
X125316Y233744D01*
X125026Y232782D01*
X124822Y231798D01*
X124707Y230801D01*
X124680Y229796D01*
X124742Y228794D01*
X124893Y227801D01*
X125132Y226825D01*
X125456Y225874D01*
X125863Y224956D01*
X126349Y224078D01*
X126912Y223246D01*
X127546Y222467D01*
X128247Y221747D01*
X129009Y221092D01*
X129825Y220508D01*
X130691Y219998D01*
X131598Y219566D01*
X132540Y219217D01*
X133509Y218953D01*
X134497Y218776D01*
X135498Y218687D01*
X136502D01*
X137503Y218776D01*
X138491Y218953D01*
X139460Y219217D01*
X140402Y219566D01*
X141309Y219998D01*
X142175Y220508D01*
X142991Y221092D01*
X143753Y221747D01*
X144454Y222467D01*
X145088Y223246D01*
X145651Y224078D01*
X146137Y224956D01*
X146544Y225874D01*
X146868Y226825D01*
X147107Y227801D01*
X147258Y228794D01*
X147320Y229796D01*
X147293Y230801D01*
X147178Y231798D01*
X146974Y232782D01*
X146684Y233744D01*
X146310Y234676D01*
X145855Y235571D01*
X145322Y236422D01*
X144716Y237223D01*
X144041Y237967D01*
X143303Y238649D01*
X142508Y239262D01*
X141661Y239802D01*
X179839Y238802D02*
X178992Y238262D01*
X178197Y237649D01*
X177459Y236967D01*
X176784Y236223D01*
X176178Y235422D01*
X175645Y234571D01*
X175190Y233676D01*
X174816Y232744D01*
X174526Y231782D01*
X174322Y230798D01*
X174207Y229801D01*
X174180Y228796D01*
X174242Y227794D01*
X174393Y226801D01*
X174632Y225825D01*
X174956Y224874D01*
X175363Y223956D01*
X175849Y223078D01*
X176412Y222246D01*
X177046Y221467D01*
X177747Y220747D01*
X178509Y220092D01*
X179325Y219508D01*
X180191Y218998D01*
X181098Y218566D01*
X182040Y218217D01*
X183009Y217953D01*
X183997Y217776D01*
X184998Y217687D01*
X186002D01*
X187003Y217776D01*
X187991Y217953D01*
X188960Y218217D01*
X189902Y218566D01*
X190809Y218998D01*
X191675Y219508D01*
X192491Y220092D01*
X193253Y220747D01*
X193954Y221467D01*
X194588Y222246D01*
X195151Y223078D01*
X195637Y223956D01*
X196044Y224874D01*
X196368Y225825D01*
X196607Y226801D01*
X196758Y227794D01*
X196820Y228796D01*
X196793Y229801D01*
X196678Y230798D01*
X196474Y231782D01*
X196184Y232744D01*
X195810Y233676D01*
X195355Y234571D01*
X194822Y235422D01*
X194216Y236223D01*
X193541Y236967D01*
X192803Y237649D01*
X192008Y238262D01*
X191161Y238802D01*
X165705Y219280D02*
Y244280D01*
X156295Y219280D02*
X165705D01*
X156295Y244280D02*
X165705D01*
X156295Y219280D02*
Y244280D01*
X161000D02*
Y253059D01*
Y210500D02*
Y219280D01*
X131000Y9000D02*
Y99000D01*
X11000D02*
X131000D01*
X11000Y9000D02*
Y99000D01*
Y9000D02*
X131000D01*
X14539Y117638D02*
Y322362D01*
X94461D01*
Y117638D02*
Y322362D01*
X14539Y117638D02*
X94461D01*
X164205Y287280D02*
Y312280D01*
X154795Y287280D02*
X164205D01*
X154795Y312280D02*
X164205D01*
X154795Y287280D02*
Y312280D01*
X159500D02*
Y321059D01*
Y278500D02*
Y287280D01*
X118705Y219220D02*
Y244220D01*
X109295Y219220D02*
X118705D01*
X109295Y244220D02*
X118705D01*
X109295Y219220D02*
Y244220D01*
X114000D02*
Y253000D01*
Y210441D02*
Y219220D01*
X199206Y19495D02*
Y81109D01*
X177276Y19495D02*
Y81109D01*
Y19495D02*
X199206D01*
X177276Y81109D02*
X199206D01*
X203142Y31011D02*
Y34161D01*
X199993Y32586D02*
X203142Y31011D01*
X199993Y32586D02*
X203142Y34161D01*
X149394Y29799D02*
X158606D01*
X149394D02*
Y68000D01*
X158606D01*
Y29799D02*
Y68000D01*
X179673Y308118D02*
Y323669D01*
X201327D01*
Y307921D02*
Y323669D01*
X176720Y303984D02*
Y307921D01*
X201327D01*
X204279D01*
Y303984D02*
Y307921D01*
Y303984D02*
X205264D01*
X176720D02*
X204279D01*
X175736D02*
X176720D01*
X175736Y250835D02*
Y303984D01*
Y250835D02*
X205264D01*
Y303984D01*
X130409Y239843D02*
X141591D01*
X179909Y238843D02*
X191091D01*
X146500Y283426D02*
Y319800D01*
X131000D02*
X146500D01*
X131000Y283426D02*
X146500D01*
X131000D02*
Y319800D01*
M02*
