G04*
G04 #@! TF.GenerationSoftware,Altium Limited,Altium Designer,22.8.2 (66)*
G04*
G04 Layer_Color=32896*
%FSLAX25Y25*%
%MOIN*%
G70*
G04*
G04 #@! TF.SameCoordinates,4CFF4697-AE4C-4395-87EC-722ADA673B8C*
G04*
G04*
G04 #@! TF.FilePolarity,Positive*
G04*
G01*
G75*
%ADD34C,0.00197*%
%ADD35C,0.00600*%
D34*
X173500Y106500D02*
X201000D01*
X173500Y167000D02*
X201000D01*
Y106500D02*
Y167000D01*
X173500Y106500D02*
Y167000D01*
D35*
X181824Y158900D02*
X184823D01*
Y157401D01*
X184323Y156901D01*
X182324D01*
X181824Y157401D01*
Y158900D01*
X184823Y154401D02*
Y155401D01*
X184323Y155901D01*
X183323D01*
X182824Y155401D01*
Y154401D01*
X183323Y153902D01*
X183823D01*
Y155901D01*
X184823Y152902D02*
Y151402D01*
X184323Y150903D01*
X183823Y151402D01*
Y152402D01*
X183323Y152902D01*
X182824Y152402D01*
Y150903D01*
X184823Y149903D02*
Y148903D01*
Y149403D01*
X182824D01*
Y149903D01*
X185823Y146404D02*
Y145904D01*
X185323Y145404D01*
X182824D01*
Y146904D01*
X183323Y147404D01*
X184323D01*
X184823Y146904D01*
Y145404D01*
Y144405D02*
X182824D01*
Y142905D01*
X183323Y142405D01*
X184823D01*
Y139906D02*
Y140906D01*
X184323Y141406D01*
X183323D01*
X182824Y140906D01*
Y139906D01*
X183323Y139406D01*
X183823D01*
Y141406D01*
X181824Y136407D02*
X184823D01*
Y137907D01*
X184323Y138407D01*
X183323D01*
X182824Y137907D01*
Y136407D01*
X181824Y132409D02*
X184823D01*
Y130909D01*
X184323Y130409D01*
X183823D01*
X183323Y130909D01*
Y132409D01*
Y130909D01*
X182824Y130409D01*
X182324D01*
X181824Y130909D01*
Y132409D01*
X182824Y129410D02*
X184323D01*
X184823Y128910D01*
Y127410D01*
X185323D01*
X185823Y127910D01*
Y128410D01*
X184823Y127410D02*
X182824D01*
Y126410D02*
Y125911D01*
X183323D01*
Y126410D01*
X182824D01*
X184323D02*
Y125911D01*
X184823D01*
Y126410D01*
X184323D01*
X187862Y158900D02*
X190362D01*
X190861Y158400D01*
Y157401D01*
X190362Y156901D01*
X187862D01*
Y155901D02*
X190861D01*
Y154401D01*
X190362Y153902D01*
X189862D01*
X189362Y154401D01*
Y155901D01*
Y154401D01*
X188862Y153902D01*
X188362D01*
X187862Y154401D01*
Y155901D01*
X188362Y150903D02*
X187862Y151402D01*
Y152402D01*
X188362Y152902D01*
X190362D01*
X190861Y152402D01*
Y151402D01*
X190362Y150903D01*
X188362Y144904D02*
X187862Y145404D01*
Y146404D01*
X188362Y146904D01*
X190362D01*
X190861Y146404D01*
Y145404D01*
X190362Y144904D01*
X188362Y141905D02*
X187862Y142405D01*
Y143405D01*
X188362Y143905D01*
X190362D01*
X190861Y143405D01*
Y142405D01*
X190362Y141905D01*
X189362D01*
Y142905D01*
Y140906D02*
Y138907D01*
X187862Y135907D02*
X188362Y136907D01*
X189362Y137907D01*
X190362D01*
X190861Y137407D01*
Y136407D01*
X190362Y135907D01*
X189862D01*
X189362Y136407D01*
Y137907D01*
X187862Y132908D02*
Y134908D01*
X189362D01*
X188862Y133908D01*
Y133408D01*
X189362Y132908D01*
X190362D01*
X190861Y133408D01*
Y134408D01*
X190362Y134908D01*
X192901Y156901D02*
Y157900D01*
Y157401D01*
X195401D01*
X195900Y157900D01*
Y158400D01*
X195401Y158900D01*
X193901Y155401D02*
Y154401D01*
X194401Y153902D01*
X195900D01*
Y155401D01*
X195401Y155901D01*
X194901Y155401D01*
Y153902D01*
X195900Y152902D02*
X193901D01*
Y151402D01*
X194401Y150903D01*
X195900D01*
X193901Y149903D02*
X195401D01*
X195900Y149403D01*
Y147904D01*
X193901D01*
Y146404D02*
Y145404D01*
X194401Y144904D01*
X195900D01*
Y146404D01*
X195401Y146904D01*
X194901Y146404D01*
Y144904D01*
X193901Y143905D02*
X195900D01*
X194901D01*
X194401Y143405D01*
X193901Y142905D01*
Y142405D01*
Y140906D02*
X195401D01*
X195900Y140406D01*
Y138907D01*
X196400D01*
X196900Y139406D01*
Y139906D01*
X195900Y138907D02*
X193901D01*
X193401Y134908D02*
X192901Y134408D01*
Y133408D01*
X193401Y132908D01*
X193901D01*
X194401Y133408D01*
Y133908D01*
Y133408D01*
X194901Y132908D01*
X195401D01*
X195900Y133408D01*
Y134408D01*
X195401Y134908D01*
X193401Y131909D02*
X192901Y131409D01*
Y130409D01*
X193401Y129909D01*
X195401D01*
X195900Y130409D01*
Y131409D01*
X195401Y131909D01*
X193401D01*
X196400Y128410D02*
X195900Y127910D01*
X195401D01*
Y128410D01*
X195900D01*
Y127910D01*
X196400Y128410D01*
X196900Y128910D01*
X195900Y120912D02*
Y122912D01*
X193901Y120912D01*
X193401D01*
X192901Y121412D01*
Y122412D01*
X193401Y122912D01*
Y119913D02*
X192901Y119413D01*
Y118413D01*
X193401Y117913D01*
X195401D01*
X195900Y118413D01*
Y119413D01*
X195401Y119913D01*
X193401D01*
X195900Y114914D02*
Y116914D01*
X193901Y114914D01*
X193401D01*
X192901Y115414D01*
Y116414D01*
X193401Y116914D01*
Y113915D02*
X192901Y113415D01*
Y112415D01*
X193401Y111915D01*
X193901D01*
X194401Y112415D01*
Y112915D01*
Y112415D01*
X194901Y111915D01*
X195401D01*
X195900Y112415D01*
Y113415D01*
X195401Y113915D01*
M02*
