G04*
G04 #@! TF.GenerationSoftware,Altium Limited,Altium Designer,22.8.2 (66)*
G04*
G04 Layer_Color=8388736*
%FSLAX25Y25*%
%MOIN*%
G70*
G04*
G04 #@! TF.SameCoordinates,4CFF4697-AE4C-4395-87EC-722ADA673B8C*
G04*
G04*
G04 #@! TF.FilePolarity,Negative*
G04*
G01*
G75*
%ADD14C,0.02800*%
%ADD15C,0.08200*%
%ADD16R,0.08200X0.08200*%
%ADD17R,0.06584X0.06584*%
%ADD18C,0.06584*%
%ADD19C,0.05600*%
%ADD20R,0.06300X0.06300*%
%ADD21C,0.06300*%
%ADD22O,0.14973X0.07887*%
%ADD23R,0.08200X0.08200*%
D14*
X180684Y79830D02*
X180357Y80730D01*
X179527Y81209D01*
X178584Y81042D01*
X177969Y80309D01*
Y79351D01*
X178584Y78618D01*
X179527Y78451D01*
X180357Y78930D01*
X180684Y79830D01*
D15*
X161000Y253059D02*
D03*
Y210500D02*
D03*
X16000Y74000D02*
D03*
Y64000D02*
D03*
Y54000D02*
D03*
Y44000D02*
D03*
Y34000D02*
D03*
X126000D02*
D03*
Y44000D02*
D03*
Y54000D02*
D03*
Y64000D02*
D03*
Y74000D02*
D03*
X19500Y215000D02*
D03*
Y225000D02*
D03*
Y205000D02*
D03*
Y195000D02*
D03*
Y185000D02*
D03*
Y175000D02*
D03*
Y165000D02*
D03*
Y155000D02*
D03*
Y145000D02*
D03*
Y135000D02*
D03*
Y235000D02*
D03*
Y245000D02*
D03*
Y255000D02*
D03*
Y265000D02*
D03*
Y275000D02*
D03*
Y285000D02*
D03*
Y295000D02*
D03*
Y305000D02*
D03*
Y315000D02*
D03*
X89500Y215000D02*
D03*
Y225000D02*
D03*
Y205000D02*
D03*
Y195000D02*
D03*
Y185000D02*
D03*
Y175000D02*
D03*
Y165000D02*
D03*
Y155000D02*
D03*
Y145000D02*
D03*
Y135000D02*
D03*
Y235000D02*
D03*
Y245000D02*
D03*
Y255000D02*
D03*
Y265000D02*
D03*
Y275000D02*
D03*
Y285000D02*
D03*
Y295000D02*
D03*
Y305000D02*
D03*
Y315000D02*
D03*
X159500Y321059D02*
D03*
Y278500D02*
D03*
X114000Y253000D02*
D03*
Y210441D02*
D03*
X136000Y225000D02*
D03*
X185500Y224000D02*
D03*
X139500Y311000D02*
D03*
Y291300D02*
D03*
D16*
X19500Y125000D02*
D03*
X89500D02*
D03*
D17*
X187001Y32586D02*
D03*
D18*
Y44397D02*
D03*
Y56208D02*
D03*
Y68019D02*
D03*
D19*
X179284Y20775D02*
D03*
Y79830D02*
D03*
D20*
X154000Y34000D02*
D03*
D21*
Y44000D02*
D03*
Y54000D02*
D03*
Y64000D02*
D03*
D22*
X190500Y255559D02*
D03*
Y278000D02*
D03*
Y299260D02*
D03*
D23*
X136000Y235000D02*
D03*
X185500Y234000D02*
D03*
M02*
