G04*
G04 #@! TF.GenerationSoftware,Altium Limited,Altium Designer,22.8.2 (66)*
G04*
G04 Layer_Physical_Order=2*
G04 Layer_Color=16711680*
%FSLAX25Y25*%
%MOIN*%
G70*
G04*
G04 #@! TF.SameCoordinates,4CFF4697-AE4C-4395-87EC-722ADA673B8C*
G04*
G04*
G04 #@! TF.FilePolarity,Positive*
G04*
G01*
G75*
%ADD25C,0.07400*%
%ADD26R,0.07400X0.07400*%
%ADD27R,0.05984X0.05984*%
%ADD28C,0.05984*%
%ADD29C,0.05000*%
%ADD30R,0.05500X0.05500*%
%ADD31C,0.05500*%
%ADD32O,0.14173X0.07087*%
%ADD33R,0.07400X0.07400*%
G36*
X214197Y803D02*
X803D01*
Y335197D01*
X214197D01*
Y803D01*
D02*
G37*
%LPC*%
G36*
X160092Y325559D02*
X158908D01*
X157763Y325252D01*
X156737Y324660D01*
X155899Y323822D01*
X155307Y322796D01*
X155000Y321652D01*
Y320467D01*
X155307Y319322D01*
X155899Y318296D01*
X156737Y317458D01*
X157763Y316866D01*
X158908Y316559D01*
X160092D01*
X161237Y316866D01*
X162263Y317458D01*
X163101Y318296D01*
X163693Y319322D01*
X164000Y320467D01*
Y321652D01*
X163693Y322796D01*
X163101Y323822D01*
X162263Y324660D01*
X161237Y325252D01*
X160092Y325559D01*
D02*
G37*
G36*
X20500Y319598D02*
Y316000D01*
X24098D01*
X23880Y316814D01*
X23261Y317886D01*
X22386Y318761D01*
X21314Y319380D01*
X20500Y319598D01*
D02*
G37*
G36*
X18500D02*
X17686Y319380D01*
X16614Y318761D01*
X15739Y317886D01*
X15120Y316814D01*
X14902Y316000D01*
X18500D01*
Y319598D01*
D02*
G37*
G36*
X140500Y315598D02*
Y312000D01*
X144098D01*
X143880Y312814D01*
X143261Y313886D01*
X142386Y314761D01*
X141314Y315380D01*
X140500Y315598D01*
D02*
G37*
G36*
X138500D02*
X137686Y315380D01*
X136614Y314761D01*
X135739Y313886D01*
X135120Y312814D01*
X134902Y312000D01*
X138500D01*
Y315598D01*
D02*
G37*
G36*
X24098Y314000D02*
X20500D01*
Y310402D01*
X21314Y310620D01*
X22386Y311239D01*
X23261Y312114D01*
X23880Y313186D01*
X24098Y314000D01*
D02*
G37*
G36*
X18500D02*
X14902D01*
X15120Y313186D01*
X15739Y312114D01*
X16614Y311239D01*
X17686Y310620D01*
X18500Y310402D01*
Y314000D01*
D02*
G37*
G36*
X144098Y310000D02*
X140500D01*
Y306402D01*
X141314Y306620D01*
X142386Y307239D01*
X143261Y308114D01*
X143880Y309186D01*
X144098Y310000D01*
D02*
G37*
G36*
X138500D02*
X134902D01*
X135120Y309186D01*
X135739Y308114D01*
X136614Y307239D01*
X137686Y306620D01*
X138500Y306402D01*
Y310000D01*
D02*
G37*
G36*
X95500Y322316D02*
X82000D01*
X81688Y322254D01*
X81423Y322077D01*
X81423Y322077D01*
X47923Y288577D01*
X47746Y288312D01*
X47684Y288000D01*
X47684Y288000D01*
X47684Y116838D01*
X22662Y91816D01*
X11500D01*
X11500Y91816D01*
X11188Y91754D01*
X10923Y91577D01*
X10923Y91577D01*
X4423Y85077D01*
X4246Y84812D01*
X4184Y84500D01*
X4184Y84500D01*
Y44000D01*
X4246Y43688D01*
X4423Y43423D01*
X4423Y43423D01*
X9923Y37923D01*
X10188Y37746D01*
X10500Y37684D01*
X10500Y37684D01*
X12384D01*
X12576Y37222D01*
X12239Y36886D01*
X11620Y35814D01*
X11402Y35000D01*
X16000D01*
X20598D01*
X20380Y35814D01*
X19761Y36886D01*
X19424Y37222D01*
X19616Y37684D01*
X21500D01*
X21812Y37746D01*
X22077Y37923D01*
X22254Y38188D01*
X22316Y38500D01*
Y49500D01*
X22254Y49812D01*
X22077Y50077D01*
X21812Y50254D01*
X21500Y50316D01*
X19387D01*
X19180Y50816D01*
X19601Y51237D01*
X20193Y52263D01*
X20500Y53408D01*
Y54592D01*
X20193Y55737D01*
X19601Y56763D01*
X18763Y57601D01*
X17737Y58193D01*
X16592Y58500D01*
X15408D01*
X14263Y58193D01*
X13237Y57601D01*
X12399Y56763D01*
X11807Y55737D01*
X11500Y54592D01*
Y53408D01*
X11700Y52661D01*
X11252Y52402D01*
X9816Y53838D01*
Y79662D01*
X14338Y84184D01*
X27500D01*
X27812Y84246D01*
X28077Y84423D01*
X28077Y84423D01*
X57077Y113423D01*
X57254Y113688D01*
X57316Y114000D01*
X57316Y114000D01*
X57316Y280162D01*
X85651Y308498D01*
X85891Y308462D01*
X86067Y307931D01*
X85899Y307763D01*
X85307Y306737D01*
X85000Y305592D01*
Y304408D01*
X85307Y303263D01*
X85899Y302237D01*
X86737Y301399D01*
X87763Y300807D01*
X88908Y300500D01*
X90092D01*
X91237Y300807D01*
X92263Y301399D01*
X93101Y302237D01*
X93693Y303263D01*
X94000Y304408D01*
Y305592D01*
X93693Y306737D01*
X93101Y307763D01*
X92680Y308184D01*
X92887Y308684D01*
X95500D01*
X95812Y308746D01*
X96077Y308923D01*
X96254Y309188D01*
X96316Y309500D01*
Y321500D01*
X96254Y321812D01*
X96077Y322077D01*
X95812Y322254D01*
X95500Y322316D01*
D02*
G37*
G36*
X20092Y309500D02*
X18908D01*
X17763Y309193D01*
X16737Y308601D01*
X15899Y307763D01*
X15307Y306737D01*
X15000Y305592D01*
Y304408D01*
X15307Y303263D01*
X15899Y302237D01*
X16737Y301399D01*
X17763Y300807D01*
X18908Y300500D01*
X20092D01*
X21237Y300807D01*
X22263Y301399D01*
X23101Y302237D01*
X23693Y303263D01*
X24000Y304408D01*
Y305592D01*
X23693Y306737D01*
X23101Y307763D01*
X22263Y308601D01*
X21237Y309193D01*
X20092Y309500D01*
D02*
G37*
G36*
X194043Y303842D02*
X191500D01*
Y300260D01*
X198494D01*
X198470Y300446D01*
X198012Y301551D01*
X197284Y302500D01*
X196335Y303228D01*
X195229Y303686D01*
X194043Y303842D01*
D02*
G37*
G36*
X189500D02*
X186957D01*
X185771Y303686D01*
X184665Y303228D01*
X183716Y302500D01*
X182988Y301551D01*
X182530Y300446D01*
X182506Y300260D01*
X189500D01*
Y303842D01*
D02*
G37*
G36*
X90500Y299598D02*
Y296000D01*
X94098D01*
X93880Y296814D01*
X93261Y297886D01*
X92386Y298761D01*
X91314Y299380D01*
X90500Y299598D01*
D02*
G37*
G36*
X88500D02*
X87686Y299380D01*
X86614Y298761D01*
X85739Y297886D01*
X85120Y296814D01*
X84902Y296000D01*
X88500D01*
Y299598D01*
D02*
G37*
G36*
X198494Y298260D02*
X191500D01*
Y294677D01*
X194043D01*
X195229Y294833D01*
X196335Y295291D01*
X197284Y296020D01*
X198012Y296969D01*
X198470Y298074D01*
X198494Y298260D01*
D02*
G37*
G36*
X189500D02*
X182506D01*
X182530Y298074D01*
X182988Y296969D01*
X183716Y296020D01*
X184665Y295291D01*
X185771Y294833D01*
X186957Y294677D01*
X189500D01*
Y298260D01*
D02*
G37*
G36*
X20092Y299500D02*
X18908D01*
X17763Y299193D01*
X16737Y298601D01*
X15899Y297763D01*
X15307Y296737D01*
X15000Y295592D01*
Y294408D01*
X15307Y293263D01*
X15899Y292237D01*
X16737Y291399D01*
X17763Y290807D01*
X18908Y290500D01*
X20092D01*
X21237Y290807D01*
X22263Y291399D01*
X23101Y292237D01*
X23693Y293263D01*
X24000Y294408D01*
Y295592D01*
X23693Y296737D01*
X23101Y297763D01*
X22263Y298601D01*
X21237Y299193D01*
X20092Y299500D01*
D02*
G37*
G36*
X94098Y294000D02*
X90500D01*
Y290402D01*
X91314Y290620D01*
X92386Y291239D01*
X93261Y292114D01*
X93880Y293186D01*
X94098Y294000D01*
D02*
G37*
G36*
X88500D02*
X84902D01*
X85120Y293186D01*
X85739Y292114D01*
X86614Y291239D01*
X87686Y290620D01*
X88500Y290402D01*
Y294000D01*
D02*
G37*
G36*
X140092Y295800D02*
X138908D01*
X137763Y295493D01*
X136737Y294901D01*
X135899Y294063D01*
X135307Y293037D01*
X135000Y291892D01*
Y290708D01*
X135307Y289563D01*
X135899Y288537D01*
X136737Y287699D01*
X137763Y287107D01*
X138908Y286800D01*
X140092D01*
X141237Y287107D01*
X142263Y287699D01*
X143101Y288537D01*
X143693Y289563D01*
X144000Y290708D01*
Y291892D01*
X143693Y293037D01*
X143101Y294063D01*
X142263Y294901D01*
X141237Y295493D01*
X140092Y295800D01*
D02*
G37*
G36*
X90092Y289500D02*
X88908D01*
X87763Y289193D01*
X86737Y288601D01*
X85899Y287763D01*
X85307Y286737D01*
X85000Y285592D01*
Y284408D01*
X85307Y283263D01*
X85899Y282237D01*
X86737Y281399D01*
X87763Y280807D01*
X88908Y280500D01*
X90092D01*
X91237Y280807D01*
X92263Y281399D01*
X93101Y282237D01*
X93693Y283263D01*
X94000Y284408D01*
Y285592D01*
X93693Y286737D01*
X93101Y287763D01*
X92263Y288601D01*
X91237Y289193D01*
X90092Y289500D01*
D02*
G37*
G36*
X20092D02*
X18908D01*
X17763Y289193D01*
X16737Y288601D01*
X15899Y287763D01*
X15307Y286737D01*
X15000Y285592D01*
Y284408D01*
X15307Y283263D01*
X15899Y282237D01*
X16737Y281399D01*
X17763Y280807D01*
X18908Y280500D01*
X20092D01*
X21237Y280807D01*
X22263Y281399D01*
X23101Y282237D01*
X23693Y283263D01*
X24000Y284408D01*
Y285592D01*
X23693Y286737D01*
X23101Y287763D01*
X22263Y288601D01*
X21237Y289193D01*
X20092Y289500D01*
D02*
G37*
G36*
X160092Y283000D02*
X158908D01*
X157763Y282693D01*
X156737Y282101D01*
X155899Y281263D01*
X155307Y280237D01*
X155000Y279092D01*
Y277908D01*
X155307Y276763D01*
X155899Y275737D01*
X156737Y274899D01*
X157763Y274307D01*
X158908Y274000D01*
X160092D01*
X161237Y274307D01*
X162263Y274899D01*
X163101Y275737D01*
X163693Y276763D01*
X164000Y277908D01*
Y279092D01*
X163693Y280237D01*
X163101Y281263D01*
X162263Y282101D01*
X161237Y282693D01*
X160092Y283000D01*
D02*
G37*
G36*
X194043Y282381D02*
X186957D01*
X185823Y282231D01*
X184766Y281794D01*
X183859Y281098D01*
X183163Y280190D01*
X182725Y279134D01*
X182576Y278000D01*
X182725Y276866D01*
X183163Y275810D01*
X183859Y274902D01*
X184766Y274206D01*
X185823Y273768D01*
X186957Y273619D01*
X194043D01*
X195177Y273768D01*
X196234Y274206D01*
X197141Y274902D01*
X197837Y275810D01*
X198275Y276866D01*
X198424Y278000D01*
X198275Y279134D01*
X197837Y280190D01*
X197141Y281098D01*
X196234Y281794D01*
X195177Y282231D01*
X194043Y282381D01*
D02*
G37*
G36*
X90092Y279500D02*
X88908D01*
X87763Y279193D01*
X86737Y278601D01*
X85899Y277763D01*
X85307Y276737D01*
X85000Y275592D01*
Y274408D01*
X85307Y273263D01*
X85899Y272237D01*
X86737Y271399D01*
X87763Y270807D01*
X88908Y270500D01*
X90092D01*
X91237Y270807D01*
X92263Y271399D01*
X93101Y272237D01*
X93693Y273263D01*
X94000Y274408D01*
Y275592D01*
X93693Y276737D01*
X93101Y277763D01*
X92263Y278601D01*
X91237Y279193D01*
X90092Y279500D01*
D02*
G37*
G36*
X20092D02*
X18908D01*
X17763Y279193D01*
X16737Y278601D01*
X15899Y277763D01*
X15307Y276737D01*
X15000Y275592D01*
Y274408D01*
X15307Y273263D01*
X15899Y272237D01*
X16737Y271399D01*
X17763Y270807D01*
X18908Y270500D01*
X20092D01*
X21237Y270807D01*
X22263Y271399D01*
X23101Y272237D01*
X23693Y273263D01*
X24000Y274408D01*
Y275592D01*
X23693Y276737D01*
X23101Y277763D01*
X22263Y278601D01*
X21237Y279193D01*
X20092Y279500D01*
D02*
G37*
G36*
X90092Y269500D02*
X88908D01*
X87763Y269193D01*
X86737Y268601D01*
X85899Y267763D01*
X85307Y266737D01*
X85000Y265592D01*
Y264408D01*
X85307Y263263D01*
X85899Y262237D01*
X86737Y261399D01*
X87763Y260807D01*
X88908Y260500D01*
X90092D01*
X91237Y260807D01*
X92263Y261399D01*
X93101Y262237D01*
X93693Y263263D01*
X94000Y264408D01*
Y265592D01*
X93693Y266737D01*
X93101Y267763D01*
X92263Y268601D01*
X91237Y269193D01*
X90092Y269500D01*
D02*
G37*
G36*
X20092D02*
X18908D01*
X17763Y269193D01*
X16737Y268601D01*
X15899Y267763D01*
X15307Y266737D01*
X15000Y265592D01*
Y264408D01*
X15307Y263263D01*
X15899Y262237D01*
X16737Y261399D01*
X17763Y260807D01*
X18908Y260500D01*
X20092D01*
X21237Y260807D01*
X22263Y261399D01*
X23101Y262237D01*
X23693Y263263D01*
X24000Y264408D01*
Y265592D01*
X23693Y266737D01*
X23101Y267763D01*
X22263Y268601D01*
X21237Y269193D01*
X20092Y269500D01*
D02*
G37*
G36*
X115000Y257598D02*
Y254000D01*
X118598D01*
X118380Y254814D01*
X117761Y255886D01*
X116886Y256761D01*
X115814Y257380D01*
X115000Y257598D01*
D02*
G37*
G36*
X113000D02*
X112186Y257380D01*
X111114Y256761D01*
X110239Y255886D01*
X109620Y254814D01*
X109402Y254000D01*
X113000D01*
Y257598D01*
D02*
G37*
G36*
X194043Y259940D02*
X186957D01*
X185823Y259791D01*
X184766Y259353D01*
X183859Y258657D01*
X183163Y257749D01*
X182725Y256693D01*
X182576Y255559D01*
X182725Y254425D01*
X183163Y253369D01*
X183859Y252461D01*
X184766Y251765D01*
X185823Y251328D01*
X186957Y251178D01*
X194043D01*
X195177Y251328D01*
X196234Y251765D01*
X197141Y252461D01*
X197837Y253369D01*
X198275Y254425D01*
X198424Y255559D01*
X198275Y256693D01*
X197837Y257749D01*
X197141Y258657D01*
X196234Y259353D01*
X195177Y259791D01*
X194043Y259940D01*
D02*
G37*
G36*
X90092Y259500D02*
X88908D01*
X87763Y259193D01*
X86737Y258601D01*
X85899Y257763D01*
X85307Y256737D01*
X85000Y255592D01*
Y254408D01*
X85307Y253263D01*
X85899Y252237D01*
X86737Y251399D01*
X87763Y250807D01*
X88908Y250500D01*
X90092D01*
X91237Y250807D01*
X92263Y251399D01*
X93101Y252237D01*
X93693Y253263D01*
X94000Y254408D01*
Y255592D01*
X93693Y256737D01*
X93101Y257763D01*
X92263Y258601D01*
X91237Y259193D01*
X90092Y259500D01*
D02*
G37*
G36*
X20092D02*
X18908D01*
X17763Y259193D01*
X16737Y258601D01*
X15899Y257763D01*
X15307Y256737D01*
X15000Y255592D01*
Y254408D01*
X15307Y253263D01*
X15899Y252237D01*
X16737Y251399D01*
X17763Y250807D01*
X18908Y250500D01*
X20092D01*
X21237Y250807D01*
X22263Y251399D01*
X23101Y252237D01*
X23693Y253263D01*
X24000Y254408D01*
Y255592D01*
X23693Y256737D01*
X23101Y257763D01*
X22263Y258601D01*
X21237Y259193D01*
X20092Y259500D01*
D02*
G37*
G36*
X161592Y257559D02*
X160408D01*
X159263Y257252D01*
X158237Y256660D01*
X157399Y255822D01*
X156807Y254796D01*
X156500Y253651D01*
Y252467D01*
X156807Y251322D01*
X157399Y250296D01*
X158237Y249458D01*
X159263Y248866D01*
X160408Y248559D01*
X161592D01*
X162737Y248866D01*
X163763Y249458D01*
X164601Y250296D01*
X165193Y251322D01*
X165500Y252467D01*
Y253651D01*
X165193Y254796D01*
X164601Y255822D01*
X163763Y256660D01*
X162737Y257252D01*
X161592Y257559D01*
D02*
G37*
G36*
X118598Y252000D02*
X115000D01*
Y248402D01*
X115814Y248620D01*
X116886Y249239D01*
X117761Y250114D01*
X118380Y251186D01*
X118598Y252000D01*
D02*
G37*
G36*
X113000D02*
X109402D01*
X109620Y251186D01*
X110239Y250114D01*
X111114Y249239D01*
X112186Y248620D01*
X113000Y248402D01*
Y252000D01*
D02*
G37*
G36*
X90092Y249500D02*
X88908D01*
X87763Y249193D01*
X86737Y248601D01*
X85899Y247763D01*
X85307Y246737D01*
X85000Y245592D01*
Y244408D01*
X85307Y243263D01*
X85899Y242237D01*
X86737Y241399D01*
X87763Y240807D01*
X88908Y240500D01*
X90092D01*
X91237Y240807D01*
X92263Y241399D01*
X93101Y242237D01*
X93693Y243263D01*
X94000Y244408D01*
Y245592D01*
X93693Y246737D01*
X93101Y247763D01*
X92263Y248601D01*
X91237Y249193D01*
X90092Y249500D01*
D02*
G37*
G36*
X20092D02*
X18908D01*
X17763Y249193D01*
X16737Y248601D01*
X15899Y247763D01*
X15307Y246737D01*
X15000Y245592D01*
Y244408D01*
X15307Y243263D01*
X15899Y242237D01*
X16737Y241399D01*
X17763Y240807D01*
X18908Y240500D01*
X20092D01*
X21237Y240807D01*
X22263Y241399D01*
X23101Y242237D01*
X23693Y243263D01*
X24000Y244408D01*
Y245592D01*
X23693Y246737D01*
X23101Y247763D01*
X22263Y248601D01*
X21237Y249193D01*
X20092Y249500D01*
D02*
G37*
G36*
X140500Y239500D02*
X131500D01*
Y230500D01*
X140500D01*
Y239500D01*
D02*
G37*
G36*
X90092D02*
X88908D01*
X87763Y239193D01*
X86737Y238601D01*
X85899Y237763D01*
X85307Y236737D01*
X85000Y235592D01*
Y234408D01*
X85307Y233263D01*
X85899Y232237D01*
X86737Y231399D01*
X87763Y230807D01*
X88908Y230500D01*
X90092D01*
X91237Y230807D01*
X92263Y231399D01*
X93101Y232237D01*
X93693Y233263D01*
X94000Y234408D01*
Y235592D01*
X93693Y236737D01*
X93101Y237763D01*
X92263Y238601D01*
X91237Y239193D01*
X90092Y239500D01*
D02*
G37*
G36*
X20092D02*
X18908D01*
X17763Y239193D01*
X16737Y238601D01*
X15899Y237763D01*
X15307Y236737D01*
X15000Y235592D01*
Y234408D01*
X15307Y233263D01*
X15899Y232237D01*
X16737Y231399D01*
X17763Y230807D01*
X18908Y230500D01*
X20092D01*
X21237Y230807D01*
X22263Y231399D01*
X23101Y232237D01*
X23693Y233263D01*
X24000Y234408D01*
Y235592D01*
X23693Y236737D01*
X23101Y237763D01*
X22263Y238601D01*
X21237Y239193D01*
X20092Y239500D01*
D02*
G37*
G36*
X190000Y238500D02*
X181000D01*
Y229500D01*
X190000D01*
Y238500D01*
D02*
G37*
G36*
X136592Y229500D02*
X135408D01*
X134263Y229193D01*
X133237Y228601D01*
X132399Y227763D01*
X131807Y226737D01*
X131500Y225592D01*
Y224408D01*
X131807Y223263D01*
X132399Y222237D01*
X133237Y221399D01*
X134263Y220807D01*
X135408Y220500D01*
X136592D01*
X137737Y220807D01*
X138763Y221399D01*
X139601Y222237D01*
X140193Y223263D01*
X140500Y224408D01*
Y225592D01*
X140193Y226737D01*
X139601Y227763D01*
X138763Y228601D01*
X137737Y229193D01*
X136592Y229500D01*
D02*
G37*
G36*
X90092D02*
X88908D01*
X87763Y229193D01*
X86737Y228601D01*
X85899Y227763D01*
X85307Y226737D01*
X85000Y225592D01*
Y224408D01*
X85307Y223263D01*
X85899Y222237D01*
X86737Y221399D01*
X87763Y220807D01*
X88908Y220500D01*
X90092D01*
X91237Y220807D01*
X92263Y221399D01*
X93101Y222237D01*
X93693Y223263D01*
X94000Y224408D01*
Y225592D01*
X93693Y226737D01*
X93101Y227763D01*
X92263Y228601D01*
X91237Y229193D01*
X90092Y229500D01*
D02*
G37*
G36*
X20092D02*
X18908D01*
X17763Y229193D01*
X16737Y228601D01*
X15899Y227763D01*
X15307Y226737D01*
X15000Y225592D01*
Y224408D01*
X15307Y223263D01*
X15899Y222237D01*
X16737Y221399D01*
X17763Y220807D01*
X18908Y220500D01*
X20092D01*
X21237Y220807D01*
X22263Y221399D01*
X23101Y222237D01*
X23693Y223263D01*
X24000Y224408D01*
Y225592D01*
X23693Y226737D01*
X23101Y227763D01*
X22263Y228601D01*
X21237Y229193D01*
X20092Y229500D01*
D02*
G37*
G36*
X186092Y228500D02*
X184908D01*
X183763Y228193D01*
X182737Y227601D01*
X181899Y226763D01*
X181307Y225737D01*
X181000Y224592D01*
Y223408D01*
X181307Y222263D01*
X181899Y221237D01*
X182737Y220399D01*
X183763Y219807D01*
X184908Y219500D01*
X186092D01*
X187237Y219807D01*
X188263Y220399D01*
X189101Y221237D01*
X189693Y222263D01*
X190000Y223408D01*
Y224592D01*
X189693Y225737D01*
X189101Y226763D01*
X188263Y227601D01*
X187237Y228193D01*
X186092Y228500D01*
D02*
G37*
G36*
X90092Y219500D02*
X88908D01*
X87763Y219193D01*
X86737Y218601D01*
X85899Y217763D01*
X85307Y216737D01*
X85000Y215592D01*
Y214408D01*
X85307Y213263D01*
X85899Y212237D01*
X86737Y211399D01*
X87763Y210807D01*
X88908Y210500D01*
X90092D01*
X91237Y210807D01*
X92263Y211399D01*
X93101Y212237D01*
X93693Y213263D01*
X94000Y214408D01*
Y215592D01*
X93693Y216737D01*
X93101Y217763D01*
X92263Y218601D01*
X91237Y219193D01*
X90092Y219500D01*
D02*
G37*
G36*
X20092D02*
X18908D01*
X17763Y219193D01*
X16737Y218601D01*
X15899Y217763D01*
X15307Y216737D01*
X15000Y215592D01*
Y214408D01*
X15307Y213263D01*
X15899Y212237D01*
X16737Y211399D01*
X17763Y210807D01*
X18908Y210500D01*
X20092D01*
X21237Y210807D01*
X22263Y211399D01*
X23101Y212237D01*
X23693Y213263D01*
X24000Y214408D01*
Y215592D01*
X23693Y216737D01*
X23101Y217763D01*
X22263Y218601D01*
X21237Y219193D01*
X20092Y219500D01*
D02*
G37*
G36*
X161592Y215000D02*
X160408D01*
X159263Y214693D01*
X158237Y214101D01*
X157399Y213263D01*
X156807Y212237D01*
X156500Y211092D01*
Y209908D01*
X156807Y208763D01*
X157399Y207737D01*
X158237Y206899D01*
X159263Y206307D01*
X160408Y206000D01*
X161592D01*
X162737Y206307D01*
X163763Y206899D01*
X164601Y207737D01*
X165193Y208763D01*
X165500Y209908D01*
Y211092D01*
X165193Y212237D01*
X164601Y213263D01*
X163763Y214101D01*
X162737Y214693D01*
X161592Y215000D01*
D02*
G37*
G36*
X114592Y214941D02*
X113408D01*
X112263Y214634D01*
X111237Y214042D01*
X110399Y213204D01*
X109807Y212178D01*
X109500Y211033D01*
Y209848D01*
X109807Y208704D01*
X110399Y207678D01*
X111237Y206840D01*
X112263Y206248D01*
X113408Y205941D01*
X114592D01*
X115737Y206248D01*
X116763Y206840D01*
X117601Y207678D01*
X118193Y208704D01*
X118500Y209848D01*
Y211033D01*
X118193Y212178D01*
X117601Y213204D01*
X116763Y214042D01*
X115737Y214634D01*
X114592Y214941D01*
D02*
G37*
G36*
X90092Y209500D02*
X88908D01*
X87763Y209193D01*
X86737Y208601D01*
X85899Y207763D01*
X85307Y206737D01*
X85000Y205592D01*
Y204408D01*
X85307Y203263D01*
X85899Y202237D01*
X86737Y201399D01*
X87763Y200807D01*
X88908Y200500D01*
X90092D01*
X91237Y200807D01*
X92263Y201399D01*
X93101Y202237D01*
X93693Y203263D01*
X94000Y204408D01*
Y205592D01*
X93693Y206737D01*
X93101Y207763D01*
X92263Y208601D01*
X91237Y209193D01*
X90092Y209500D01*
D02*
G37*
G36*
X20092D02*
X18908D01*
X17763Y209193D01*
X16737Y208601D01*
X15899Y207763D01*
X15307Y206737D01*
X15000Y205592D01*
Y204408D01*
X15307Y203263D01*
X15899Y202237D01*
X16737Y201399D01*
X17763Y200807D01*
X18908Y200500D01*
X20092D01*
X21237Y200807D01*
X22263Y201399D01*
X23101Y202237D01*
X23693Y203263D01*
X24000Y204408D01*
Y205592D01*
X23693Y206737D01*
X23101Y207763D01*
X22263Y208601D01*
X21237Y209193D01*
X20092Y209500D01*
D02*
G37*
G36*
X90092Y199500D02*
X88908D01*
X87763Y199193D01*
X86737Y198601D01*
X85899Y197763D01*
X85307Y196737D01*
X85000Y195592D01*
Y194408D01*
X85307Y193263D01*
X85899Y192237D01*
X86737Y191399D01*
X87763Y190807D01*
X88908Y190500D01*
X90092D01*
X91237Y190807D01*
X92263Y191399D01*
X93101Y192237D01*
X93693Y193263D01*
X94000Y194408D01*
Y195592D01*
X93693Y196737D01*
X93101Y197763D01*
X92263Y198601D01*
X91237Y199193D01*
X90092Y199500D01*
D02*
G37*
G36*
X20092D02*
X18908D01*
X17763Y199193D01*
X16737Y198601D01*
X15899Y197763D01*
X15307Y196737D01*
X15000Y195592D01*
Y194408D01*
X15307Y193263D01*
X15899Y192237D01*
X16737Y191399D01*
X17763Y190807D01*
X18908Y190500D01*
X20092D01*
X21237Y190807D01*
X22263Y191399D01*
X23101Y192237D01*
X23693Y193263D01*
X24000Y194408D01*
Y195592D01*
X23693Y196737D01*
X23101Y197763D01*
X22263Y198601D01*
X21237Y199193D01*
X20092Y199500D01*
D02*
G37*
G36*
X90092Y189500D02*
X88908D01*
X87763Y189193D01*
X86737Y188601D01*
X85899Y187763D01*
X85307Y186737D01*
X85000Y185592D01*
Y184408D01*
X85307Y183263D01*
X85899Y182237D01*
X86737Y181399D01*
X87763Y180807D01*
X88908Y180500D01*
X90092D01*
X91237Y180807D01*
X92263Y181399D01*
X93101Y182237D01*
X93693Y183263D01*
X94000Y184408D01*
Y185592D01*
X93693Y186737D01*
X93101Y187763D01*
X92263Y188601D01*
X91237Y189193D01*
X90092Y189500D01*
D02*
G37*
G36*
X20092D02*
X18908D01*
X17763Y189193D01*
X16737Y188601D01*
X15899Y187763D01*
X15307Y186737D01*
X15000Y185592D01*
Y184408D01*
X15307Y183263D01*
X15899Y182237D01*
X16737Y181399D01*
X17763Y180807D01*
X18908Y180500D01*
X20092D01*
X21237Y180807D01*
X22263Y181399D01*
X23101Y182237D01*
X23693Y183263D01*
X24000Y184408D01*
Y185592D01*
X23693Y186737D01*
X23101Y187763D01*
X22263Y188601D01*
X21237Y189193D01*
X20092Y189500D01*
D02*
G37*
G36*
X90092Y179500D02*
X88908D01*
X87763Y179193D01*
X86737Y178601D01*
X85899Y177763D01*
X85307Y176737D01*
X85000Y175592D01*
Y174408D01*
X85307Y173263D01*
X85899Y172237D01*
X86737Y171399D01*
X87763Y170807D01*
X88908Y170500D01*
X90092D01*
X91237Y170807D01*
X92263Y171399D01*
X93101Y172237D01*
X93693Y173263D01*
X94000Y174408D01*
Y175592D01*
X93693Y176737D01*
X93101Y177763D01*
X92263Y178601D01*
X91237Y179193D01*
X90092Y179500D01*
D02*
G37*
G36*
X20092D02*
X18908D01*
X17763Y179193D01*
X16737Y178601D01*
X15899Y177763D01*
X15307Y176737D01*
X15000Y175592D01*
Y174408D01*
X15307Y173263D01*
X15899Y172237D01*
X16737Y171399D01*
X17763Y170807D01*
X18908Y170500D01*
X20092D01*
X21237Y170807D01*
X22263Y171399D01*
X23101Y172237D01*
X23693Y173263D01*
X24000Y174408D01*
Y175592D01*
X23693Y176737D01*
X23101Y177763D01*
X22263Y178601D01*
X21237Y179193D01*
X20092Y179500D01*
D02*
G37*
G36*
X90092Y169500D02*
X88908D01*
X87763Y169193D01*
X86737Y168601D01*
X85899Y167763D01*
X85307Y166737D01*
X85000Y165592D01*
Y164408D01*
X85307Y163263D01*
X85899Y162237D01*
X86737Y161399D01*
X87763Y160807D01*
X88908Y160500D01*
X90092D01*
X91237Y160807D01*
X92263Y161399D01*
X93101Y162237D01*
X93693Y163263D01*
X94000Y164408D01*
Y165592D01*
X93693Y166737D01*
X93101Y167763D01*
X92263Y168601D01*
X91237Y169193D01*
X90092Y169500D01*
D02*
G37*
G36*
X20092D02*
X18908D01*
X17763Y169193D01*
X16737Y168601D01*
X15899Y167763D01*
X15307Y166737D01*
X15000Y165592D01*
Y164408D01*
X15307Y163263D01*
X15899Y162237D01*
X16737Y161399D01*
X17763Y160807D01*
X18908Y160500D01*
X20092D01*
X21237Y160807D01*
X22263Y161399D01*
X23101Y162237D01*
X23693Y163263D01*
X24000Y164408D01*
Y165592D01*
X23693Y166737D01*
X23101Y167763D01*
X22263Y168601D01*
X21237Y169193D01*
X20092Y169500D01*
D02*
G37*
G36*
X90092Y159500D02*
X88908D01*
X87763Y159193D01*
X86737Y158601D01*
X85899Y157763D01*
X85307Y156737D01*
X85000Y155592D01*
Y154408D01*
X85307Y153263D01*
X85899Y152237D01*
X86737Y151399D01*
X87763Y150807D01*
X88908Y150500D01*
X90092D01*
X91237Y150807D01*
X92263Y151399D01*
X93101Y152237D01*
X93693Y153263D01*
X94000Y154408D01*
Y155592D01*
X93693Y156737D01*
X93101Y157763D01*
X92263Y158601D01*
X91237Y159193D01*
X90092Y159500D01*
D02*
G37*
G36*
X20092D02*
X18908D01*
X17763Y159193D01*
X16737Y158601D01*
X15899Y157763D01*
X15307Y156737D01*
X15000Y155592D01*
Y154408D01*
X15307Y153263D01*
X15899Y152237D01*
X16737Y151399D01*
X17763Y150807D01*
X18908Y150500D01*
X20092D01*
X21237Y150807D01*
X22263Y151399D01*
X23101Y152237D01*
X23693Y153263D01*
X24000Y154408D01*
Y155592D01*
X23693Y156737D01*
X23101Y157763D01*
X22263Y158601D01*
X21237Y159193D01*
X20092Y159500D01*
D02*
G37*
G36*
X90092Y149500D02*
X88908D01*
X87763Y149193D01*
X86737Y148601D01*
X85899Y147763D01*
X85307Y146737D01*
X85000Y145592D01*
Y144408D01*
X85307Y143263D01*
X85899Y142237D01*
X86737Y141399D01*
X87763Y140807D01*
X88908Y140500D01*
X90092D01*
X91237Y140807D01*
X92263Y141399D01*
X93101Y142237D01*
X93693Y143263D01*
X94000Y144408D01*
Y145592D01*
X93693Y146737D01*
X93101Y147763D01*
X92263Y148601D01*
X91237Y149193D01*
X90092Y149500D01*
D02*
G37*
G36*
X20092D02*
X18908D01*
X17763Y149193D01*
X16737Y148601D01*
X15899Y147763D01*
X15307Y146737D01*
X15000Y145592D01*
Y144408D01*
X15307Y143263D01*
X15899Y142237D01*
X16737Y141399D01*
X17763Y140807D01*
X18908Y140500D01*
X20092D01*
X21237Y140807D01*
X22263Y141399D01*
X23101Y142237D01*
X23693Y143263D01*
X24000Y144408D01*
Y145592D01*
X23693Y146737D01*
X23101Y147763D01*
X22263Y148601D01*
X21237Y149193D01*
X20092Y149500D01*
D02*
G37*
G36*
X90092Y139500D02*
X88908D01*
X87763Y139193D01*
X86737Y138601D01*
X85899Y137763D01*
X85307Y136737D01*
X85000Y135592D01*
Y134408D01*
X85307Y133263D01*
X85899Y132237D01*
X86737Y131399D01*
X87763Y130807D01*
X88908Y130500D01*
X90092D01*
X91237Y130807D01*
X92263Y131399D01*
X93101Y132237D01*
X93693Y133263D01*
X94000Y134408D01*
Y135592D01*
X93693Y136737D01*
X93101Y137763D01*
X92263Y138601D01*
X91237Y139193D01*
X90092Y139500D01*
D02*
G37*
G36*
X20092D02*
X18908D01*
X17763Y139193D01*
X16737Y138601D01*
X15899Y137763D01*
X15307Y136737D01*
X15000Y135592D01*
Y134408D01*
X15307Y133263D01*
X15899Y132237D01*
X16737Y131399D01*
X17763Y130807D01*
X18908Y130500D01*
X20092D01*
X21237Y130807D01*
X22263Y131399D01*
X23101Y132237D01*
X23693Y133263D01*
X24000Y134408D01*
Y135592D01*
X23693Y136737D01*
X23101Y137763D01*
X22263Y138601D01*
X21237Y139193D01*
X20092Y139500D01*
D02*
G37*
G36*
X94000Y129500D02*
X85000D01*
Y120500D01*
X94000D01*
Y129500D01*
D02*
G37*
G36*
X24000D02*
X15000D01*
Y120500D01*
X24000D01*
Y129500D01*
D02*
G37*
G36*
X179719Y83130D02*
X178850D01*
X178010Y82905D01*
X177258Y82471D01*
X176644Y81856D01*
X176209Y81104D01*
X175984Y80264D01*
Y79396D01*
X176209Y78556D01*
X176644Y77804D01*
X177258Y77189D01*
X178010Y76755D01*
X178850Y76530D01*
X179719D01*
X180558Y76755D01*
X181310Y77189D01*
X181925Y77804D01*
X182359Y78556D01*
X182584Y79396D01*
Y80264D01*
X182359Y81104D01*
X181925Y81856D01*
X181310Y82471D01*
X180558Y82905D01*
X179719Y83130D01*
D02*
G37*
G36*
X126592Y78500D02*
X125408D01*
X124263Y78193D01*
X123237Y77601D01*
X122399Y76763D01*
X121807Y75737D01*
X121500Y74592D01*
Y73408D01*
X121807Y72263D01*
X122399Y71237D01*
X123237Y70399D01*
X124263Y69807D01*
X125408Y69500D01*
X126592D01*
X127737Y69807D01*
X128763Y70399D01*
X129601Y71237D01*
X130193Y72263D01*
X130500Y73408D01*
Y74592D01*
X130193Y75737D01*
X129601Y76763D01*
X128763Y77601D01*
X127737Y78193D01*
X126592Y78500D01*
D02*
G37*
G36*
X16592D02*
X15408D01*
X14263Y78193D01*
X13237Y77601D01*
X12399Y76763D01*
X11807Y75737D01*
X11500Y74592D01*
Y73408D01*
X11807Y72263D01*
X12399Y71237D01*
X13237Y70399D01*
X14263Y69807D01*
X15408Y69500D01*
X16592D01*
X17737Y69807D01*
X18763Y70399D01*
X19601Y71237D01*
X20193Y72263D01*
X20500Y73408D01*
Y74592D01*
X20193Y75737D01*
X19601Y76763D01*
X18763Y77601D01*
X17737Y78193D01*
X16592Y78500D01*
D02*
G37*
G36*
X187500Y71811D02*
X186502D01*
X185537Y71553D01*
X184672Y71053D01*
X183966Y70347D01*
X183467Y69483D01*
X183209Y68518D01*
Y67520D01*
X183467Y66555D01*
X183966Y65690D01*
X184672Y64985D01*
X185537Y64485D01*
X186502Y64227D01*
X187500D01*
X188464Y64485D01*
X189329Y64985D01*
X190035Y65690D01*
X190534Y66555D01*
X190793Y67520D01*
Y68518D01*
X190534Y69483D01*
X190035Y70347D01*
X189329Y71053D01*
X188464Y71553D01*
X187500Y71811D01*
D02*
G37*
G36*
X154467Y67550D02*
X153533D01*
X152630Y67308D01*
X151820Y66841D01*
X151159Y66180D01*
X150692Y65370D01*
X150450Y64467D01*
Y63533D01*
X150692Y62630D01*
X151159Y61820D01*
X151820Y61159D01*
X152630Y60692D01*
X153533Y60450D01*
X154467D01*
X155370Y60692D01*
X156180Y61159D01*
X156841Y61820D01*
X157308Y62630D01*
X157550Y63533D01*
Y64467D01*
X157308Y65370D01*
X156841Y66180D01*
X156180Y66841D01*
X155370Y67308D01*
X154467Y67550D01*
D02*
G37*
G36*
X126592Y68500D02*
X125408D01*
X124263Y68193D01*
X123237Y67601D01*
X122399Y66763D01*
X121807Y65737D01*
X121500Y64592D01*
Y63408D01*
X121807Y62263D01*
X122399Y61237D01*
X123237Y60399D01*
X124263Y59807D01*
X125408Y59500D01*
X126592D01*
X127737Y59807D01*
X128763Y60399D01*
X129601Y61237D01*
X130193Y62263D01*
X130500Y63408D01*
Y64592D01*
X130193Y65737D01*
X129601Y66763D01*
X128763Y67601D01*
X127737Y68193D01*
X126592Y68500D01*
D02*
G37*
G36*
X16592D02*
X15408D01*
X14263Y68193D01*
X13237Y67601D01*
X12399Y66763D01*
X11807Y65737D01*
X11500Y64592D01*
Y63408D01*
X11807Y62263D01*
X12399Y61237D01*
X13237Y60399D01*
X14263Y59807D01*
X15408Y59500D01*
X16592D01*
X17737Y59807D01*
X18763Y60399D01*
X19601Y61237D01*
X20193Y62263D01*
X20500Y63408D01*
Y64592D01*
X20193Y65737D01*
X19601Y66763D01*
X18763Y67601D01*
X17737Y68193D01*
X16592Y68500D01*
D02*
G37*
G36*
X187500Y60000D02*
X186502D01*
X185537Y59742D01*
X184672Y59242D01*
X183966Y58536D01*
X183467Y57672D01*
X183209Y56707D01*
Y55709D01*
X183467Y54744D01*
X183966Y53879D01*
X184672Y53173D01*
X185537Y52674D01*
X186502Y52416D01*
X187500D01*
X188464Y52674D01*
X189329Y53173D01*
X190035Y53879D01*
X190534Y54744D01*
X190793Y55709D01*
Y56707D01*
X190534Y57672D01*
X190035Y58536D01*
X189329Y59242D01*
X188464Y59742D01*
X187500Y60000D01*
D02*
G37*
G36*
X154467Y57550D02*
X153533D01*
X152630Y57308D01*
X151820Y56841D01*
X151159Y56180D01*
X150692Y55370D01*
X150450Y54467D01*
Y53533D01*
X150692Y52630D01*
X151159Y51820D01*
X151820Y51159D01*
X152630Y50692D01*
X153533Y50450D01*
X154467D01*
X155370Y50692D01*
X156180Y51159D01*
X156841Y51820D01*
X157308Y52630D01*
X157550Y53533D01*
Y54467D01*
X157308Y55370D01*
X156841Y56180D01*
X156180Y56841D01*
X155370Y57308D01*
X154467Y57550D01*
D02*
G37*
G36*
X126592Y58500D02*
X125408D01*
X124263Y58193D01*
X123237Y57601D01*
X122399Y56763D01*
X121807Y55737D01*
X121500Y54592D01*
Y53408D01*
X121807Y52263D01*
X122399Y51237D01*
X123237Y50399D01*
X124263Y49807D01*
X125408Y49500D01*
X126592D01*
X127737Y49807D01*
X128763Y50399D01*
X129601Y51237D01*
X130193Y52263D01*
X130500Y53408D01*
Y54592D01*
X130193Y55737D01*
X129601Y56763D01*
X128763Y57601D01*
X127737Y58193D01*
X126592Y58500D01*
D02*
G37*
G36*
X187500Y48189D02*
X186502D01*
X185537Y47930D01*
X184672Y47431D01*
X183966Y46725D01*
X183467Y45861D01*
X183209Y44896D01*
Y43898D01*
X183467Y42933D01*
X183966Y42068D01*
X184672Y41362D01*
X185537Y40863D01*
X186502Y40605D01*
X187500D01*
X188464Y40863D01*
X189329Y41362D01*
X190035Y42068D01*
X190534Y42933D01*
X190793Y43898D01*
Y44896D01*
X190534Y45861D01*
X190035Y46725D01*
X189329Y47431D01*
X188464Y47930D01*
X187500Y48189D01*
D02*
G37*
G36*
X154467Y47550D02*
X153533D01*
X152630Y47308D01*
X151820Y46841D01*
X151159Y46180D01*
X150692Y45370D01*
X150450Y44467D01*
Y43533D01*
X150692Y42630D01*
X151159Y41820D01*
X151820Y41159D01*
X152630Y40692D01*
X153533Y40450D01*
X154467D01*
X155370Y40692D01*
X156180Y41159D01*
X156841Y41820D01*
X157308Y42630D01*
X157550Y43533D01*
Y44467D01*
X157308Y45370D01*
X156841Y46180D01*
X156180Y46841D01*
X155370Y47308D01*
X154467Y47550D01*
D02*
G37*
G36*
X126592Y48500D02*
X125408D01*
X124263Y48193D01*
X123237Y47601D01*
X122399Y46763D01*
X121807Y45737D01*
X121500Y44592D01*
Y43408D01*
X121807Y42263D01*
X122399Y41237D01*
X123237Y40399D01*
X124263Y39807D01*
X125408Y39500D01*
X126592D01*
X127737Y39807D01*
X128763Y40399D01*
X129601Y41237D01*
X130193Y42263D01*
X130500Y43408D01*
Y44592D01*
X130193Y45737D01*
X129601Y46763D01*
X128763Y47601D01*
X127737Y48193D01*
X126592Y48500D01*
D02*
G37*
G36*
X157550Y37550D02*
X150450D01*
Y30450D01*
X157550D01*
Y37550D01*
D02*
G37*
G36*
X126592Y38500D02*
X125408D01*
X124263Y38193D01*
X123237Y37601D01*
X122399Y36763D01*
X121807Y35737D01*
X121500Y34592D01*
Y33408D01*
X121807Y32263D01*
X122399Y31237D01*
X123237Y30399D01*
X124263Y29807D01*
X125408Y29500D01*
X126592D01*
X127737Y29807D01*
X128763Y30399D01*
X129601Y31237D01*
X130193Y32263D01*
X130500Y33408D01*
Y34592D01*
X130193Y35737D01*
X129601Y36763D01*
X128763Y37601D01*
X127737Y38193D01*
X126592Y38500D01*
D02*
G37*
G36*
X20598Y33000D02*
X17000D01*
Y29402D01*
X17814Y29620D01*
X18886Y30239D01*
X19761Y31114D01*
X20380Y32186D01*
X20598Y33000D01*
D02*
G37*
G36*
X15000D02*
X11402D01*
X11620Y32186D01*
X12239Y31114D01*
X13114Y30239D01*
X14186Y29620D01*
X15000Y29402D01*
Y33000D01*
D02*
G37*
G36*
X190793Y36378D02*
X183209D01*
Y28794D01*
X190793D01*
Y36378D01*
D02*
G37*
G36*
X179719Y24075D02*
X178850D01*
X178010Y23850D01*
X177258Y23415D01*
X176644Y22801D01*
X176209Y22049D01*
X175984Y21209D01*
Y20340D01*
X176209Y19501D01*
X176644Y18749D01*
X177258Y18134D01*
X178010Y17700D01*
X178850Y17475D01*
X179719D01*
X180558Y17700D01*
X181310Y18134D01*
X181925Y18749D01*
X182359Y19501D01*
X182584Y20340D01*
Y21209D01*
X182359Y22049D01*
X181925Y22801D01*
X181310Y23415D01*
X180558Y23850D01*
X179719Y24075D01*
D02*
G37*
%LPD*%
G36*
X95500Y309500D02*
X85500D01*
X56500Y280500D01*
X56500Y114000D01*
X27500Y85000D01*
X14000D01*
X9000Y80000D01*
Y53500D01*
X13000Y49500D01*
X21500D01*
Y38500D01*
X10500D01*
X5000Y44000D01*
Y84500D01*
X11500Y91000D01*
X23000D01*
X48500Y116500D01*
X48500Y288000D01*
X82000Y321500D01*
X95500D01*
Y309500D01*
D02*
G37*
%LPC*%
G36*
X90500Y319598D02*
Y316000D01*
X94098D01*
X93880Y316814D01*
X93261Y317886D01*
X92386Y318761D01*
X91314Y319380D01*
X90500Y319598D01*
D02*
G37*
G36*
X88500D02*
X87686Y319380D01*
X86614Y318761D01*
X85739Y317886D01*
X85120Y316814D01*
X84902Y316000D01*
X88500D01*
Y319598D01*
D02*
G37*
G36*
X94098Y314000D02*
X90500D01*
Y310402D01*
X91314Y310620D01*
X92386Y311239D01*
X93261Y312114D01*
X93880Y313186D01*
X94098Y314000D01*
D02*
G37*
G36*
X88500D02*
X84902D01*
X85120Y313186D01*
X85739Y312114D01*
X86614Y311239D01*
X87686Y310620D01*
X88500Y310402D01*
Y314000D01*
D02*
G37*
G36*
X17000Y48598D02*
Y45000D01*
X20598D01*
X20380Y45814D01*
X19761Y46886D01*
X18886Y47761D01*
X17814Y48380D01*
X17000Y48598D01*
D02*
G37*
G36*
X15000D02*
X14186Y48380D01*
X13114Y47761D01*
X12239Y46886D01*
X11620Y45814D01*
X11402Y45000D01*
X15000D01*
Y48598D01*
D02*
G37*
G36*
X20598Y43000D02*
X17000D01*
Y39402D01*
X17814Y39620D01*
X18886Y40239D01*
X19761Y41114D01*
X20380Y42186D01*
X20598Y43000D01*
D02*
G37*
G36*
X15000D02*
X11402D01*
X11620Y42186D01*
X12239Y41114D01*
X13114Y40239D01*
X14186Y39620D01*
X15000Y39402D01*
Y43000D01*
D02*
G37*
%LPD*%
D25*
X161000Y253059D02*
D03*
Y210500D02*
D03*
X16000Y74000D02*
D03*
Y64000D02*
D03*
Y54000D02*
D03*
Y44000D02*
D03*
Y34000D02*
D03*
X126000D02*
D03*
Y44000D02*
D03*
Y54000D02*
D03*
Y64000D02*
D03*
Y74000D02*
D03*
X19500Y215000D02*
D03*
Y225000D02*
D03*
Y205000D02*
D03*
Y195000D02*
D03*
Y185000D02*
D03*
Y175000D02*
D03*
Y165000D02*
D03*
Y155000D02*
D03*
Y145000D02*
D03*
Y135000D02*
D03*
Y235000D02*
D03*
Y245000D02*
D03*
Y255000D02*
D03*
Y265000D02*
D03*
Y275000D02*
D03*
Y285000D02*
D03*
Y295000D02*
D03*
Y305000D02*
D03*
Y315000D02*
D03*
X89500Y215000D02*
D03*
Y225000D02*
D03*
Y205000D02*
D03*
Y195000D02*
D03*
Y185000D02*
D03*
Y175000D02*
D03*
Y165000D02*
D03*
Y155000D02*
D03*
Y145000D02*
D03*
Y135000D02*
D03*
Y235000D02*
D03*
Y245000D02*
D03*
Y255000D02*
D03*
Y265000D02*
D03*
Y275000D02*
D03*
Y285000D02*
D03*
Y295000D02*
D03*
Y305000D02*
D03*
Y315000D02*
D03*
X159500Y321059D02*
D03*
Y278500D02*
D03*
X114000Y253000D02*
D03*
Y210441D02*
D03*
X136000Y225000D02*
D03*
X185500Y224000D02*
D03*
X139500Y311000D02*
D03*
Y291300D02*
D03*
D26*
X19500Y125000D02*
D03*
X89500D02*
D03*
D27*
X187001Y32586D02*
D03*
D28*
Y44397D02*
D03*
Y56208D02*
D03*
Y68019D02*
D03*
D29*
X179284Y20775D02*
D03*
Y79830D02*
D03*
D30*
X154000Y34000D02*
D03*
D31*
Y44000D02*
D03*
Y54000D02*
D03*
Y64000D02*
D03*
D32*
X190500Y255559D02*
D03*
Y278000D02*
D03*
Y299260D02*
D03*
D33*
X136000Y235000D02*
D03*
X185500Y234000D02*
D03*
M02*
