G04*
G04 #@! TF.GenerationSoftware,Altium Limited,Altium Designer,22.8.2 (66)*
G04*
G04 Layer_Physical_Order=1*
G04 Layer_Color=255*
%FSLAX25Y25*%
%MOIN*%
G70*
G04*
G04 #@! TF.SameCoordinates,5F8DC0AC-A5A4-4812-8F0A-80CEB44D7970*
G04*
G04*
G04 #@! TF.FilePolarity,Positive*
G04*
G01*
G75*
%ADD23C,0.01500*%
%ADD24C,0.07400*%
%ADD25R,0.07400X0.07400*%
%ADD26C,0.05000*%
%ADD27O,0.14173X0.07087*%
%ADD28R,0.07400X0.07400*%
G36*
X214197Y803D02*
X803D01*
Y335197D01*
X214197D01*
Y803D01*
D02*
G37*
%LPC*%
G36*
X167000Y322157D02*
Y318559D01*
X170598D01*
X170380Y319373D01*
X169761Y320445D01*
X168886Y321320D01*
X167814Y321939D01*
X167000Y322157D01*
D02*
G37*
G36*
X165000Y322157D02*
X164186Y321939D01*
X163114Y321320D01*
X162239Y320445D01*
X161620Y319373D01*
X161402Y318559D01*
X165000D01*
Y322157D01*
D02*
G37*
G36*
X170598Y316559D02*
X167000D01*
Y312961D01*
X167814Y313179D01*
X168886Y313798D01*
X169761Y314673D01*
X170380Y315745D01*
X170598Y316559D01*
D02*
G37*
G36*
X165000D02*
X161402D01*
X161620Y315745D01*
X162239Y314673D01*
X163114Y313798D01*
X164186Y313179D01*
X165000Y312961D01*
Y316559D01*
D02*
G37*
G36*
X90092Y319500D02*
X88908D01*
X87763Y319193D01*
X86737Y318601D01*
X85899Y317763D01*
X85307Y316737D01*
X85000Y315592D01*
Y314408D01*
X85307Y313263D01*
X85899Y312237D01*
X86737Y311399D01*
X87763Y310807D01*
X88908Y310500D01*
X90092D01*
X91237Y310807D01*
X92263Y311399D01*
X93101Y312237D01*
X93693Y313263D01*
X94000Y314408D01*
Y315592D01*
X93693Y316737D01*
X93101Y317763D01*
X92263Y318601D01*
X91237Y319193D01*
X90092Y319500D01*
D02*
G37*
G36*
X20092D02*
X18908D01*
X17763Y319193D01*
X16737Y318601D01*
X15899Y317763D01*
X15307Y316737D01*
X15000Y315592D01*
Y314408D01*
X15307Y313263D01*
X15899Y312237D01*
X16737Y311399D01*
X17763Y310807D01*
X18908Y310500D01*
X20092D01*
X21237Y310807D01*
X22263Y311399D01*
X23101Y312237D01*
X23693Y313263D01*
X24000Y314408D01*
Y315592D01*
X23693Y316737D01*
X23101Y317763D01*
X22263Y318601D01*
X21237Y319193D01*
X20092Y319500D01*
D02*
G37*
G36*
X151092Y315500D02*
X149908D01*
X148763Y315193D01*
X147737Y314601D01*
X146899Y313763D01*
X146307Y312737D01*
X146000Y311592D01*
Y310408D01*
X146307Y309263D01*
X146899Y308237D01*
X147737Y307399D01*
X148763Y306807D01*
X149908Y306500D01*
X151092D01*
X152237Y306807D01*
X153263Y307399D01*
X154101Y308237D01*
X154693Y309263D01*
X155000Y310408D01*
Y311592D01*
X154693Y312737D01*
X154101Y313763D01*
X153263Y314601D01*
X152237Y315193D01*
X151092Y315500D01*
D02*
G37*
G36*
X133395Y315200D02*
X132210D01*
X131065Y314893D01*
X130039Y314301D01*
X129201Y313463D01*
X128609Y312437D01*
X128302Y311292D01*
Y310108D01*
X128609Y308963D01*
X129201Y307937D01*
X130039Y307099D01*
X131065Y306507D01*
X132210Y306200D01*
X133395D01*
X134539Y306507D01*
X135565Y307099D01*
X136403Y307937D01*
X136995Y308963D01*
X137302Y310108D01*
Y311292D01*
X136995Y312437D01*
X136403Y313463D01*
X135565Y314301D01*
X134539Y314893D01*
X133395Y315200D01*
D02*
G37*
G36*
X90500Y309598D02*
Y306000D01*
X94098D01*
X93880Y306814D01*
X93261Y307886D01*
X92386Y308761D01*
X91314Y309380D01*
X90500Y309598D01*
D02*
G37*
G36*
X20500D02*
Y306000D01*
X24098D01*
X23880Y306814D01*
X23261Y307886D01*
X22386Y308761D01*
X21314Y309380D01*
X20500Y309598D01*
D02*
G37*
G36*
X88500D02*
X87686Y309380D01*
X86614Y308761D01*
X85739Y307886D01*
X85120Y306814D01*
X84902Y306000D01*
X88500D01*
Y309598D01*
D02*
G37*
G36*
X18500D02*
X17686Y309380D01*
X16614Y308761D01*
X15739Y307886D01*
X15120Y306814D01*
X14902Y306000D01*
X18500D01*
Y309598D01*
D02*
G37*
G36*
X115697Y314945D02*
X114512D01*
X113367Y314638D01*
X112341Y314046D01*
X111503Y313208D01*
X110911Y312182D01*
X110604Y311037D01*
Y309853D01*
X110911Y308708D01*
X111503Y307682D01*
X112341Y306844D01*
X113367Y306252D01*
X114512Y305945D01*
X115697D01*
X116841Y306252D01*
X117867Y306844D01*
X118705Y307682D01*
X119298Y308708D01*
X119604Y309853D01*
Y311037D01*
X119298Y312182D01*
X118705Y313208D01*
X117867Y314046D01*
X116841Y314638D01*
X115697Y314945D01*
D02*
G37*
G36*
X24098Y304000D02*
X20500D01*
Y300402D01*
X21314Y300620D01*
X22386Y301239D01*
X23261Y302114D01*
X23880Y303186D01*
X24098Y304000D01*
D02*
G37*
G36*
X94098D02*
X90500D01*
Y300402D01*
X91314Y300620D01*
X92386Y301239D01*
X93261Y302114D01*
X93880Y303186D01*
X94098Y304000D01*
D02*
G37*
G36*
X88500D02*
X84902D01*
X85120Y303186D01*
X85739Y302114D01*
X86614Y301239D01*
X87686Y300620D01*
X88500Y300402D01*
Y304000D01*
D02*
G37*
G36*
X18500D02*
X14902D01*
X15120Y303186D01*
X15739Y302114D01*
X16614Y301239D01*
X17686Y300620D01*
X18500Y300402D01*
Y304000D01*
D02*
G37*
G36*
X194043Y303641D02*
X186957D01*
X185823Y303491D01*
X184766Y303054D01*
X183859Y302358D01*
X183163Y301450D01*
X182725Y300394D01*
X182576Y299260D01*
X182725Y298126D01*
X183163Y297070D01*
X183859Y296162D01*
X184766Y295466D01*
X185823Y295028D01*
X186957Y294879D01*
X194043D01*
X195177Y295028D01*
X196234Y295466D01*
X197141Y296162D01*
X197837Y297070D01*
X198275Y298126D01*
X198424Y299260D01*
X198275Y300394D01*
X197837Y301450D01*
X197141Y302358D01*
X196234Y303054D01*
X195177Y303491D01*
X194043Y303641D01*
D02*
G37*
G36*
X151092Y295800D02*
X149908D01*
X148763Y295493D01*
X147737Y294901D01*
X146899Y294063D01*
X146307Y293037D01*
X146184Y292580D01*
X137037D01*
X136995Y292737D01*
X136403Y293763D01*
X135565Y294601D01*
X134539Y295193D01*
X133395Y295500D01*
X132210D01*
X131065Y295193D01*
X130039Y294601D01*
X129201Y293763D01*
X128609Y292737D01*
X128567Y292580D01*
X119241D01*
X118705Y293508D01*
X117867Y294346D01*
X116841Y294938D01*
X115697Y295245D01*
X114512D01*
X113367Y294938D01*
X112341Y294346D01*
X111503Y293508D01*
X110911Y292482D01*
X110604Y291337D01*
Y290153D01*
X110911Y289008D01*
X111503Y287982D01*
X112341Y287144D01*
X113367Y286552D01*
X114512Y286245D01*
X115697D01*
X116841Y286552D01*
X117867Y287144D01*
X118705Y287982D01*
X119298Y289008D01*
X119408Y289420D01*
X128567D01*
X128609Y289263D01*
X129201Y288237D01*
X130039Y287399D01*
X131065Y286807D01*
X132210Y286500D01*
X133324D01*
X142947Y276877D01*
X142866Y276737D01*
X142559Y275592D01*
Y274408D01*
X142866Y273263D01*
X143458Y272237D01*
X144296Y271399D01*
X145322Y270807D01*
X146467Y270500D01*
X147652D01*
X148796Y270807D01*
X149822Y271399D01*
X150660Y272237D01*
X151252Y273263D01*
X151294Y273420D01*
X161765D01*
X161807Y273263D01*
X162399Y272237D01*
X163237Y271399D01*
X164263Y270807D01*
X165408Y270500D01*
X166592D01*
X167737Y270807D01*
X168763Y271399D01*
X169601Y272237D01*
X170193Y273263D01*
X170235Y273420D01*
X183285D01*
X183889Y273540D01*
X184402Y273883D01*
X184743Y274224D01*
X184766Y274206D01*
X185823Y273768D01*
X186957Y273619D01*
X194043D01*
X195177Y273768D01*
X196234Y274206D01*
X197141Y274902D01*
X197837Y275810D01*
X198275Y276866D01*
X198424Y278000D01*
X198275Y279134D01*
X197837Y280190D01*
X197141Y281098D01*
X196234Y281794D01*
X195177Y282231D01*
X194043Y282381D01*
X186957D01*
X185823Y282231D01*
X184766Y281794D01*
X183859Y281098D01*
X183163Y280190D01*
X182725Y279134D01*
X182576Y278000D01*
X182701Y277051D01*
X182410Y276653D01*
X182302Y276580D01*
X170235D01*
X170193Y276737D01*
X169601Y277763D01*
X168763Y278601D01*
X167737Y279193D01*
X166592Y279500D01*
X165408D01*
X164263Y279193D01*
X163237Y278601D01*
X162399Y277763D01*
X161807Y276737D01*
X161765Y276580D01*
X151294D01*
X151252Y276737D01*
X150660Y277763D01*
X149822Y278601D01*
X148796Y279193D01*
X147652Y279500D01*
X146467D01*
X145322Y279193D01*
X145182Y279112D01*
X136230Y288064D01*
X136403Y288237D01*
X136995Y289263D01*
X137037Y289420D01*
X146389D01*
X146899Y288537D01*
X147737Y287699D01*
X148763Y287107D01*
X149908Y286800D01*
X151092D01*
X152237Y287107D01*
X153263Y287699D01*
X154101Y288537D01*
X154693Y289563D01*
X155000Y290708D01*
Y291892D01*
X154693Y293037D01*
X154101Y294063D01*
X153263Y294901D01*
X152237Y295493D01*
X151092Y295800D01*
D02*
G37*
G36*
X90092Y299500D02*
X88908D01*
X87763Y299193D01*
X86737Y298601D01*
X85899Y297763D01*
X85307Y296737D01*
X85000Y295592D01*
Y294408D01*
X85307Y293263D01*
X85899Y292237D01*
X86737Y291399D01*
X87763Y290807D01*
X88908Y290500D01*
X90092D01*
X91237Y290807D01*
X92263Y291399D01*
X93101Y292237D01*
X93693Y293263D01*
X94000Y294408D01*
Y295592D01*
X93693Y296737D01*
X93101Y297763D01*
X92263Y298601D01*
X91237Y299193D01*
X90092Y299500D01*
D02*
G37*
G36*
X20092D02*
X18908D01*
X17763Y299193D01*
X16737Y298601D01*
X15899Y297763D01*
X15307Y296737D01*
X15000Y295592D01*
Y294408D01*
X15307Y293263D01*
X15899Y292237D01*
X16737Y291399D01*
X17763Y290807D01*
X18908Y290500D01*
X20092D01*
X21237Y290807D01*
X22263Y291399D01*
X23101Y292237D01*
X23693Y293263D01*
X24000Y294408D01*
Y295592D01*
X23693Y296737D01*
X23101Y297763D01*
X22263Y298601D01*
X21237Y299193D01*
X20092Y299500D01*
D02*
G37*
G36*
X90092Y289500D02*
X88908D01*
X87763Y289193D01*
X86737Y288601D01*
X85899Y287763D01*
X85307Y286737D01*
X85000Y285592D01*
Y284408D01*
X85307Y283263D01*
X85899Y282237D01*
X86737Y281399D01*
X87763Y280807D01*
X88908Y280500D01*
X90092D01*
X91237Y280807D01*
X92263Y281399D01*
X93101Y282237D01*
X93693Y283263D01*
X94000Y284408D01*
Y285592D01*
X93693Y286737D01*
X93101Y287763D01*
X92263Y288601D01*
X91237Y289193D01*
X90092Y289500D01*
D02*
G37*
G36*
X20092D02*
X18908D01*
X17763Y289193D01*
X16737Y288601D01*
X15899Y287763D01*
X15307Y286737D01*
X15000Y285592D01*
Y284408D01*
X15307Y283263D01*
X15899Y282237D01*
X16737Y281399D01*
X17763Y280807D01*
X18908Y280500D01*
X20092D01*
X21237Y280807D01*
X22263Y281399D01*
X23101Y282237D01*
X23693Y283263D01*
X24000Y284408D01*
Y285592D01*
X23693Y286737D01*
X23101Y287763D01*
X22263Y288601D01*
X21237Y289193D01*
X20092Y289500D01*
D02*
G37*
G36*
X105092Y279500D02*
X103908D01*
X102763Y279193D01*
X101737Y278601D01*
X100899Y277763D01*
X100307Y276737D01*
X100265Y276580D01*
X93735D01*
X93693Y276737D01*
X93101Y277763D01*
X92263Y278601D01*
X91237Y279193D01*
X90092Y279500D01*
X88908D01*
X87763Y279193D01*
X86737Y278601D01*
X85899Y277763D01*
X85307Y276737D01*
X85000Y275592D01*
Y274408D01*
X85307Y273263D01*
X85899Y272237D01*
X86737Y271399D01*
X87763Y270807D01*
X88908Y270500D01*
X90092D01*
X91237Y270807D01*
X92263Y271399D01*
X93101Y272237D01*
X93693Y273263D01*
X93735Y273420D01*
X100265D01*
X100307Y273263D01*
X100899Y272237D01*
X101737Y271399D01*
X102763Y270807D01*
X103908Y270500D01*
X105092D01*
X106237Y270807D01*
X107263Y271399D01*
X108101Y272237D01*
X108693Y273263D01*
X108735Y273420D01*
X118845D01*
X140323Y251942D01*
X140836Y251599D01*
X141441Y251479D01*
X156765D01*
X156807Y251322D01*
X157399Y250296D01*
X158237Y249458D01*
X159263Y248866D01*
X160408Y248559D01*
X161592D01*
X162737Y248866D01*
X163763Y249458D01*
X164601Y250296D01*
X165193Y251322D01*
X165500Y252467D01*
Y253651D01*
X165193Y254796D01*
X164601Y255822D01*
X163763Y256660D01*
X162737Y257252D01*
X161592Y257559D01*
X160408D01*
X159263Y257252D01*
X158237Y256660D01*
X157399Y255822D01*
X156807Y254796D01*
X156765Y254639D01*
X142096D01*
X120617Y276117D01*
X120105Y276460D01*
X119500Y276580D01*
X108735D01*
X108693Y276737D01*
X108101Y277763D01*
X107263Y278601D01*
X106237Y279193D01*
X105092Y279500D01*
D02*
G37*
G36*
X20092D02*
X18908D01*
X17763Y279193D01*
X16737Y278601D01*
X15899Y277763D01*
X15307Y276737D01*
X15000Y275592D01*
Y274408D01*
X15307Y273263D01*
X15899Y272237D01*
X16737Y271399D01*
X17763Y270807D01*
X18908Y270500D01*
X20092D01*
X21237Y270807D01*
X22263Y271399D01*
X23101Y272237D01*
X23693Y273263D01*
X24000Y274408D01*
Y275592D01*
X23693Y276737D01*
X23101Y277763D01*
X22263Y278601D01*
X21237Y279193D01*
X20092Y279500D01*
D02*
G37*
G36*
X90092Y269500D02*
X88908D01*
X87763Y269193D01*
X86737Y268601D01*
X85899Y267763D01*
X85307Y266737D01*
X85000Y265592D01*
Y264408D01*
X85307Y263263D01*
X85899Y262237D01*
X86737Y261399D01*
X87763Y260807D01*
X88908Y260500D01*
X90092D01*
X91237Y260807D01*
X92263Y261399D01*
X93101Y262237D01*
X93693Y263263D01*
X94000Y264408D01*
Y265592D01*
X93693Y266737D01*
X93101Y267763D01*
X92263Y268601D01*
X91237Y269193D01*
X90092Y269500D01*
D02*
G37*
G36*
X20092D02*
X18908D01*
X17763Y269193D01*
X16737Y268601D01*
X15899Y267763D01*
X15307Y266737D01*
X15000Y265592D01*
Y264408D01*
X15307Y263263D01*
X15899Y262237D01*
X16737Y261399D01*
X17763Y260807D01*
X18908Y260500D01*
X20092D01*
X21237Y260807D01*
X22263Y261399D01*
X23101Y262237D01*
X23693Y263263D01*
X24000Y264408D01*
Y265592D01*
X23693Y266737D01*
X23101Y267763D01*
X22263Y268601D01*
X21237Y269193D01*
X20092Y269500D01*
D02*
G37*
G36*
X194043Y259940D02*
X186957D01*
X185823Y259791D01*
X184766Y259353D01*
X183859Y258657D01*
X183163Y257749D01*
X182725Y256693D01*
X182576Y255559D01*
X182725Y254425D01*
X183163Y253369D01*
X183859Y252461D01*
X184766Y251765D01*
X185823Y251328D01*
X186957Y251178D01*
X194043D01*
X195177Y251328D01*
X196234Y251765D01*
X197141Y252461D01*
X197837Y253369D01*
X198275Y254425D01*
X198424Y255559D01*
X198275Y256693D01*
X197837Y257749D01*
X197141Y258657D01*
X196234Y259353D01*
X195177Y259791D01*
X194043Y259940D01*
D02*
G37*
G36*
X90092Y259500D02*
X88908D01*
X87763Y259193D01*
X86737Y258601D01*
X85899Y257763D01*
X85307Y256737D01*
X85000Y255592D01*
Y254408D01*
X85307Y253263D01*
X85899Y252237D01*
X86737Y251399D01*
X87763Y250807D01*
X88908Y250500D01*
X90092D01*
X91237Y250807D01*
X92263Y251399D01*
X93101Y252237D01*
X93693Y253263D01*
X94000Y254408D01*
Y255592D01*
X93693Y256737D01*
X93101Y257763D01*
X92263Y258601D01*
X91237Y259193D01*
X90092Y259500D01*
D02*
G37*
G36*
X20092D02*
X18908D01*
X17763Y259193D01*
X16737Y258601D01*
X15899Y257763D01*
X15307Y256737D01*
X15000Y255592D01*
Y254408D01*
X15307Y253263D01*
X15899Y252237D01*
X16737Y251399D01*
X17763Y250807D01*
X18908Y250500D01*
X20092D01*
X21237Y250807D01*
X22263Y251399D01*
X23101Y252237D01*
X23693Y253263D01*
X24000Y254408D01*
Y255592D01*
X23693Y256737D01*
X23101Y257763D01*
X22263Y258601D01*
X21237Y259193D01*
X20092Y259500D01*
D02*
G37*
G36*
X114592Y257500D02*
X113408D01*
X112263Y257193D01*
X111237Y256601D01*
X110399Y255763D01*
X109807Y254737D01*
X109500Y253592D01*
Y252408D01*
X109807Y251263D01*
X110399Y250237D01*
X111237Y249399D01*
X112263Y248807D01*
X113408Y248500D01*
X114592D01*
X115737Y248807D01*
X116763Y249399D01*
X117601Y250237D01*
X118193Y251263D01*
X118500Y252408D01*
Y253592D01*
X118193Y254737D01*
X117601Y255763D01*
X116763Y256601D01*
X115737Y257193D01*
X114592Y257500D01*
D02*
G37*
G36*
X90092Y249500D02*
X88908D01*
X87763Y249193D01*
X86737Y248601D01*
X85899Y247763D01*
X85307Y246737D01*
X85000Y245592D01*
Y244408D01*
X85307Y243263D01*
X85899Y242237D01*
X86737Y241399D01*
X87763Y240807D01*
X88908Y240500D01*
X90092D01*
X91237Y240807D01*
X92263Y241399D01*
X93101Y242237D01*
X93693Y243263D01*
X94000Y244408D01*
Y245592D01*
X93693Y246737D01*
X93101Y247763D01*
X92263Y248601D01*
X91237Y249193D01*
X90092Y249500D01*
D02*
G37*
G36*
X20092D02*
X18908D01*
X17763Y249193D01*
X16737Y248601D01*
X15899Y247763D01*
X15307Y246737D01*
X15000Y245592D01*
Y244408D01*
X15307Y243263D01*
X15899Y242237D01*
X16737Y241399D01*
X17763Y240807D01*
X18908Y240500D01*
X20092D01*
X21237Y240807D01*
X22263Y241399D01*
X23101Y242237D01*
X23693Y243263D01*
X24000Y244408D01*
Y245592D01*
X23693Y246737D01*
X23101Y247763D01*
X22263Y248601D01*
X21237Y249193D01*
X20092Y249500D01*
D02*
G37*
G36*
X140700Y239700D02*
X137000D01*
Y236000D01*
X140700D01*
Y239700D01*
D02*
G37*
G36*
X135000D02*
X131300D01*
Y236000D01*
X135000D01*
Y239700D01*
D02*
G37*
G36*
X190200Y238700D02*
X186500D01*
Y235000D01*
X190200D01*
Y238700D01*
D02*
G37*
G36*
X184500D02*
X180800D01*
Y235000D01*
X184500D01*
Y238700D01*
D02*
G37*
G36*
X90092Y239500D02*
X88908D01*
X87763Y239193D01*
X86737Y238601D01*
X85899Y237763D01*
X85307Y236737D01*
X85000Y235592D01*
Y234408D01*
X85307Y233263D01*
X85899Y232237D01*
X86737Y231399D01*
X87763Y230807D01*
X88908Y230500D01*
X90092D01*
X91237Y230807D01*
X92263Y231399D01*
X93101Y232237D01*
X93693Y233263D01*
X94000Y234408D01*
Y235592D01*
X93693Y236737D01*
X93101Y237763D01*
X92263Y238601D01*
X91237Y239193D01*
X90092Y239500D01*
D02*
G37*
G36*
X20092D02*
X18908D01*
X17763Y239193D01*
X16737Y238601D01*
X15899Y237763D01*
X15307Y236737D01*
X15000Y235592D01*
Y234408D01*
X15307Y233263D01*
X15899Y232237D01*
X16737Y231399D01*
X17763Y230807D01*
X18908Y230500D01*
X20092D01*
X21237Y230807D01*
X22263Y231399D01*
X23101Y232237D01*
X23693Y233263D01*
X24000Y234408D01*
Y235592D01*
X23693Y236737D01*
X23101Y237763D01*
X22263Y238601D01*
X21237Y239193D01*
X20092Y239500D01*
D02*
G37*
G36*
X140700Y234000D02*
X137000D01*
Y230300D01*
X140700D01*
Y234000D01*
D02*
G37*
G36*
X135000D02*
X131300D01*
Y230300D01*
X135000D01*
Y234000D01*
D02*
G37*
G36*
X190200Y233000D02*
X186500D01*
Y229300D01*
X190200D01*
Y233000D01*
D02*
G37*
G36*
X184500D02*
X180800D01*
Y229300D01*
X184500D01*
Y233000D01*
D02*
G37*
G36*
X136592Y229500D02*
X135408D01*
X134263Y229193D01*
X133237Y228601D01*
X132399Y227763D01*
X131807Y226737D01*
X131500Y225592D01*
Y224408D01*
X131807Y223263D01*
X131888Y223123D01*
X120786Y212021D01*
X118235D01*
X118193Y212178D01*
X117601Y213204D01*
X116763Y214042D01*
X115737Y214634D01*
X114592Y214941D01*
X113408D01*
X112263Y214634D01*
X111237Y214042D01*
X110399Y213204D01*
X109807Y212178D01*
X109500Y211033D01*
Y209848D01*
X109807Y208704D01*
X110399Y207678D01*
X111237Y206840D01*
X112263Y206248D01*
X113408Y205941D01*
X114592D01*
X115737Y206248D01*
X116763Y206840D01*
X117601Y207678D01*
X118193Y208704D01*
X118235Y208861D01*
X121441D01*
X122046Y208981D01*
X122558Y209324D01*
X134123Y220888D01*
X134263Y220807D01*
X135408Y220500D01*
X136592D01*
X137737Y220807D01*
X138763Y221399D01*
X139601Y222237D01*
X140193Y223263D01*
X140500Y224408D01*
Y225592D01*
X140193Y226737D01*
X139601Y227763D01*
X138763Y228601D01*
X137737Y229193D01*
X136592Y229500D01*
D02*
G37*
G36*
X90092D02*
X88908D01*
X87763Y229193D01*
X86737Y228601D01*
X85899Y227763D01*
X85307Y226737D01*
X85000Y225592D01*
Y224408D01*
X85307Y223263D01*
X85899Y222237D01*
X86737Y221399D01*
X87763Y220807D01*
X88908Y220500D01*
X90092D01*
X91237Y220807D01*
X92263Y221399D01*
X93101Y222237D01*
X93693Y223263D01*
X94000Y224408D01*
Y225592D01*
X93693Y226737D01*
X93101Y227763D01*
X92263Y228601D01*
X91237Y229193D01*
X90092Y229500D01*
D02*
G37*
G36*
X20092D02*
X18908D01*
X17763Y229193D01*
X16737Y228601D01*
X15899Y227763D01*
X15307Y226737D01*
X15000Y225592D01*
Y224408D01*
X15307Y223263D01*
X15899Y222237D01*
X16737Y221399D01*
X17763Y220807D01*
X18908Y220500D01*
X20092D01*
X21237Y220807D01*
X22263Y221399D01*
X23101Y222237D01*
X23693Y223263D01*
X24000Y224408D01*
Y225592D01*
X23693Y226737D01*
X23101Y227763D01*
X22263Y228601D01*
X21237Y229193D01*
X20092Y229500D01*
D02*
G37*
G36*
X186092Y228500D02*
X184908D01*
X183763Y228193D01*
X182737Y227601D01*
X181899Y226763D01*
X181307Y225737D01*
X181000Y224592D01*
Y223408D01*
X181307Y222263D01*
X181388Y222123D01*
X171345Y212080D01*
X165235D01*
X165193Y212237D01*
X164601Y213263D01*
X163763Y214101D01*
X162737Y214693D01*
X161592Y215000D01*
X160408D01*
X159263Y214693D01*
X158237Y214101D01*
X157399Y213263D01*
X156807Y212237D01*
X156500Y211092D01*
Y209908D01*
X156807Y208763D01*
X157399Y207737D01*
X158237Y206899D01*
X159263Y206307D01*
X160408Y206000D01*
X161592D01*
X162737Y206307D01*
X163763Y206899D01*
X164601Y207737D01*
X165193Y208763D01*
X165235Y208920D01*
X172000D01*
X172605Y209040D01*
X173117Y209383D01*
X183623Y219888D01*
X183763Y219807D01*
X184908Y219500D01*
X186092D01*
X187237Y219807D01*
X188263Y220399D01*
X189101Y221237D01*
X189693Y222263D01*
X190000Y223408D01*
Y224592D01*
X189693Y225737D01*
X189101Y226763D01*
X188263Y227601D01*
X187237Y228193D01*
X186092Y228500D01*
D02*
G37*
G36*
X90092Y219500D02*
X88908D01*
X87763Y219193D01*
X86737Y218601D01*
X85899Y217763D01*
X85307Y216737D01*
X85000Y215592D01*
Y214408D01*
X85307Y213263D01*
X85899Y212237D01*
X86737Y211399D01*
X87763Y210807D01*
X88908Y210500D01*
X90092D01*
X91237Y210807D01*
X92263Y211399D01*
X93101Y212237D01*
X93693Y213263D01*
X94000Y214408D01*
Y215592D01*
X93693Y216737D01*
X93101Y217763D01*
X92263Y218601D01*
X91237Y219193D01*
X90092Y219500D01*
D02*
G37*
G36*
X20092D02*
X18908D01*
X17763Y219193D01*
X16737Y218601D01*
X15899Y217763D01*
X15307Y216737D01*
X15000Y215592D01*
Y214408D01*
X15307Y213263D01*
X15899Y212237D01*
X16737Y211399D01*
X17763Y210807D01*
X18908Y210500D01*
X20092D01*
X21237Y210807D01*
X22263Y211399D01*
X23101Y212237D01*
X23693Y213263D01*
X24000Y214408D01*
Y215592D01*
X23693Y216737D01*
X23101Y217763D01*
X22263Y218601D01*
X21237Y219193D01*
X20092Y219500D01*
D02*
G37*
G36*
X90092Y209500D02*
X88908D01*
X87763Y209193D01*
X86737Y208601D01*
X85899Y207763D01*
X85307Y206737D01*
X85000Y205592D01*
Y204408D01*
X85307Y203263D01*
X85899Y202237D01*
X86737Y201399D01*
X87763Y200807D01*
X88908Y200500D01*
X90092D01*
X91237Y200807D01*
X92263Y201399D01*
X93101Y202237D01*
X93693Y203263D01*
X94000Y204408D01*
Y205592D01*
X93693Y206737D01*
X93101Y207763D01*
X92263Y208601D01*
X91237Y209193D01*
X90092Y209500D01*
D02*
G37*
G36*
X20092D02*
X18908D01*
X17763Y209193D01*
X16737Y208601D01*
X15899Y207763D01*
X15307Y206737D01*
X15000Y205592D01*
Y204408D01*
X15307Y203263D01*
X15899Y202237D01*
X16737Y201399D01*
X17763Y200807D01*
X18908Y200500D01*
X20092D01*
X21237Y200807D01*
X22263Y201399D01*
X23101Y202237D01*
X23693Y203263D01*
X24000Y204408D01*
Y205592D01*
X23693Y206737D01*
X23101Y207763D01*
X22263Y208601D01*
X21237Y209193D01*
X20092Y209500D01*
D02*
G37*
G36*
X90092Y199500D02*
X88908D01*
X87763Y199193D01*
X86737Y198601D01*
X85899Y197763D01*
X85307Y196737D01*
X85000Y195592D01*
Y194408D01*
X85307Y193263D01*
X85899Y192237D01*
X86737Y191399D01*
X87763Y190807D01*
X88908Y190500D01*
X90092D01*
X91237Y190807D01*
X92263Y191399D01*
X93101Y192237D01*
X93693Y193263D01*
X94000Y194408D01*
Y195592D01*
X93693Y196737D01*
X93101Y197763D01*
X92263Y198601D01*
X91237Y199193D01*
X90092Y199500D01*
D02*
G37*
G36*
X20092D02*
X18908D01*
X17763Y199193D01*
X16737Y198601D01*
X15899Y197763D01*
X15307Y196737D01*
X15000Y195592D01*
Y194408D01*
X15307Y193263D01*
X15899Y192237D01*
X16737Y191399D01*
X17763Y190807D01*
X18908Y190500D01*
X20092D01*
X21237Y190807D01*
X22263Y191399D01*
X23101Y192237D01*
X23693Y193263D01*
X24000Y194408D01*
Y195592D01*
X23693Y196737D01*
X23101Y197763D01*
X22263Y198601D01*
X21237Y199193D01*
X20092Y199500D01*
D02*
G37*
G36*
X90092Y189500D02*
X88908D01*
X87763Y189193D01*
X86737Y188601D01*
X85899Y187763D01*
X85307Y186737D01*
X85265Y186580D01*
X82000D01*
X81395Y186460D01*
X80883Y186117D01*
X46883Y152118D01*
X46540Y151605D01*
X46420Y151000D01*
Y86655D01*
X25345Y65580D01*
X20235D01*
X20193Y65737D01*
X19601Y66763D01*
X18763Y67601D01*
X17737Y68193D01*
X16592Y68500D01*
X15408D01*
X14263Y68193D01*
X13237Y67601D01*
X12399Y66763D01*
X11807Y65737D01*
X11500Y64592D01*
Y63408D01*
X11807Y62263D01*
X12399Y61237D01*
X13237Y60399D01*
X14263Y59807D01*
X15408Y59500D01*
X16592D01*
X17737Y59807D01*
X18763Y60399D01*
X19601Y61237D01*
X20193Y62263D01*
X20235Y62420D01*
X26000D01*
X26605Y62540D01*
X27117Y62883D01*
X49117Y84882D01*
X49460Y85395D01*
X49580Y86000D01*
Y150345D01*
X82655Y183420D01*
X85265D01*
X85307Y183263D01*
X85899Y182237D01*
X86737Y181399D01*
X87763Y180807D01*
X88908Y180500D01*
X90092D01*
X91237Y180807D01*
X92263Y181399D01*
X93101Y182237D01*
X93693Y183263D01*
X94000Y184408D01*
Y185592D01*
X93693Y186737D01*
X93101Y187763D01*
X92263Y188601D01*
X91237Y189193D01*
X90092Y189500D01*
D02*
G37*
G36*
X20092D02*
X18908D01*
X17763Y189193D01*
X16737Y188601D01*
X15899Y187763D01*
X15307Y186737D01*
X15000Y185592D01*
Y184408D01*
X15307Y183263D01*
X15899Y182237D01*
X16737Y181399D01*
X17763Y180807D01*
X18908Y180500D01*
X20092D01*
X21237Y180807D01*
X22263Y181399D01*
X23101Y182237D01*
X23693Y183263D01*
X24000Y184408D01*
Y185592D01*
X23693Y186737D01*
X23101Y187763D01*
X22263Y188601D01*
X21237Y189193D01*
X20092Y189500D01*
D02*
G37*
G36*
X90092Y179500D02*
X88908D01*
X87763Y179193D01*
X86737Y178601D01*
X85899Y177763D01*
X85307Y176737D01*
X85265Y176580D01*
X80500D01*
X79895Y176460D01*
X79382Y176118D01*
X53382Y150118D01*
X53040Y149605D01*
X52920Y149000D01*
Y83155D01*
X25345Y55580D01*
X20235D01*
X20193Y55737D01*
X19601Y56763D01*
X18763Y57601D01*
X17737Y58193D01*
X16592Y58500D01*
X15408D01*
X14263Y58193D01*
X13237Y57601D01*
X12399Y56763D01*
X11807Y55737D01*
X11500Y54592D01*
Y53408D01*
X11807Y52263D01*
X12399Y51237D01*
X13237Y50399D01*
X14263Y49807D01*
X15408Y49500D01*
X16592D01*
X17737Y49807D01*
X18763Y50399D01*
X19601Y51237D01*
X20193Y52263D01*
X20235Y52420D01*
X26000D01*
X26605Y52540D01*
X27117Y52882D01*
X55617Y81383D01*
X55960Y81895D01*
X56080Y82500D01*
Y148345D01*
X81155Y173420D01*
X85265D01*
X85307Y173263D01*
X85899Y172237D01*
X86737Y171399D01*
X87763Y170807D01*
X88908Y170500D01*
X90092D01*
X91237Y170807D01*
X92263Y171399D01*
X93101Y172237D01*
X93693Y173263D01*
X94000Y174408D01*
Y175592D01*
X93693Y176737D01*
X93101Y177763D01*
X92263Y178601D01*
X91237Y179193D01*
X90092Y179500D01*
D02*
G37*
G36*
X20092D02*
X18908D01*
X17763Y179193D01*
X16737Y178601D01*
X15899Y177763D01*
X15307Y176737D01*
X15000Y175592D01*
Y174408D01*
X15307Y173263D01*
X15899Y172237D01*
X16737Y171399D01*
X17763Y170807D01*
X18908Y170500D01*
X20092D01*
X21237Y170807D01*
X22263Y171399D01*
X23101Y172237D01*
X23693Y173263D01*
X24000Y174408D01*
Y175592D01*
X23693Y176737D01*
X23101Y177763D01*
X22263Y178601D01*
X21237Y179193D01*
X20092Y179500D01*
D02*
G37*
G36*
X90092Y169500D02*
X88908D01*
X87763Y169193D01*
X86737Y168601D01*
X85899Y167763D01*
X85307Y166737D01*
X85000Y165592D01*
Y164408D01*
X85307Y163263D01*
X85899Y162237D01*
X86737Y161399D01*
X87763Y160807D01*
X88908Y160500D01*
X90092D01*
X91237Y160807D01*
X92263Y161399D01*
X93101Y162237D01*
X93693Y163263D01*
X94000Y164408D01*
Y165592D01*
X93693Y166737D01*
X93101Y167763D01*
X92263Y168601D01*
X91237Y169193D01*
X90092Y169500D01*
D02*
G37*
G36*
X20092D02*
X18908D01*
X17763Y169193D01*
X16737Y168601D01*
X15899Y167763D01*
X15307Y166737D01*
X15000Y165592D01*
Y164408D01*
X15307Y163263D01*
X15899Y162237D01*
X16737Y161399D01*
X17763Y160807D01*
X18908Y160500D01*
X20092D01*
X21237Y160807D01*
X22263Y161399D01*
X23101Y162237D01*
X23693Y163263D01*
X24000Y164408D01*
Y165592D01*
X23693Y166737D01*
X23101Y167763D01*
X22263Y168601D01*
X21237Y169193D01*
X20092Y169500D01*
D02*
G37*
G36*
X90092Y159500D02*
X88908D01*
X87763Y159193D01*
X86737Y158601D01*
X85899Y157763D01*
X85307Y156737D01*
X85000Y155592D01*
Y154408D01*
X85307Y153263D01*
X85899Y152237D01*
X86737Y151399D01*
X87763Y150807D01*
X88908Y150500D01*
X90092D01*
X91237Y150807D01*
X92263Y151399D01*
X93101Y152237D01*
X93693Y153263D01*
X94000Y154408D01*
Y155592D01*
X93693Y156737D01*
X93101Y157763D01*
X92263Y158601D01*
X91237Y159193D01*
X90092Y159500D01*
D02*
G37*
G36*
X20092D02*
X18908D01*
X17763Y159193D01*
X16737Y158601D01*
X15899Y157763D01*
X15307Y156737D01*
X15000Y155592D01*
Y154408D01*
X15307Y153263D01*
X15899Y152237D01*
X16737Y151399D01*
X17763Y150807D01*
X18908Y150500D01*
X20092D01*
X21237Y150807D01*
X22263Y151399D01*
X23101Y152237D01*
X23693Y153263D01*
X24000Y154408D01*
Y155592D01*
X23693Y156737D01*
X23101Y157763D01*
X22263Y158601D01*
X21237Y159193D01*
X20092Y159500D01*
D02*
G37*
G36*
X90092Y149500D02*
X88908D01*
X87763Y149193D01*
X86737Y148601D01*
X85899Y147763D01*
X85307Y146737D01*
X85000Y145592D01*
Y144408D01*
X85307Y143263D01*
X85899Y142237D01*
X86737Y141399D01*
X87763Y140807D01*
X88908Y140500D01*
X90092D01*
X91237Y140807D01*
X92263Y141399D01*
X93101Y142237D01*
X93693Y143263D01*
X94000Y144408D01*
Y145592D01*
X93693Y146737D01*
X93101Y147763D01*
X92263Y148601D01*
X91237Y149193D01*
X90092Y149500D01*
D02*
G37*
G36*
X20092D02*
X18908D01*
X17763Y149193D01*
X16737Y148601D01*
X15899Y147763D01*
X15307Y146737D01*
X15000Y145592D01*
Y144408D01*
X15307Y143263D01*
X15899Y142237D01*
X16737Y141399D01*
X17763Y140807D01*
X18908Y140500D01*
X20092D01*
X21237Y140807D01*
X22263Y141399D01*
X23101Y142237D01*
X23693Y143263D01*
X24000Y144408D01*
Y145592D01*
X23693Y146737D01*
X23101Y147763D01*
X22263Y148601D01*
X21237Y149193D01*
X20092Y149500D01*
D02*
G37*
G36*
X90092Y139500D02*
X88908D01*
X87763Y139193D01*
X86737Y138601D01*
X85899Y137763D01*
X85307Y136737D01*
X85000Y135592D01*
Y134408D01*
X85307Y133263D01*
X85899Y132237D01*
X86737Y131399D01*
X87763Y130807D01*
X88908Y130500D01*
X90092D01*
X91237Y130807D01*
X92263Y131399D01*
X93101Y132237D01*
X93693Y133263D01*
X94000Y134408D01*
Y135592D01*
X93693Y136737D01*
X93101Y137763D01*
X92263Y138601D01*
X91237Y139193D01*
X90092Y139500D01*
D02*
G37*
G36*
X20092D02*
X18908D01*
X17763Y139193D01*
X16737Y138601D01*
X15899Y137763D01*
X15307Y136737D01*
X15000Y135592D01*
Y134408D01*
X15307Y133263D01*
X15899Y132237D01*
X16737Y131399D01*
X17763Y130807D01*
X18908Y130500D01*
X20092D01*
X21237Y130807D01*
X22263Y131399D01*
X23101Y132237D01*
X23693Y133263D01*
X24000Y134408D01*
Y135592D01*
X23693Y136737D01*
X23101Y137763D01*
X22263Y138601D01*
X21237Y139193D01*
X20092Y139500D01*
D02*
G37*
G36*
X94000Y129500D02*
X85000D01*
Y120500D01*
X94000D01*
Y129500D01*
D02*
G37*
G36*
X24000D02*
X15000D01*
Y120500D01*
X24000D01*
Y129500D01*
D02*
G37*
G36*
X179719Y83130D02*
X178850D01*
X178010Y82905D01*
X177258Y82471D01*
X176644Y81856D01*
X176209Y81104D01*
X175984Y80264D01*
Y79396D01*
X176209Y78556D01*
X176644Y77804D01*
X177258Y77189D01*
X178010Y76755D01*
X178850Y76530D01*
X179719D01*
X180558Y76755D01*
X181310Y77189D01*
X181925Y77804D01*
X182359Y78556D01*
X182584Y79396D01*
Y80264D01*
X182359Y81104D01*
X181925Y81856D01*
X181310Y82471D01*
X180558Y82905D01*
X179719Y83130D01*
D02*
G37*
G36*
X17000Y78598D02*
Y75000D01*
X20598D01*
X20380Y75814D01*
X19761Y76886D01*
X18886Y77761D01*
X17814Y78380D01*
X17000Y78598D01*
D02*
G37*
G36*
X15000D02*
X14186Y78380D01*
X13114Y77761D01*
X12239Y76886D01*
X11620Y75814D01*
X11402Y75000D01*
X15000D01*
Y78598D01*
D02*
G37*
G36*
X126592Y78500D02*
X125408D01*
X124263Y78193D01*
X123237Y77601D01*
X122399Y76763D01*
X121807Y75737D01*
X121500Y74592D01*
Y73408D01*
X121807Y72263D01*
X122399Y71237D01*
X123237Y70399D01*
X124263Y69807D01*
X125408Y69500D01*
X126592D01*
X127737Y69807D01*
X128763Y70399D01*
X129601Y71237D01*
X130193Y72263D01*
X130500Y73408D01*
Y74592D01*
X130193Y75737D01*
X129601Y76763D01*
X128763Y77601D01*
X127737Y78193D01*
X126592Y78500D01*
D02*
G37*
G36*
X20598Y73000D02*
X17000D01*
Y69402D01*
X17814Y69620D01*
X18886Y70239D01*
X19761Y71114D01*
X20380Y72186D01*
X20598Y73000D01*
D02*
G37*
G36*
X15000D02*
X11402D01*
X11620Y72186D01*
X12239Y71114D01*
X13114Y70239D01*
X14186Y69620D01*
X15000Y69402D01*
Y73000D01*
D02*
G37*
G36*
X187593Y72519D02*
X186408D01*
X185264Y72212D01*
X184238Y71620D01*
X183400Y70782D01*
X182807Y69756D01*
X182765Y69599D01*
X158019D01*
X157414Y69479D01*
X156901Y69136D01*
X155877Y68112D01*
X155737Y68193D01*
X154592Y68500D01*
X153408D01*
X152263Y68193D01*
X151237Y67601D01*
X150399Y66763D01*
X149807Y65737D01*
X149765Y65580D01*
X130235D01*
X130193Y65737D01*
X129601Y66763D01*
X128763Y67601D01*
X127737Y68193D01*
X126592Y68500D01*
X125408D01*
X124263Y68193D01*
X123237Y67601D01*
X122399Y66763D01*
X121807Y65737D01*
X121500Y64592D01*
Y63408D01*
X121807Y62263D01*
X122399Y61237D01*
X123237Y60399D01*
X124263Y59807D01*
X125408Y59500D01*
X126592D01*
X127737Y59807D01*
X128763Y60399D01*
X129601Y61237D01*
X130193Y62263D01*
X130235Y62420D01*
X149765D01*
X149807Y62263D01*
X150399Y61237D01*
X151237Y60399D01*
X152263Y59807D01*
X153408Y59500D01*
X154592D01*
X155737Y59807D01*
X156763Y60399D01*
X157601Y61237D01*
X158193Y62263D01*
X158500Y63408D01*
Y64592D01*
X158193Y65737D01*
X158112Y65877D01*
X158674Y66439D01*
X182765D01*
X182807Y66282D01*
X183400Y65256D01*
X184238Y64418D01*
X185264Y63826D01*
X186408Y63519D01*
X187593D01*
X188738Y63826D01*
X189764Y64418D01*
X190602Y65256D01*
X191194Y66282D01*
X191501Y67427D01*
Y68611D01*
X191194Y69756D01*
X190602Y70782D01*
X189764Y71620D01*
X188738Y72212D01*
X187593Y72519D01*
D02*
G37*
G36*
Y60708D02*
X186408D01*
X185264Y60401D01*
X184238Y59809D01*
X183400Y58971D01*
X182807Y57945D01*
X182765Y57788D01*
X156879D01*
X156551Y57723D01*
X155737Y58193D01*
X154592Y58500D01*
X153408D01*
X152263Y58193D01*
X151237Y57601D01*
X150399Y56763D01*
X149807Y55737D01*
X149765Y55580D01*
X130235D01*
X130193Y55737D01*
X129601Y56763D01*
X128763Y57601D01*
X127737Y58193D01*
X126592Y58500D01*
X125408D01*
X124263Y58193D01*
X123237Y57601D01*
X122399Y56763D01*
X121807Y55737D01*
X121500Y54592D01*
Y53408D01*
X121807Y52263D01*
X122399Y51237D01*
X123237Y50399D01*
X124263Y49807D01*
X125408Y49500D01*
X126592D01*
X127737Y49807D01*
X128763Y50399D01*
X129601Y51237D01*
X130193Y52263D01*
X130235Y52420D01*
X149765D01*
X149807Y52263D01*
X150399Y51237D01*
X151237Y50399D01*
X152263Y49807D01*
X153408Y49500D01*
X154592D01*
X155737Y49807D01*
X156763Y50399D01*
X157601Y51237D01*
X158193Y52263D01*
X158500Y53408D01*
Y54592D01*
X158527Y54628D01*
X182765D01*
X182807Y54471D01*
X183400Y53445D01*
X184238Y52607D01*
X185264Y52014D01*
X186408Y51708D01*
X187593D01*
X188738Y52014D01*
X189764Y52607D01*
X190602Y53445D01*
X191194Y54471D01*
X191501Y55615D01*
Y56800D01*
X191194Y57945D01*
X190602Y58971D01*
X189764Y59809D01*
X188738Y60401D01*
X187593Y60708D01*
D02*
G37*
G36*
Y48897D02*
X186408D01*
X185264Y48590D01*
X184238Y47998D01*
X183400Y47160D01*
X182807Y46134D01*
X182659Y45580D01*
X158235D01*
X158193Y45737D01*
X157601Y46763D01*
X156763Y47601D01*
X155737Y48193D01*
X154592Y48500D01*
X153408D01*
X152263Y48193D01*
X151237Y47601D01*
X150399Y46763D01*
X149807Y45737D01*
X149765Y45580D01*
X130235D01*
X130193Y45737D01*
X129601Y46763D01*
X128763Y47601D01*
X127737Y48193D01*
X126592Y48500D01*
X125408D01*
X124263Y48193D01*
X123237Y47601D01*
X122399Y46763D01*
X121807Y45737D01*
X121500Y44592D01*
Y43408D01*
X121807Y42263D01*
X122399Y41237D01*
X123237Y40399D01*
X124263Y39807D01*
X125408Y39500D01*
X126592D01*
X127737Y39807D01*
X128763Y40399D01*
X129601Y41237D01*
X130193Y42263D01*
X130235Y42420D01*
X149765D01*
X149807Y42263D01*
X150399Y41237D01*
X151237Y40399D01*
X152263Y39807D01*
X153408Y39500D01*
X154592D01*
X155737Y39807D01*
X156763Y40399D01*
X157601Y41237D01*
X158193Y42263D01*
X158235Y42420D01*
X182946D01*
X183400Y41634D01*
X184238Y40796D01*
X185264Y40203D01*
X186408Y39897D01*
X187593D01*
X188738Y40203D01*
X189764Y40796D01*
X190602Y41634D01*
X191194Y42660D01*
X191501Y43804D01*
Y44989D01*
X191194Y46134D01*
X190602Y47160D01*
X189764Y47998D01*
X188738Y48590D01*
X187593Y48897D01*
D02*
G37*
G36*
X16592Y48500D02*
X15408D01*
X14263Y48193D01*
X13237Y47601D01*
X12399Y46763D01*
X11807Y45737D01*
X11500Y44592D01*
Y43408D01*
X11807Y42263D01*
X12399Y41237D01*
X13237Y40399D01*
X14263Y39807D01*
X15408Y39500D01*
X16592D01*
X17737Y39807D01*
X18763Y40399D01*
X19601Y41237D01*
X20193Y42263D01*
X20500Y43408D01*
Y44592D01*
X20193Y45737D01*
X19601Y46763D01*
X18763Y47601D01*
X17737Y48193D01*
X16592Y48500D01*
D02*
G37*
G36*
X158500Y38500D02*
X149500D01*
Y35580D01*
X130235D01*
X130193Y35737D01*
X129601Y36763D01*
X128763Y37601D01*
X127737Y38193D01*
X126592Y38500D01*
X125408D01*
X124263Y38193D01*
X123237Y37601D01*
X122399Y36763D01*
X121807Y35737D01*
X121500Y34592D01*
Y33408D01*
X121807Y32263D01*
X122399Y31237D01*
X123237Y30399D01*
X124263Y29807D01*
X125408Y29500D01*
X126592D01*
X127737Y29807D01*
X128763Y30399D01*
X129601Y31237D01*
X130193Y32263D01*
X130235Y32420D01*
X149500D01*
Y29500D01*
X158500D01*
Y31005D01*
X182501D01*
Y28086D01*
X191501D01*
Y37086D01*
X182501D01*
Y34166D01*
X158500D01*
Y38500D01*
D02*
G37*
G36*
X16592D02*
X15408D01*
X14263Y38193D01*
X13237Y37601D01*
X12399Y36763D01*
X11807Y35737D01*
X11500Y34592D01*
Y33408D01*
X11807Y32263D01*
X12399Y31237D01*
X13237Y30399D01*
X14263Y29807D01*
X15408Y29500D01*
X16592D01*
X17737Y29807D01*
X18763Y30399D01*
X19601Y31237D01*
X20193Y32263D01*
X20500Y33408D01*
Y34592D01*
X20193Y35737D01*
X19601Y36763D01*
X18763Y37601D01*
X17737Y38193D01*
X16592Y38500D01*
D02*
G37*
G36*
X179719Y24075D02*
X178850D01*
X178010Y23850D01*
X177258Y23415D01*
X176644Y22801D01*
X176209Y22049D01*
X175984Y21209D01*
Y20340D01*
X176209Y19501D01*
X176644Y18749D01*
X177258Y18134D01*
X178010Y17700D01*
X178850Y17475D01*
X179719D01*
X180558Y17700D01*
X181310Y18134D01*
X181925Y18749D01*
X182359Y19501D01*
X182584Y20340D01*
Y21209D01*
X182359Y22049D01*
X181925Y22801D01*
X181310Y23415D01*
X180558Y23850D01*
X179719Y24075D01*
D02*
G37*
%LPD*%
D23*
X121441Y210441D02*
X136000Y225000D01*
X114000Y210441D02*
X121441D01*
X186285Y278000D02*
X190500D01*
X166000Y275000D02*
X183285D01*
X186285Y278000D01*
X115359Y291000D02*
X132802D01*
X115104Y290745D02*
X115359Y291000D01*
X132802D02*
X150200D01*
X150500Y291300D01*
X133931Y288128D02*
Y289871D01*
X132802Y291000D02*
X133931Y289871D01*
Y288128D02*
X147059Y275000D01*
X104500D02*
X119500D01*
X141441Y253059D02*
X161000D01*
X119500Y275000D02*
X141441Y253059D01*
X147059Y275000D02*
X166000D01*
X89500D02*
X104500D01*
X161000Y210500D02*
X172000D01*
X185500Y224000D01*
X48000Y151000D02*
X82000Y185000D01*
X89500D01*
X80500Y175000D02*
X89500D01*
X54500Y82500D02*
Y149000D01*
X80500Y175000D01*
X154000Y34000D02*
X155414Y32586D01*
X187001D01*
X186604Y44000D02*
X187001Y44397D01*
X154000Y44000D02*
X186604D01*
X156879Y56208D02*
X187001D01*
X154000Y54000D02*
X154671D01*
X156879Y56208D01*
X158019Y68019D02*
X187001D01*
X154000Y64000D02*
X158019Y68019D01*
X126000Y34000D02*
X154000D01*
X126000Y44000D02*
X154000D01*
X126000Y54000D02*
X154000D01*
X126000Y64000D02*
X154000D01*
X48000Y86000D02*
Y151000D01*
X16000Y54000D02*
X26000D01*
X54500Y82500D01*
X26000Y64000D02*
X48000Y86000D01*
X16000Y64000D02*
X26000D01*
D24*
X126000Y74000D02*
D03*
Y64000D02*
D03*
Y54000D02*
D03*
Y44000D02*
D03*
Y34000D02*
D03*
X16000D02*
D03*
Y44000D02*
D03*
Y54000D02*
D03*
Y64000D02*
D03*
Y74000D02*
D03*
X19500Y215000D02*
D03*
Y225000D02*
D03*
Y205000D02*
D03*
Y195000D02*
D03*
Y185000D02*
D03*
Y175000D02*
D03*
Y165000D02*
D03*
Y155000D02*
D03*
Y145000D02*
D03*
Y135000D02*
D03*
Y235000D02*
D03*
Y245000D02*
D03*
Y255000D02*
D03*
Y265000D02*
D03*
Y275000D02*
D03*
Y285000D02*
D03*
Y295000D02*
D03*
Y305000D02*
D03*
Y315000D02*
D03*
X89500Y215000D02*
D03*
Y225000D02*
D03*
Y205000D02*
D03*
Y195000D02*
D03*
Y185000D02*
D03*
Y175000D02*
D03*
Y165000D02*
D03*
Y155000D02*
D03*
Y145000D02*
D03*
Y135000D02*
D03*
Y235000D02*
D03*
Y245000D02*
D03*
Y255000D02*
D03*
Y265000D02*
D03*
Y275000D02*
D03*
Y285000D02*
D03*
Y295000D02*
D03*
Y305000D02*
D03*
Y315000D02*
D03*
X166000Y275000D02*
D03*
Y317559D02*
D03*
X104500Y275000D02*
D03*
X147059D02*
D03*
X114000Y253000D02*
D03*
Y210441D02*
D03*
X161000Y253059D02*
D03*
Y210500D02*
D03*
X187001Y44397D02*
D03*
Y56208D02*
D03*
Y68019D02*
D03*
X154000Y64000D02*
D03*
Y54000D02*
D03*
Y44000D02*
D03*
X136000Y225000D02*
D03*
X185500Y224000D02*
D03*
X150500Y311000D02*
D03*
Y291300D02*
D03*
X132802Y310700D02*
D03*
Y291000D02*
D03*
X115104Y310445D02*
D03*
Y290745D02*
D03*
D25*
X19500Y125000D02*
D03*
X89500D02*
D03*
X187001Y32586D02*
D03*
X154000Y34000D02*
D03*
D26*
X179284Y20775D02*
D03*
Y79830D02*
D03*
D27*
X190500Y299260D02*
D03*
Y278000D02*
D03*
Y255559D02*
D03*
D28*
X136000Y235000D02*
D03*
X185500Y234000D02*
D03*
M02*
