<svg id="RED_-_INNOVATION_-_MCC_copy" data-name="RED - INNOVATION - MCC copy" xmlns="http://www.w3.org/2000/svg" width="269.37" height="84.8" viewBox="0 0 538.73 169.6" role="img" aria-labelledby="RED_-_INNOVATION_-_MCC_copy-title"><title id="RED_-_INNOVATION_-_MCC_copy-title">Makers Making Change a Neil Squire Program</title><defs><style>.cls-1{fill:#ef373e;}.cls-2{fill:#b4b2b4;}.cls-3{fill:#26225e;}</style></defs><path class="cls-1" d="M199,1168.39a95,95,0,0,0,14.28,11.36,66.24,66.24,0,0,0,9.65,5.11,35.06,35.06,0,0,1-11.61-21.31c-2.8-13.91-2.13-36.59,16.95-65.44l2.88-4.42c-.07-.29-.13-.57-.18-.85a67.82,67.82,0,0,0-20.27,8.45,16,16,0,0,1-22.11,22.28,67.48,67.48,0,0,0-8.23,19.92,16,16,0,0,1,12.79,15.68,15.31,15.31,0,0,1-.27,2.83C195.2,1164.55,197.15,1166.58,199,1168.39Z" transform="translate(-180.4 -1092.84)"/><path class="cls-2" d="M282.25,1101a67.52,67.52,0,0,0-19.75-8.16,16,16,0,0,1-29.45,5.35,166.79,166.79,0,0,0-10.93,18.68,94.21,94.21,0,0,0-6.4,17.09,65.9,65.9,0,0,0-1.87,10.71,34.88,34.88,0,0,1,14.21-16.22c.33-.2.66-.37,1-.54l.48-.26c9.86-5.82,27-11.88,52.88-8A15.82,15.82,0,0,1,282.25,1101Z" transform="translate(-180.4 -1092.84)"/><path class="cls-2" d="M220.14,1215.3a173.54,173.54,0,0,0,20.77-9,94.49,94.49,0,0,0,15.22-10.06,65.11,65.11,0,0,0,7.82-7.59,34.21,34.21,0,0,1-23.28,4.5c-11.86-1.26-30-6.95-49.15-26.83a15.94,15.94,0,0,1-11.12,8.57,67.48,67.48,0,0,0,8.23,19.92A16,16,0,0,1,210.75,1217c.53.33,1.06.65,1.61,1C215.67,1216.86,219.69,1215.47,220.14,1215.3Z" transform="translate(-180.4 -1092.84)"/><path class="cls-2" d="M249.25,1123.62a36,36,0,0,1,5.33.92,35,35,0,0,1,16,9c19,17,23.8,43.81,25,58.58a15.93,15.93,0,0,1,9.14,3,67.62,67.62,0,0,0,8.39-20.13,16,16,0,0,1,0-31.61,67.62,67.62,0,0,0-8.39-20.13c.12.2-3.28,1.82-3.61,1.94a15.85,15.85,0,0,1-8.33.84c-2.46-.4-4.78-1.3-7.2-1.84s-4.85-1-7.29-1.28a95.15,95.15,0,0,0-18.24-.8A66.08,66.08,0,0,0,249.25,1123.62Z" transform="translate(-180.4 -1092.84)"/><path class="cls-2" d="M289.86,1178.14a95.26,95.26,0,0,0-4.87-17.59,65.76,65.76,0,0,0-4.82-9.83,34.81,34.81,0,0,1-.17,16.33,35.32,35.32,0,0,1-2.71,7.23c-11.13,24.94-37.62,38-52.42,43.51l-7.52,2.87a67.57,67.57,0,0,0,13.65,4.83,16,16,0,0,1,31.5,0,67.52,67.52,0,0,0,19.75-8.16,15.94,15.94,0,0,1,9.31-24.72A132,132,0,0,0,289.86,1178.14Z" transform="translate(-180.4 -1092.84)"/><path class="cls-3" d="M356.22,1251.42H349.7l-1.28,4a4.15,4.15,0,0,1-2,.36,4,4,0,0,1-2-.36l6.23-18a10.57,10.57,0,0,1,4.66,0l6.18,18a4,4,0,0,1-2,.36,4.25,4.25,0,0,1-2-.36Zm-1-3.16-1-3a34.87,34.87,0,0,1-1.19-5.28h-.2a37.47,37.47,0,0,1-1.24,5.36l-.95,3Zm15.53,7.18a5.62,5.62,0,0,1-3.68,0v-18a10.83,10.83,0,0,1,2.54-.25,10.37,10.37,0,0,1,2.53.25l5,9a19.63,19.63,0,0,1,1.62,4.71h.2v-13.67a3.77,3.77,0,0,1,1.83-.31,4,4,0,0,1,1.83.31v18a9,9,0,0,1-2.4.25,8.63,8.63,0,0,1-2.39-.25l-5.25-9.53a18,18,0,0,1-1.6-4.68h-.2Zm17.89-5c.15,1.8,1.44,2.67,4,2.67a10.34,10.34,0,0,0,4-.77,4.44,4.44,0,0,1-.93,2.91,8.48,8.48,0,0,1-4.07.9c-4.5,0-6.9-2.6-6.9-6.77s2.58-7.08,6.62-7.08c3.76,0,5.48,2.32,5.48,5.72a8,8,0,0,1-.38,2.42Zm4.71-2.71c.21-1.34-.28-2.65-2.14-2.65a2.56,2.56,0,0,0-2.67,2.65Zm9.48-9.37a2.12,2.12,0,0,1-2.24,2.35,2.06,2.06,0,0,1-2.27-2.32,2.13,2.13,0,0,1,2.27-2.24A2.07,2.07,0,0,1,402.82,1238.37ZM398.7,1243a4.4,4.4,0,0,1,1.88-.31,4.21,4.21,0,0,1,1.85.31v12.41a4.21,4.21,0,0,1-1.85.31,4.4,4.4,0,0,1-1.88-.31Zm9.62,13.13c-2.57,0-3.34-1.67-3.34-4v-15a7.6,7.6,0,0,1,3.73-.75v15.14c0,1,.33,1.23,1.08,1.23a2.73,2.73,0,0,0,1.57-.46,5.71,5.71,0,0,1-.72,3.22A4.39,4.39,0,0,1,408.32,1256.16Zm13.08-3.22c2.29,0,3.19-.87,3.19-2.24,0-3.78-8.57-1.75-8.57-8.34,0-3.68,2.42-5.61,6.39-5.61a8.81,8.81,0,0,1,4.53,1.13,6,6,0,0,1,.69,3.56,9.8,9.8,0,0,0-4.94-1.44c-1.91,0-2.76.69-2.76,1.87,0,3.56,8.52,1.68,8.52,8.34,0,4.53-3.11,6-7,6a12.21,12.21,0,0,1-5.12-1,6.27,6.27,0,0,1-.69-3.73A12.63,12.63,0,0,0,421.4,1252.94Zm16.84,1.21a3.79,3.79,0,0,1-3.68,2c-2.63,0-5.18-1.7-5.18-6.38,0-4.89,2.83-7.47,7.42-7.47a9,9,0,0,1,5,1.37v18a4.18,4.18,0,0,1-1.85.31,4.43,4.43,0,0,1-1.88-.31v-3.19a25.78,25.78,0,0,1,.33-4.3Zm-.08-8.49a3.41,3.41,0,0,0-1.49-.28c-2.4,0-3.45,1.51-3.45,4,0,2.36.9,3.42,2.57,3.42a2.78,2.78,0,0,0,2.37-1.21Zm14.39,8.44c-.56,1.16-1.77,2.06-4,2.06-2,0-4.27-.69-4.27-5v-7.85a7.66,7.66,0,0,1,3.73-.77v8c0,1.39.44,2.16,1.93,2.16a3,3,0,0,0,2.47-1.11V1243a4.43,4.43,0,0,1,1.88-.31,4.18,4.18,0,0,1,1.85.31v12.28a6.06,6.06,0,0,1-2.9.59l-.44-1.8Zm10.3-15.73a2.12,2.12,0,0,1-2.24,2.35,2.05,2.05,0,0,1-2.26-2.32,2.13,2.13,0,0,1,2.26-2.24A2.06,2.06,0,0,1,462.85,1238.37Zm-4.12,4.66a4.43,4.43,0,0,1,1.88-.31,4.18,4.18,0,0,1,1.85.31v12.41a4.18,4.18,0,0,1-1.85.31,4.43,4.43,0,0,1-1.88-.31Zm13.13-.72a2.81,2.81,0,0,1,1.21.23,4.62,4.62,0,0,1,.54,2.35,4.47,4.47,0,0,1-.23,1.57,3.19,3.19,0,0,0-1.78-.44,3,3,0,0,0-2.78,2.24v7.18a4.18,4.18,0,0,1-1.85.31,4.43,4.43,0,0,1-1.88-.31v-12.28a6.49,6.49,0,0,1,3-.59l.26,2.37h.21A3.08,3.08,0,0,1,471.86,1242.31Zm5.36,8.14c.15,1.8,1.44,2.67,4,2.67a10.34,10.34,0,0,0,4-.77,4.33,4.33,0,0,1-.93,2.91,8.47,8.47,0,0,1-4.06.9c-4.51,0-6.9-2.6-6.9-6.77s2.57-7.08,6.61-7.08c3.76,0,5.49,2.32,5.49,5.72a8,8,0,0,1-.39,2.42Zm4.71-2.71c.2-1.34-.29-2.65-2.14-2.65a2.56,2.56,0,0,0-2.68,2.65Zm9.7-10.19a27.66,27.66,0,0,1,5.43-.49c5.2,0,8.32,1.78,8.32,6.31s-3.17,6.61-7.11,6.61a20.81,20.81,0,0,1-2.75-.18v5.61a4.08,4.08,0,0,1-1.93.34,4.41,4.41,0,0,1-2-.34Zm3.86,3v6a14.61,14.61,0,0,0,2.27.18c2.29,0,3.68-.9,3.68-3.09s-1.47-3.22-4.09-3.22A10,10,0,0,0,495.49,1240.54Zm17.9,1.77a2.84,2.84,0,0,1,1.21.23,4.62,4.62,0,0,1,.54,2.35,4.43,4.43,0,0,1-.24,1.57,3.13,3.13,0,0,0-1.77-.44,3,3,0,0,0-2.78,2.24v7.18a4.23,4.23,0,0,1-1.86.31,4.38,4.38,0,0,1-1.87-.31v-12.28a6.43,6.43,0,0,1,3-.59l.25,2.37h.21A3.09,3.09,0,0,1,513.39,1242.31Zm14.36,6.72c0,4.63-2.45,7.13-6.41,7.13-4.14,0-6.41-2.37-6.41-7.13,0-4.22,2.6-6.72,6.41-6.72S527.75,1244.65,527.75,1249Zm-6.41,4.07c1.78,0,2.57-1.5,2.57-4,0-2.27-.92-3.68-2.57-3.68s-2.57,1.41-2.57,3.68C518.77,1251.6,519.64,1253.1,521.34,1253.1Zm9.29-2.19a4.24,4.24,0,0,1-1.67-3.78c0-3.2,2.34-4.82,5.59-4.82a7.36,7.36,0,0,1,2.85.52h3.71a7.12,7.12,0,0,1,.46,2.73h-1.85v.12a2.59,2.59,0,0,1,.39,1.6c0,3-2.09,4.66-5.49,4.66a4.43,4.43,0,0,1-1.44-.21,1,1,0,0,0-.43.85c0,.72.87.88,2.57.88,3.68,0,6.31.72,6.31,4.12s-2.68,4.86-7,4.86c-3.91,0-6.41-1.11-6.41-4.12a2.81,2.81,0,0,1,2-2.93v-.18a2,2,0,0,1-1.06-1.93,2.14,2.14,0,0,1,1.49-2.19Zm1.94,5.3a1.75,1.75,0,0,0-.88,1.55c0,1.41,1.42,1.8,3.24,1.8,2.06,0,3.22-.54,3.22-1.78,0-1-.69-1.34-3.37-1.34A7.43,7.43,0,0,1,532.57,1256.21Zm2-7a2.09,2.09,0,1,0-2.16-2.08A1.91,1.91,0,0,0,534.55,1249.21Zm15-6.9a2.81,2.81,0,0,1,1.21.23,4.62,4.62,0,0,1,.54,2.35,4.43,4.43,0,0,1-.24,1.57,3.13,3.13,0,0,0-1.77-.44,3,3,0,0,0-2.78,2.24v7.18a4.23,4.23,0,0,1-1.86.31,4.38,4.38,0,0,1-1.87-.31v-12.28a6.43,6.43,0,0,1,3-.59l.26,2.37h.2A3.09,3.09,0,0,1,549.56,1242.31Zm9,12a3.68,3.68,0,0,1-3.55,1.85c-2.27,0-4.22-1.13-4.22-4.12s2.26-4.35,5.25-4.35a7.44,7.44,0,0,1,2.34.34v-.36c0-1.57-.77-2.14-2.47-2.14a8.4,8.4,0,0,0-4.12,1.08,4.59,4.59,0,0,1,.41-3.45,9.85,9.85,0,0,1,4.43-.85c3.71,0,5.48,1.31,5.48,5.12v4.46c0,.8.36,1,.88,1a2,2,0,0,0,1.11-.31,5.27,5.27,0,0,1-.67,3,3.84,3.84,0,0,1-2.14.59,2.22,2.22,0,0,1-2.52-1.85Zm-.1-3.81a4.47,4.47,0,0,0-1.7-.31c-1.49,0-2.24.62-2.24,1.59s.75,1.37,1.78,1.37a2.72,2.72,0,0,0,2.16-.9Zm10.35,4.94a4.23,4.23,0,0,1-1.86.31,4.38,4.38,0,0,1-1.87-.31v-12.28a6.55,6.55,0,0,1,3-.59l.21,2.11h.2a4.26,4.26,0,0,1,4.17-2.37,3.59,3.59,0,0,1,3.74,2.24h.2c.54-1.21,1.8-2.24,4.1-2.24,1.93,0,4.19.7,4.19,4.94v8.19a4.18,4.18,0,0,1-1.85.31,4.43,4.43,0,0,1-1.88-.31v-7.52c0-1.33-.44-2.18-1.91-2.18a2.65,2.65,0,0,0-2.47,1.46c0,.23.05.77.05,1.32v6.92a4,4,0,0,1-1.82.31,4.33,4.33,0,0,1-1.86-.31v-7.52c0-1.33-.43-2.18-1.9-2.18a2.61,2.61,0,0,0-2.47,1.46Z" transform="translate(-180.4 -1092.84)"/><path class="cls-1" d="M383.36,1117.24h-.46a84.12,84.12,0,0,1-2.76,11.5l-6.85,22.43a10.52,10.52,0,0,1-4.19.57,10.67,10.67,0,0,1-4.09-.57l-7.07-22.72a70.88,70.88,0,0,1-2.53-11.21H355V1151a12.29,12.29,0,0,1-7.77,0v-40.09a26.72,26.72,0,0,1,6.44-.63,26.18,26.18,0,0,1,6.5.63l6.62,21.16a68.53,68.53,0,0,1,2.41,11.33h.46a81.12,81.12,0,0,1,2.25-11.21l6.32-21.28a26.23,26.23,0,0,1,6.5-.63,26.66,26.66,0,0,1,6.44.63V1151a8,8,0,0,1-3.85.63,8.58,8.58,0,0,1-3.91-.63Z" transform="translate(-180.4 -1092.84)"/><path class="cls-1" d="M412.45,1148.41c-1.26,2.53-4,4.14-7.93,4.14-5.06,0-9.43-2.53-9.43-9.2,0-7,5.06-9.72,11.73-9.72a17.4,17.4,0,0,1,5.23.74v-.8c0-3.51-1.72-4.77-5.52-4.77a18.77,18.77,0,0,0-9.2,2.41c-.69-2.24-.4-5.81.92-7.7,2.07-1.16,5.63-1.9,9.89-1.9,8.28,0,12.25,2.93,12.25,11.44v10c0,1.78.81,2.19,2,2.19a4.54,4.54,0,0,0,2.47-.69,11.61,11.61,0,0,1-1.5,6.72,8.44,8.44,0,0,1-4.77,1.33c-3.34,0-5.06-1.44-5.64-4.14Zm-.23-8.51a10.1,10.1,0,0,0-3.79-.69c-3.34,0-5,1.38-5,3.56s1.67,3,4,3a6.05,6.05,0,0,0,4.83-2Z" transform="translate(-180.4 -1092.84)"/><path class="cls-1" d="M437.47,1132.48l6.78-9.61a11.64,11.64,0,0,1,3.34-.46,11,11,0,0,1,5.41,1.1l-8.75,12.13a120.85,120.85,0,0,0,10.18,15.3,9.92,9.92,0,0,1-4.54.74,15.42,15.42,0,0,1-5.35-.74,83.59,83.59,0,0,1-7.42-11.62h-2.53v11.62a9.39,9.39,0,0,1-4.14.69,10,10,0,0,1-4.2-.69v-40.78c2-1.09,4.66-1.66,8.34-1.66v24Z" transform="translate(-180.4 -1092.84)"/><path class="cls-1" d="M461.85,1139.78c.35,4,3.22,6,8.91,6a23,23,0,0,0,9-1.72,9.84,9.84,0,0,1-2.07,6.5,19,19,0,0,1-9.09,2c-10.07,0-15.41-5.81-15.41-15.13,0-9.6,5.75-15.81,14.78-15.81,8.39,0,12.25,5.17,12.25,12.76a17.62,17.62,0,0,1-.87,5.41Zm10.52-6c.46-3-.63-5.92-4.77-5.92-3.56,0-5.75,2.3-6,5.92Z" transform="translate(-180.4 -1092.84)"/><path class="cls-1" d="M499,1121.61a6,6,0,0,1,2.7.52,10.12,10.12,0,0,1,1.21,5.23,10,10,0,0,1-.52,3.51,7.15,7.15,0,0,0-4-1c-2.93,0-5.11,2-6.21,5v16a9.39,9.39,0,0,1-4.14.69,10,10,0,0,1-4.2-.69v-27.43a14.48,14.48,0,0,1,6.73-1.33l.58,5.29h.46C492.44,1124.31,494.28,1121.61,499,1121.61Z" transform="translate(-180.4 -1092.84)"/><path class="cls-1" d="M512.45,1146.11c2.94,0,4.09-.92,4.09-2.65,0-4.54-13.11-2.3-13.11-12.54,0-5.86,3.73-9.31,10.69-9.31a16,16,0,0,1,8.17,2,12.58,12.58,0,0,1,1.38,7.08A17.2,17.2,0,0,0,515,1128c-2.47,0-3.22.81-3.22,2.19,0,4.25,13.17,2.12,13.17,12.3,0,7.37-5.12,10.07-12.25,10.07a21.7,21.7,0,0,1-8.74-1.61,12.12,12.12,0,0,1-1.26-7.42A20.71,20.71,0,0,0,512.45,1146.11Z" transform="translate(-180.4 -1092.84)"/><path class="cls-1" d="M573.76,1117.24h-.46a84.12,84.12,0,0,1-2.76,11.5l-6.85,22.43a15.32,15.32,0,0,1-8.28,0l-7.07-22.72a70.88,70.88,0,0,1-2.53-11.21h-.46V1151a12.29,12.29,0,0,1-7.77,0v-40.09a26.72,26.72,0,0,1,6.44-.63,26.18,26.18,0,0,1,6.5.63l6.62,21.16a68.53,68.53,0,0,1,2.41,11.33H560a81.12,81.12,0,0,1,2.25-11.21l6.32-21.28a26.23,26.23,0,0,1,6.5-.63,26.66,26.66,0,0,1,6.44.63V1151a8,8,0,0,1-3.85.63,8.58,8.58,0,0,1-3.91-.63Z" transform="translate(-180.4 -1092.84)"/><path class="cls-1" d="M602.85,1148.41c-1.26,2.53-4,4.14-7.93,4.14-5.06,0-9.43-2.53-9.43-9.2,0-7,5.06-9.72,11.73-9.72a17.4,17.4,0,0,1,5.23.74v-.8c0-3.51-1.72-4.77-5.52-4.77a18.77,18.77,0,0,0-9.2,2.41c-.69-2.24-.4-5.81.92-7.7,2.07-1.16,5.63-1.9,9.89-1.9,8.28,0,12.25,2.93,12.25,11.44v10c0,1.78.81,2.19,2,2.19a4.54,4.54,0,0,0,2.47-.69,11.61,11.61,0,0,1-1.5,6.72,8.44,8.44,0,0,1-4.77,1.33c-3.34,0-5.06-1.44-5.64-4.14Zm-.23-8.51a10.1,10.1,0,0,0-3.79-.69c-3.34,0-5,1.38-5,3.56s1.67,3,4,3a6.05,6.05,0,0,0,4.83-2Z" transform="translate(-180.4 -1092.84)"/><path class="cls-1" d="M627.87,1132.48l6.78-9.61a11.64,11.64,0,0,1,3.34-.46,11,11,0,0,1,5.41,1.1l-8.75,12.13a120.85,120.85,0,0,0,10.18,15.3,9.92,9.92,0,0,1-4.54.74,15.42,15.42,0,0,1-5.35-.74,83.59,83.59,0,0,1-7.42-11.62H625v11.62a9.39,9.39,0,0,1-4.14.69,10,10,0,0,1-4.2-.69v-40.78c2-1.09,4.66-1.66,8.34-1.66v24Z" transform="translate(-180.4 -1092.84)"/><path class="cls-1" d="M655.87,1112.81c0,3.39-2,5.23-5,5.23-3.28,0-5.06-1.78-5.06-5.17a4.76,4.76,0,0,1,5.06-5C653.86,1107.86,655.87,1109.64,655.87,1112.81Zm-9.2,10.41a9.81,9.81,0,0,1,4.2-.69,9.3,9.3,0,0,1,4.14.69v27.72a9.45,9.45,0,0,1-4.14.69,10,10,0,0,1-4.2-.69Z" transform="translate(-180.4 -1092.84)"/><path class="cls-1" d="M668.75,1150.94a9.39,9.39,0,0,1-4.14.69,10,10,0,0,1-4.2-.69v-27.43a14.75,14.75,0,0,1,6.79-1.33l.46,4.72h.46c1.38-3,4.31-5.29,9.55-5.29,4.37,0,9.54,1.55,9.54,11v18.29a9.39,9.39,0,0,1-4.14.69,9.88,9.88,0,0,1-4.19-.69v-16.8c0-3-1-4.88-4.43-4.88a6.16,6.16,0,0,0-5.7,3.27Z" transform="translate(-180.4 -1092.84)"/><path class="cls-1" d="M694.57,1140.82c-2.7-1.73-3.74-5-3.74-8.46,0-7.13,5.24-10.75,12.48-10.75a16.71,16.71,0,0,1,6.39,1.15H718a16.08,16.08,0,0,1,1,6.09h-4.15v.29a5.71,5.71,0,0,1,.87,3.57c0,6.61-4.66,10.41-12.25,10.41a10.3,10.3,0,0,1-3.22-.46,2.28,2.28,0,0,0-1,1.89c0,1.61,2,2,5.75,2,8.22,0,14.09,1.61,14.09,9.2,0,7.76-6,10.87-15.64,10.87-8.74,0-14.32-2.47-14.32-9.2,0-3.45,1.84-5.92,4.43-6.56v-.4a4.47,4.47,0,0,1-2.36-4.31,4.77,4.77,0,0,1,3.33-4.89Zm4.32,11.84a3.91,3.91,0,0,0-2,3.45c0,3.17,3.16,4,7.25,4,4.6,0,7.19-1.21,7.19-4,0-2.13-1.56-3-7.54-3A16.37,16.37,0,0,1,698.89,1152.66Zm4.42-15.64c3.17,0,4.78-1.78,4.78-4.66s-1.67-4.66-4.78-4.66-4.83,1.79-4.83,4.66S700.09,1137,703.31,1137Z" transform="translate(-180.4 -1092.84)"/><path class="cls-1" d="M367.71,1177.19c-8.1,0-13.68,4.14-13.68,14.15s5.52,14,13.28,14a26,26,0,0,0,9.66-2,14.28,14.28,0,0,1-2.3,7.65,23.53,23.53,0,0,1-10.06,2.07c-12.31,0-19.55-7.93-19.55-21.16,0-14.26,8.45-22.37,20.87-22.37,3.28,0,6.62.57,8.74,1.84a12.71,12.71,0,0,1,1.61,7.82A18.66,18.66,0,0,0,367.71,1177.19Z" transform="translate(-180.4 -1092.84)"/><path class="cls-1" d="M388.93,1211.29a9.39,9.39,0,0,1-4.14.69,10,10,0,0,1-4.2-.69v-40.77c2-1.1,4.66-1.67,8.34-1.67v8.74a58.6,58.6,0,0,1-.74,9.43h.46c1.26-2.87,4-5.06,9.31-5.06,4.49,0,9.72,1.55,9.72,11v18.29a9.45,9.45,0,0,1-4.14.69,10,10,0,0,1-4.2-.69V1194.5c0-3-1.09-5-4.54-5a6.35,6.35,0,0,0-5.87,3.4Z" transform="translate(-180.4 -1092.84)"/><path class="cls-1" d="M427.81,1208.76c-1.27,2.53-4,4.14-7.94,4.14-5.06,0-9.43-2.53-9.43-9.2,0-7,5.06-9.72,11.73-9.72a17.16,17.16,0,0,1,5.24.75v-.81c0-3.5-1.73-4.77-5.53-4.77a18.8,18.8,0,0,0-9.2,2.41c-.69-2.24-.4-5.8.92-7.7,2.07-1.15,5.64-1.9,9.89-1.9,8.29,0,12.25,2.93,12.25,11.45v9.94c0,1.79.81,2.19,2,2.19a4.49,4.49,0,0,0,2.47-.69,11.72,11.72,0,0,1-1.49,6.73,8.58,8.58,0,0,1-4.78,1.32c-3.33,0-5.06-1.44-5.63-4.14Zm-.23-8.51a10.16,10.16,0,0,0-3.8-.69c-3.33,0-5,1.38-5,3.56s1.67,3.05,4,3.05a6,6,0,0,0,4.83-2Z" transform="translate(-180.4 -1092.84)"/><path class="cls-1" d="M450.23,1211.29a9.39,9.39,0,0,1-4.14.69,10,10,0,0,1-4.2-.69v-27.43a14.89,14.89,0,0,1,6.79-1.32l.46,4.71h.46c1.38-3,4.31-5.29,9.55-5.29,4.37,0,9.55,1.55,9.55,11v18.29a9.47,9.47,0,0,1-4.15.69,9.88,9.88,0,0,1-4.19-.69V1194.5c0-3-1-4.89-4.43-4.89a6.14,6.14,0,0,0-5.7,3.28Z" transform="translate(-180.4 -1092.84)"/><path class="cls-1" d="M476.05,1201.17c-2.7-1.73-3.73-5-3.73-8.45,0-7.14,5.23-10.76,12.47-10.76a16.71,16.71,0,0,1,6.39,1.15h8.28a16.16,16.16,0,0,1,1,6.1h-4.15v.28a5.71,5.71,0,0,1,.87,3.57c0,6.61-4.66,10.41-12.25,10.41a10.3,10.3,0,0,1-3.22-.46,2.3,2.3,0,0,0-1,1.9c0,1.61,2,1.95,5.75,1.95,8.22,0,14.09,1.61,14.09,9.2,0,7.77-6,10.87-15.64,10.87-8.74,0-14.32-2.47-14.32-9.2,0-3.45,1.84-5.92,4.43-6.55v-.41a4.45,4.45,0,0,1-2.36-4.31,4.77,4.77,0,0,1,3.33-4.89Zm4.32,11.85a3.89,3.89,0,0,0-2,3.45c0,3.16,3.16,4,7.25,4,4.6,0,7.19-1.2,7.19-4,0-2.12-1.56-3-7.54-3A16.75,16.75,0,0,1,480.37,1213Zm4.42-15.65c3.17,0,4.78-1.78,4.78-4.65s-1.67-4.66-4.78-4.66-4.83,1.78-4.83,4.66S481.57,1197.37,484.79,1197.37Z" transform="translate(-180.4 -1092.84)"/><path class="cls-1" d="M509.52,1200.13c.35,4,3.22,6,8.92,6a23,23,0,0,0,9-1.73,9.82,9.82,0,0,1-2.07,6.5,19,19,0,0,1-9.09,2c-10.06,0-15.41-5.81-15.41-15.12,0-9.61,5.75-15.82,14.78-15.82,8.39,0,12.25,5.18,12.25,12.77a17.61,17.61,0,0,1-.87,5.4Zm10.53-6c.46-3-.64-5.93-4.78-5.93-3.56,0-5.75,2.3-6,5.93Z" transform="translate(-180.4 -1092.84)"/></svg>